<?xml version="1.0" encoding="UTF-8" standalone="no"?>
<!DOCTYPE svg PUBLIC "-//W3C//DTD SVG 1.1//EN"
"http://www.w3.org/Graphics/SVG/1.1/DTD/svg11.dtd">
<!-- Generated by graphviz version 2.43.0 (0)
-->
<!-- Title: render_graph Pages: 1 -->
<svg width="692pt" height="315pt"
viewBox="0.00 0.00 692.00 314.50" xmlns="http://www.w3.org/2000/svg" xmlns:xlink="http://www.w3.org/1999/xlink">
<g id="graph0" class="graph" transform="scale(1 1) rotate(0) translate(4 310.5)">
<title>render_graph</title>
<polygon fill="white" stroke="transparent" points="-4,4 -4,-310.5 688,-310.5 688,4 -4,4"/>
<!-- RP0 -->
<g id="node1" class="node">
<title>RP0</title>
<path fill="#4e8259" stroke="transparent" d="M20,-50C20,-50 123,-50 123,-50 129,-50 135,-56 135,-62 135,-62 135,-190 135,-190 135,-196 129,-202 123,-202 123,-202 20,-202 20,-202 14,-202 8,-196 8,-190 8,-190 8,-62 8,-62 8,-56 14,-50 20,-50"/>
<text text-anchor="start" x="9.5" y="-179.6" font-family="Lato" font-size="10.00" fill="#505050"> &#160;&#160;</text>
<text text-anchor="start" x="16.5" y="-179.6" font-family="Lato" font-weight="bold" font-size="18.00" fill="#f8f8f8">RP0</text>
<text text-anchor="start" x="50.5" y="-179.6" font-family="Lato" font-size="18.00" fill="#f8f8f8"> </text>
<text text-anchor="start" x="55.5" y="-179.6" font-family="Lato" font-size="10.00" fill="#505050"> </text>
<text text-anchor="start" x="58.5" y="-179.6" font-family="Lato" font-size="9.00" fill="#f8f8f8">FBO1</text>
<text text-anchor="start" x="83.5" y="-179.6" font-family="Lato" font-size="28.00" fill="#505050"> </text>
<text text-anchor="start" x="9.5" y="-163" font-family="Lato" font-size="10.00" fill="#505050"> &#160;&#160;</text>
<text text-anchor="start" x="16.5" y="-163" font-family="Lato" font-size="10.00" fill="#f8f8f8">Offscreen</text>
<text text-anchor="start" x="60.5" y="-163" font-family="Lato" font-size="10.00" fill="#505050"> &#160;&#160;</text>
<text text-anchor="start" x="71.5" y="-155.8" font-family="Lato" font-size="4.00" fill="#505050"> </text>
<polygon fill="#f8f8f8" stroke="transparent" points="8.5,-50.0 8.5,-155.0 135.5,-155.0 135.5,-50.0 8.5,-50.0"/>
<text text-anchor="start" x="15.5" y="-138.8" font-family="Lato" font-size="10.00" fill="#505050">3393x1908 &#160;&#160;</text>
<text text-anchor="start" x="76.5" y="-138.8" font-family="Lato" font-size="14.00" fill="#505050"> </text>
<text text-anchor="start" x="86.5" y="-139" font-family="Lato" font-size="10.00" fill="#505050">2 draws &#160;&#160;</text>
<text text-anchor="start" x="15.5" y="-120" font-family="Lato" font-size="10.00" fill="#505050">4 samples &#160;&#160;</text>
<text text-anchor="start" x="15.5" y="-100.8" font-family="Lato" font-size="10.00" fill="#505050">Attachments: &#160;&#160;</text>
<text text-anchor="start" x="80.5" y="-100.8" font-family="Lato" font-size="14.00" fill="#505050"> </text>
<text text-anchor="start" x="13.5" y="-85" font-family="Lato" font-size="10.00" fill="#505050"> &#160;</text>
<text text-anchor="start" x="18.5" y="-85" font-family="Lato" font-weight="bold" font-size="10.00" fill="#505050">Color 0</text>
<text text-anchor="start" x="52.5" y="-85" font-family="Lato" font-size="10.00" fill="#505050"> &#160;&#160;&#160;</text>
<text text-anchor="start" x="84.5" y="-84" font-family="Lato" font-size="10.00" fill="#505050">T1 &#160;</text>
<text text-anchor="start" x="13.5" y="-72" font-family="Lato" font-size="10.00" fill="#505050"> &#160;</text>
<text text-anchor="start" x="18.5" y="-72" font-family="Lato" font-weight="bold" font-size="10.00" fill="#505050">Depth</text>
<text text-anchor="start" x="46.5" y="-72" font-family="Lato" font-size="10.00" fill="#505050"> &#160;&#160;&#160;</text>
<text text-anchor="start" x="84.5" y="-71" font-family="Lato" font-size="10.00" fill="#505050">RB1.d &#160;</text>
<text text-anchor="start" x="13.5" y="-59" font-family="Lato" font-size="10.00" fill="#505050"> &#160;</text>
<text text-anchor="start" x="18.5" y="-59" font-family="Lato" font-weight="bold" font-size="10.00" fill="#505050">Stencil</text>
<text text-anchor="start" x="48.5" y="-59" font-family="Lato" font-size="10.00" fill="#505050"> &#160;&#160;&#160;</text>
<text text-anchor="start" x="84.5" y="-58" font-family="Lato" font-size="10.00" fill="#505050">RB1.s &#160;</text>
<path fill="none" stroke="#909090" d="M20,-50C20,-50 123,-50 123,-50 129,-50 135,-56 135,-62 135,-62 135,-190 135,-190 135,-196 129,-202 123,-202 123,-202 20,-202 20,-202 14,-202 8,-196 8,-190 8,-190 8,-62 8,-62 8,-56 14,-50 20,-50"/>
</g>
<!-- T1v1 -->
<g id="node5" class="node">
<title>T1v1</title>
<path fill="#808081" stroke="transparent" d="M171.33,-113C171.33,-113 199.67,-113 199.67,-113 204.33,-113 209,-117.67 209,-122.33 209,-122.33 209,-131.67 209,-131.67 209,-136.33 204.33,-141 199.67,-141 199.67,-141 171.33,-141 171.33,-141 166.67,-141 162,-136.33 162,-131.67 162,-131.67 162,-122.33 162,-122.33 162,-117.67 166.67,-113 171.33,-113"/>
<text text-anchor="start" x="175" y="-129" font-family="Lato" font-size="10.00" fill="#f8f8f8"> &#160;&#160;T1 </text>
<text text-anchor="start" x="167.5" y="-120.6" font-family="Lato" font-size="8.00" fill="#f8f8f8">4 samples</text>
</g>
<!-- RP0&#45;&gt;T1v1 -->
<g id="edge1" class="edge">
<title>RP0:e&#45;&gt;T1v1:w</title>
<path fill="none" stroke="#757576" d="M137.94,-87.36C152.32,-94.48 143.67,-127 164.5,-127"/>
<ellipse fill="#757576" stroke="#757576" cx="134.63" cy="-88.2" rx="3.2" ry="3.2"/>
<ellipse fill="#757576" stroke="#757576" cx="134.63" cy="-88.2" rx="3.2" ry="3.2"/>
</g>
<!-- RB1dv1 -->
<g id="node6" class="node">
<title>RB1dv1</title>
<path fill="#808081" stroke="transparent" d="M171.33,-59C171.33,-59 199.67,-59 199.67,-59 204.33,-59 209,-63.67 209,-68.33 209,-68.33 209,-77.67 209,-77.67 209,-82.33 204.33,-87 199.67,-87 199.67,-87 171.33,-87 171.33,-87 166.67,-87 162,-82.33 162,-77.67 162,-77.67 162,-68.33 162,-68.33 162,-63.67 166.67,-59 171.33,-59"/>
<text text-anchor="start" x="168" y="-75" font-family="Lato" font-size="10.00" fill="#f8f8f8"> &#160;&#160;RB1.d </text>
<text text-anchor="start" x="167.5" y="-66.6" font-family="Lato" font-size="8.00" fill="#f8f8f8">4 samples</text>
</g>
<!-- RP0&#45;&gt;RB1dv1 -->
<g id="edge2" class="edge">
<title>RP0:e&#45;&gt;RB1dv1:w</title>
<path fill="none" stroke="#757576" d="M137.93,-73C147.67,-73 152.24,-73 164.5,-73"/>
<ellipse fill="#757576" stroke="#757576" cx="134.7" cy="-74.5" rx="3.2" ry="3.2"/>
<ellipse fill="#757576" stroke="#757576" cx="134.7" cy="-74.5" rx="3.2" ry="3.2"/>
</g>
<!-- RB1sv1 -->
<g id="node7" class="node">
<title>RB1sv1</title>
<path fill="#808081" stroke="transparent" d="M171.33,-5C171.33,-5 199.67,-5 199.67,-5 204.33,-5 209,-9.67 209,-14.33 209,-14.33 209,-23.67 209,-23.67 209,-28.33 204.33,-33 199.67,-33 199.67,-33 171.33,-33 171.33,-33 166.67,-33 162,-28.33 162,-23.67 162,-23.67 162,-14.33 162,-14.33 162,-9.67 166.67,-5 171.33,-5"/>
<text text-anchor="start" x="168.5" y="-21" font-family="Lato" font-size="10.00" fill="#f8f8f8"> &#160;&#160;RB1.s </text>
<text text-anchor="start" x="167.5" y="-12.6" font-family="Lato" font-size="8.00" fill="#f8f8f8">4 samples</text>
</g>
<!-- RP0&#45;&gt;RB1sv1 -->
<g id="edge3" class="edge">
<title>RP0:e&#45;&gt;RB1sv1:w</title>
<path fill="none" stroke="#757576" d="M137.94,-58.64C152.32,-51.52 143.67,-19 164.5,-19"/>
<ellipse fill="#757576" stroke="#757576" cx="134.63" cy="-60.8" rx="3.2" ry="3.2"/>
<ellipse fill="#757576" stroke="#757576" cx="134.63" cy="-60.8" rx="3.2" ry="3.2"/>
</g>
<!-- RP1 -->
<g id="node2" class="node">
<title>RP1</title>
<path fill="#4e8259" stroke="transparent" d="M248,-159.5C248,-159.5 351,-159.5 351,-159.5 357,-159.5 363,-165.5 363,-171.5 363,-171.5 363,-290.5 363,-290.5 363,-296.5 357,-302.5 351,-302.5 351,-302.5 248,-302.5 248,-302.5 242,-302.5 236,-296.5 236,-290.5 236,-290.5 236,-171.5 236,-171.5 236,-165.5 242,-159.5 248,-159.5"/>
<text text-anchor="start" x="237.5" y="-279.6" font-family="Lato" font-size="10.00" fill="#505050"> &#160;&#160;</text>
<text text-anchor="start" x="244.5" y="-279.6" font-family="Lato" font-weight="bold" font-size="18.00" fill="#f8f8f8">RP1</text>
<text text-anchor="start" x="278.5" y="-279.6" font-family="Lato" font-size="18.00" fill="#f8f8f8"> </text>
<text text-anchor="start" x="283.5" y="-279.6" font-family="Lato" font-size="10.00" fill="#505050"> </text>
<text text-anchor="start" x="286.5" y="-279.6" font-family="Lato" font-size="9.00" fill="#f8f8f8">FBO2</text>
<text text-anchor="start" x="311.5" y="-279.6" font-family="Lato" font-size="28.00" fill="#505050"> </text>
<text text-anchor="start" x="237.5" y="-263" font-family="Lato" font-size="10.00" fill="#505050"> &#160;&#160;</text>
<text text-anchor="start" x="244.5" y="-263" font-family="Lato" font-size="10.00" fill="#f8f8f8">Offscreen</text>
<text text-anchor="start" x="288.5" y="-263" font-family="Lato" font-size="10.00" fill="#505050"> &#160;&#160;</text>
<text text-anchor="start" x="299.5" y="-255.8" font-family="Lato" font-size="4.00" fill="#505050"> </text>
<polygon fill="#f8f8f8" stroke="transparent" points="236.5,-159.0 236.5,-255.0 363.5,-255.0 363.5,-159.0 236.5,-159.0"/>
<text text-anchor="start" x="243.5" y="-238.8" font-family="Lato" font-size="10.00" fill="#505050">3393x1908 &#160;&#160;</text>
<text text-anchor="start" x="304.5" y="-238.8" font-family="Lato" font-size="14.00" fill="#505050"> </text>
<text text-anchor="start" x="314.5" y="-239" font-family="Lato" font-size="10.00" fill="#505050">2 draws &#160;&#160;</text>
<text text-anchor="start" x="243.5" y="-220" font-family="Lato" font-size="10.00" fill="#505050">4 samples &#160;&#160;</text>
<text text-anchor="start" x="243.5" y="-200.8" font-family="Lato" font-weight="bold" font-size="10.00" fill="#505050">Sampled data</text>
<text text-anchor="start" x="304.5" y="-200.8" font-family="Lato" font-size="10.00" fill="#505050"> &#160;</text>
<text text-anchor="start" x="309.5" y="-200.8" font-family="Lato" font-size="14.00" fill="#505050"> </text>
<text text-anchor="start" x="243.5" y="-182" font-family="Lato" font-size="10.00" fill="#505050">Attachments: &#160;&#160;</text>
<text text-anchor="start" x="241.5" y="-168" font-family="Lato" font-size="10.00" fill="#505050"> &#160;</text>
<text text-anchor="start" x="246.5" y="-168" font-family="Lato" font-weight="bold" font-size="10.00" fill="#505050">Color 0</text>
<text text-anchor="start" x="280.5" y="-168" font-family="Lato" font-size="10.00" fill="#505050"> &#160;&#160;&#160;</text>
<text text-anchor="start" x="312.5" y="-167" font-family="Lato" font-size="10.00" fill="#505050">T2 &#160;</text>
<path fill="none" stroke="#909090" d="M248,-159.5C248,-159.5 351,-159.5 351,-159.5 357,-159.5 363,-165.5 363,-171.5 363,-171.5 363,-290.5 363,-290.5 363,-296.5 357,-302.5 351,-302.5 351,-302.5 248,-302.5 248,-302.5 242,-302.5 236,-296.5 236,-290.5 236,-290.5 236,-171.5 236,-171.5 236,-165.5 242,-159.5 248,-159.5"/>
</g>
<!-- T2v1 -->
<g id="node8" class="node">
<title>T2v1</title>
<path fill="#808081" stroke="transparent" d="M400,-159.5C400,-159.5 418,-159.5 418,-159.5 421.5,-159.5 425,-163 425,-166.5 425,-166.5 425,-173.5 425,-173.5 425,-177 421.5,-180.5 418,-180.5 418,-180.5 400,-180.5 400,-180.5 396.5,-180.5 393,-177 393,-173.5 393,-173.5 393,-166.5 393,-166.5 393,-163 396.5,-159.5 400,-159.5"/>
<text text-anchor="start" x="398" y="-167" font-family="Lato" font-size="10.00" fill="#f8f8f8"> &#160;&#160;T2 </text>
</g>
<!-- RP1&#45;&gt;T2v1 -->
<g id="edge5" class="edge">
<title>RP1:e&#45;&gt;T2v1:w</title>
<path fill="none" stroke="#757576" d="M366.12,-169C376.8,-169 381.69,-169 395,-169"/>
<ellipse fill="#757576" stroke="#757576" cx="362.7" cy="-170.5" rx="3.2" ry="3.2"/>
<ellipse fill="#757576" stroke="#757576" cx="362.7" cy="-170.5" rx="3.2" ry="3.2"/>
</g>
<!-- Tr2 -->
<g id="node3" class="node">
<title>Tr2</title>
<path fill="#377bae" stroke="transparent" d="M268.5,-37C268.5,-37 330.5,-37 330.5,-37 336.5,-37 342.5,-43 342.5,-49 342.5,-49 342.5,-121 342.5,-121 342.5,-127 336.5,-133 330.5,-133 330.5,-133 268.5,-133 268.5,-133 262.5,-133 256.5,-127 256.5,-121 256.5,-121 256.5,-49 256.5,-49 256.5,-43 262.5,-37 268.5,-37"/>
<text text-anchor="start" x="257.5" y="-110.6" font-family="Lato" font-size="10.00" fill="#505050"> &#160;&#160;</text>
<text text-anchor="start" x="264.5" y="-110.6" font-family="Lato" font-weight="bold" font-size="18.00" fill="#f8f8f8">Tr2</text>
<text text-anchor="start" x="291.5" y="-110.6" font-family="Lato" font-size="18.00" fill="#f8f8f8"> </text>
<text text-anchor="start" x="296.5" y="-110.6" font-family="Lato" font-size="10.00" fill="#505050"> </text>
<text text-anchor="start" x="299.5" y="-110.6" font-family="Lato" font-size="9.00" fill="#f8f8f8">FBO3</text>
<text text-anchor="start" x="324.5" y="-110.6" font-family="Lato" font-size="28.00" fill="#505050"> </text>
<text text-anchor="start" x="257.5" y="-94" font-family="Lato" font-size="10.00" fill="#505050"> &#160;&#160;</text>
<text text-anchor="start" x="264.5" y="-94" font-family="Lato" font-size="10.00" fill="#f8f8f8">MSAA resolve</text>
<text text-anchor="start" x="327.5" y="-94" font-family="Lato" font-size="10.00" fill="#505050"> &#160;&#160;</text>
<text text-anchor="start" x="299" y="-86.8" font-family="Lato" font-size="4.00" fill="#505050"> </text>
<polygon fill="#f8f8f8" stroke="transparent" points="256.5,-37.0 256.5,-86.0 342.5,-86.0 342.5,-37.0 256.5,-37.0"/>
<text text-anchor="start" x="263.5" y="-69.8" font-family="Lato" font-size="10.00" fill="#505050">3392x1908 &#160;&#160;</text>
<text text-anchor="start" x="324.5" y="-69.8" font-family="Lato" font-size="14.00" fill="#505050"> </text>
<text text-anchor="start" x="263.5" y="-48.8" font-family="Lato" font-weight="bold" font-size="10.00" fill="#505050">Transfer data</text>
<text text-anchor="start" x="324.5" y="-48.8" font-family="Lato" font-size="10.00" fill="#505050"> &#160;</text>
<text text-anchor="start" x="329.5" y="-48.8" font-family="Lato" font-size="14.00" fill="#505050"> </text>
<path fill="none" stroke="#909090" d="M268.5,-37C268.5,-37 330.5,-37 330.5,-37 336.5,-37 342.5,-43 342.5,-49 342.5,-49 342.5,-121 342.5,-121 342.5,-127 336.5,-133 330.5,-133 330.5,-133 268.5,-133 268.5,-133 262.5,-133 256.5,-127 256.5,-121 256.5,-121 256.5,-49 256.5,-49 256.5,-43 262.5,-37 268.5,-37"/>
</g>
<!-- T3v1 -->
<g id="node9" class="node">
<title>T3v1</title>
<path fill="#808081" stroke="transparent" d="M400,-41.5C400,-41.5 418,-41.5 418,-41.5 421.5,-41.5 425,-45 425,-48.5 425,-48.5 425,-55.5 425,-55.5 425,-59 421.5,-62.5 418,-62.5 418,-62.5 400,-62.5 400,-62.5 396.5,-62.5 393,-59 393,-55.5 393,-55.5 393,-48.5 393,-48.5 393,-45 396.5,-41.5 400,-41.5"/>
<text text-anchor="start" x="398" y="-49" font-family="Lato" font-size="10.00" fill="#f8f8f8"> &#160;&#160;T3 </text>
</g>
<!-- Tr2&#45;&gt;T3v1 -->
<g id="edge7" class="edge">
<title>Tr2:e&#45;&gt;T3v1:w</title>
<path fill="none" stroke="#757576" d="M345.1,-51C364.95,-51 372.24,-51 395,-51"/>
<ellipse fill="#757576" stroke="#757576" cx="341.7" cy="-52.5" rx="3.2" ry="3.2"/>
<ellipse fill="#757576" stroke="#757576" cx="341.7" cy="-52.5" rx="3.2" ry="3.2"/>
</g>
<!-- RP3 -->
<g id="node4" class="node">
<title>RP3</title>
<path fill="#4e8259" stroke="transparent" d="M467,-7C467,-7 570,-7 570,-7 576,-7 582,-13 582,-19 582,-19 582,-121 582,-121 582,-127 576,-133 570,-133 570,-133 467,-133 467,-133 461,-133 455,-127 455,-121 455,-121 455,-19 455,-19 455,-13 461,-7 467,-7"/>
<text text-anchor="start" x="456.5" y="-110.6" font-family="Lato" font-size="10.00" fill="#505050"> &#160;&#160;</text>
<text text-anchor="start" x="463.5" y="-110.6" font-family="Lato" font-weight="bold" font-size="18.00" fill="#f8f8f8">RP3</text>
<text text-anchor="start" x="497.5" y="-110.6" font-family="Lato" font-size="18.00" fill="#f8f8f8"> </text>
<text text-anchor="start" x="502.5" y="-110.6" font-family="Lato" font-size="10.00" fill="#505050"> </text>
<text text-anchor="start" x="505.5" y="-110.6" font-family="Lato" font-size="9.00" fill="#f8f8f8">FBO0</text>
<text text-anchor="start" x="530.5" y="-110.6" font-family="Lato" font-size="28.00" fill="#505050"> </text>
<text text-anchor="start" x="456.5" y="-94" font-family="Lato" font-size="10.00" fill="#505050"> &#160;&#160;</text>
<text text-anchor="start" x="463.5" y="-94" font-family="Lato" font-size="10.00" fill="#f8f8f8">Main scene</text>
<text text-anchor="start" x="512.5" y="-94" font-family="Lato" font-size="10.00" fill="#505050"> &#160;&#160;</text>
<text text-anchor="start" x="518.5" y="-86.8" font-family="Lato" font-size="4.00" fill="#505050"> </text>
<polygon fill="#f8f8f8" stroke="transparent" points="455.5,-7.0 455.5,-86.0 582.5,-86.0 582.5,-7.0 455.5,-7.0"/>
<text text-anchor="start" x="462.5" y="-69.8" font-family="Lato" font-size="10.00" fill="#505050">1560x720 &#160;&#160;</text>
<text text-anchor="start" x="517.5" y="-69.8" font-family="Lato" font-size="14.00" fill="#505050"> </text>
<text text-anchor="start" x="527.5" y="-70" font-family="Lato" font-size="10.00" fill="#505050">58 draws &#160;&#160;</text>
<text text-anchor="start" x="462.5" y="-48.8" font-family="Lato" font-weight="bold" font-size="10.00" fill="#505050">Sampled data</text>
<text text-anchor="start" x="523.5" y="-48.8" font-family="Lato" font-size="10.00" fill="#505050"> &#160;</text>
<text text-anchor="start" x="528.5" y="-48.8" font-family="Lato" font-size="14.00" fill="#505050"> </text>
<text text-anchor="start" x="462.5" y="-30" font-family="Lato" font-size="10.00" fill="#505050">Attachments: &#160;&#160;</text>
<text text-anchor="start" x="460.5" y="-16" font-family="Lato" font-size="10.00" fill="#505050"> &#160;</text>
<text text-anchor="start" x="465.5" y="-16" font-family="Lato" font-weight="bold" font-size="10.00" fill="#505050">Color 0</text>
<text text-anchor="start" x="499.5" y="-16" font-family="Lato" font-size="10.00" fill="#505050"> &#160;&#160;&#160;</text>
<text text-anchor="start" x="525.5" y="-15" font-family="Lato" font-size="10.00" fill="#505050">Swapchain &#160;</text>
<path fill="none" stroke="#909090" d="M467,-7C467,-7 570,-7 570,-7 576,-7 582,-13 582,-19 582,-19 582,-121 582,-121 582,-127 576,-133 570,-133 570,-133 467,-133 467,-133 461,-133 455,-127 455,-121 455,-121 455,-19 455,-19 455,-13 461,-7 467,-7"/>
</g>
<!-- Swapchain -->
<g id="node10" class="node">
<title>Swapchain</title>
<path fill="#f8f8f8" stroke="transparent" d="M616.67,-6.5C616.67,-6.5 668.33,-6.5 668.33,-6.5 672.17,-6.5 676,-10.33 676,-14.17 676,-14.17 676,-21.83 676,-21.83 676,-25.67 672.17,-29.5 668.33,-29.5 668.33,-29.5 616.67,-29.5 616.67,-29.5 612.83,-29.5 609,-25.67 609,-21.83 609,-21.83 609,-14.17 609,-14.17 609,-10.33 612.83,-6.5 616.67,-6.5"/>
<text text-anchor="start" x="615.5" y="-15" font-family="Lato" font-size="10.00" fill="#2d6bfc"> &#160;&#160;Swapchain </text>
<path fill="none" stroke="#2d6bfc" d="M616.67,-6.5C616.67,-6.5 668.33,-6.5 668.33,-6.5 672.17,-6.5 676,-10.33 676,-14.17 676,-14.17 676,-21.83 676,-21.83 676,-25.67 672.17,-29.5 668.33,-29.5 668.33,-29.5 616.67,-29.5 616.67,-29.5 612.83,-29.5 609,-25.67 609,-21.83 609,-21.83 609,-14.17 609,-14.17 609,-10.33 612.83,-6.5 616.67,-6.5"/>
</g>
<!-- RP3&#45;&gt;Swapchain -->
<g id="edge9" class="edge">
<title>RP3:e&#45;&gt;Swapchain:w</title>
<path fill="none" stroke="#757576" d="M585.12,-17C595.16,-17 599.87,-17 612.5,-17"/>
<ellipse fill="#757576" stroke="#757576" cx="581.7" cy="-18.5" rx="3.2" ry="3.2"/>
<ellipse fill="#757576" stroke="#757576" cx="581.7" cy="-18.5" rx="3.2" ry="3.2"/>
</g>
<!-- T1v1&#45;&gt;RP1 -->
<g id="edge4" class="edge">
<title>T1v1:e&#45;&gt;RP1:w</title>
<path fill="none" stroke="#757576" d="M207.5,-127C241.88,-127 208.73,-193.24 234.14,-202.04"/>
<ellipse fill="#757576" stroke="#757576" cx="237.34" cy="-204.0" rx="3.2" ry="3.2"/>
<ellipse fill="#757576" stroke="#757576" cx="237.34" cy="-204.0" rx="3.2" ry="3.2"/>
</g>
<!-- T1v1&#45;&gt;Tr2 -->
<g id="edge6" class="edge">
<title>T1v1:e&#45;&gt;Tr2:w</title>
<path fill="none" stroke="#757576" d="M207.5,-127C246.27,-127 222.52,-59.65 253.96,-51.75"/>
<ellipse fill="#757576" stroke="#757576" cx="257.32" cy="-52.9" rx="3.2" ry="3.2"/>
<ellipse fill="#757576" stroke="#757576" cx="257.32" cy="-52.9" rx="3.2" ry="3.2"/>
</g>
<!-- T3v1&#45;&gt;RP3 -->
<g id="edge8" class="edge">
<title>T3v1:e&#45;&gt;RP3:w</title>
<path fill="none" stroke="#757576" d="M423,-51C436.81,-51 441.81,-51 453,-51"/>
<ellipse fill="#757576" stroke="#757576" cx="456.3" cy="-52.5" rx="3.2" ry="3.2"/>
<ellipse fill="#757576" stroke="#757576" cx="456.3" cy="-52.5" rx="3.2" ry="3.2"/>
</g>
</g>
</svg>