<?xml version="1.0" encoding="UTF-8"?>
<svg id="Layer_1" data-name="Layer 1" xmlns="http://www.w3.org/2000/svg" width="354" height="80" xmlns:xlink="http://www.w3.org/1999/xlink" viewBox="0 0 354 80">
  <defs>
    <style>
      .cls-1 {
        fill: url(#New_Gradient_Swatch_16);
      }

      .cls-2, .cls-3 {
        opacity: .25;
      }

      .cls-2, .cls-4 {
        fill: #7d868c;
      }
    </style>
    <linearGradient id="New_Gradient_Swatch_16" data-name="New Gradient Swatch 16" x1="21.19" y1="40.46" x2="86.24" y2="40.46" gradientUnits="userSpaceOnUse">
      <stop offset="0" stop-color="#95d600"/>
      <stop offset="1" stop-color="#00c1de"/>
    </linearGradient>
  </defs>
  <g class="cls-3">
    <rect class="cls-4" x="348.52" y="6.19" width=".94" height="6.7"/>
    <rect class="cls-4" x="341.29" y="4.72" width="6.7" height=".94"/>
    <rect class="cls-4" x="332.58" y="4.72" width="6.71" height=".94"/>
    <rect class="cls-4" x="331.12" y="6.19" width=".94" height="6.7"/>
    <rect class="cls-4" x="323.89" y="4.72" width="6.7" height=".94"/>
    <rect class="cls-4" x="313.72" y="6.19" width=".94" height="6.7"/>
    <rect class="cls-4" x="306.48" y="4.72" width="6.7" height=".94"/>
    <rect class="cls-4" x="315.18" y="4.72" width="6.71" height=".94"/>
    <rect class="cls-4" x="296.31" y="6.19" width=".94" height="6.7"/>
    <rect class="cls-4" x="289.08" y="4.72" width="6.7" height=".94"/>
    <rect class="cls-4" x="297.78" y="4.72" width="6.71" height=".94"/>
    <rect class="cls-4" x="280.38" y="4.72" width="6.71" height=".94"/>
    <rect class="cls-4" x="278.91" y="6.19" width=".94" height="6.7"/>
    <rect class="cls-4" x="271.68" y="4.72" width="6.7" height=".94"/>
    <rect class="cls-4" x="261.51" y="6.19" width=".94" height="6.7"/>
    <rect class="cls-4" x="262.98" y="4.72" width="6.71" height=".94"/>
    <rect class="cls-4" x="254.28" y="4.72" width="6.7" height=".94"/>
    <rect class="cls-4" x="245.68" y="4.72" width="6.71" height=".94"/>
    <rect class="cls-4" x="244.22" y="6.19" width=".94" height="15.41"/>
    <rect class="cls-4" x="211.06" y="4.72" width="32.79" height=".94"/>
    <rect class="cls-4" x="348.52" y="23.59" width=".94" height="6.7"/>
    <rect class="cls-4" x="341.29" y="22.12" width="6.7" height=".94"/>
    <rect class="cls-4" x="348.52" y="14.89" width=".94" height="6.7"/>
    <rect class="cls-4" x="323.89" y="22.12" width="6.7" height=".94"/>
    <rect class="cls-4" x="331.12" y="23.59" width=".94" height="6.7"/>
    <rect class="cls-4" x="331.12" y="14.89" width=".94" height="6.7"/>
    <rect class="cls-4" x="332.58" y="22.12" width="6.71" height=".94"/>
    <rect class="cls-4" x="306.48" y="22.12" width="6.7" height=".94"/>
    <rect class="cls-4" x="313.72" y="23.59" width=".94" height="6.7"/>
    <rect class="cls-4" x="313.72" y="14.89" width=".94" height="6.7"/>
    <rect class="cls-4" x="315.18" y="22.12" width="6.71" height=".94"/>
    <rect class="cls-4" x="297.78" y="22.12" width="6.71" height=".94"/>
    <rect class="cls-4" x="296.31" y="23.59" width=".94" height="6.7"/>
    <rect class="cls-4" x="289.08" y="22.12" width="6.7" height=".94"/>
    <rect class="cls-4" x="296.31" y="14.89" width=".94" height="6.7"/>
    <rect class="cls-4" x="278.91" y="14.89" width=".94" height="6.7"/>
    <rect class="cls-4" x="280.38" y="22.12" width="6.71" height=".94"/>
    <rect class="cls-4" x="271.68" y="22.12" width="6.7" height=".94"/>
    <rect class="cls-4" x="278.91" y="23.59" width=".94" height="6.7"/>
    <rect class="cls-4" x="261.51" y="14.89" width=".94" height="6.7"/>
    <rect class="cls-4" x="261.51" y="23.59" width=".94" height="6.7"/>
    <rect class="cls-4" x="254.28" y="22.12" width="6.7" height=".94"/>
    <rect class="cls-4" x="262.98" y="22.12" width="6.71" height=".94"/>
    <rect class="cls-4" x="244.11" y="23.59" width=".94" height="15.41"/>
    <rect class="cls-4" x="245.57" y="22.12" width="6.71" height=".94"/>
    <rect class="cls-4" x="348.52" y="32.29" width=".94" height="6.7"/>
    <rect class="cls-4" x="348.52" y="40.99" width=".94" height="6.7"/>
    <rect class="cls-4" x="341.29" y="39.52" width="6.7" height=".94"/>
    <rect class="cls-4" x="331.12" y="32.29" width=".94" height="6.7"/>
    <rect class="cls-4" x="331.12" y="40.99" width=".94" height="6.7"/>
    <rect class="cls-4" x="323.89" y="39.52" width="6.7" height=".94"/>
    <rect class="cls-4" x="332.58" y="39.52" width="6.71" height=".94"/>
    <rect class="cls-4" x="313.72" y="32.29" width=".94" height="6.7"/>
    <rect class="cls-4" x="306.48" y="39.52" width="6.7" height=".94"/>
    <rect class="cls-4" x="315.18" y="39.52" width="6.71" height=".94"/>
    <rect class="cls-4" x="313.72" y="40.99" width=".94" height="6.7"/>
    <rect class="cls-4" x="296.31" y="40.99" width=".94" height="6.7"/>
    <rect class="cls-4" x="296.31" y="32.29" width=".94" height="6.7"/>
    <rect class="cls-4" x="297.78" y="39.52" width="6.71" height=".94"/>
    <rect class="cls-4" x="289.08" y="39.52" width="6.7" height=".94"/>
    <rect class="cls-4" x="271.68" y="39.52" width="6.7" height=".94"/>
    <rect class="cls-4" x="278.91" y="32.29" width=".94" height="6.7"/>
    <rect class="cls-4" x="280.38" y="39.52" width="6.71" height=".94"/>
    <rect class="cls-4" x="278.91" y="40.99" width=".94" height="6.7"/>
    <rect class="cls-4" x="261.51" y="40.99" width=".94" height="6.7"/>
    <rect class="cls-4" x="261.51" y="32.29" width=".94" height="6.7"/>
    <rect class="cls-4" x="262.98" y="39.52" width="6.71" height=".94"/>
    <rect class="cls-4" x="254.28" y="39.52" width="6.7" height=".94"/>
    <rect class="cls-4" x="210.02" y="6.19" width=".94" height="32.81"/>
    <rect class="cls-4" x="210.02" y="40.99" width=".94" height="32.8"/>
    <rect class="cls-4" x="245.57" y="39.52" width="6.71" height=".94"/>
    <rect class="cls-4" x="341.29" y="56.92" width="6.7" height=".94"/>
    <rect class="cls-4" x="348.52" y="49.69" width=".94" height="6.7"/>
    <rect class="cls-4" x="348.52" y="58.39" width=".94" height="6.7"/>
    <rect class="cls-4" x="331.12" y="49.69" width=".94" height="6.7"/>
    <rect class="cls-4" x="332.58" y="56.92" width="6.71" height=".94"/>
    <rect class="cls-4" x="323.89" y="56.92" width="6.7" height=".94"/>
    <rect class="cls-4" x="331.12" y="58.39" width=".94" height="6.7"/>
    <rect class="cls-4" x="313.72" y="58.39" width=".94" height="6.7"/>
    <rect class="cls-4" x="313.72" y="49.69" width=".94" height="6.7"/>
    <rect class="cls-4" x="306.48" y="56.92" width="6.7" height=".94"/>
    <rect class="cls-4" x="315.18" y="56.92" width="6.71" height=".94"/>
    <rect class="cls-4" x="296.31" y="49.69" width=".94" height="6.7"/>
    <rect class="cls-4" x="296.31" y="58.39" width=".94" height="6.7"/>
    <rect class="cls-4" x="289.08" y="56.92" width="6.7" height=".94"/>
    <rect class="cls-4" x="297.78" y="56.92" width="6.71" height=".94"/>
    <rect class="cls-4" x="271.68" y="56.92" width="6.7" height=".94"/>
    <rect class="cls-4" x="280.38" y="56.92" width="6.71" height=".94"/>
    <rect class="cls-4" x="278.91" y="49.69" width=".94" height="6.7"/>
    <rect class="cls-4" x="278.91" y="58.39" width=".94" height="6.7"/>
    <rect class="cls-4" x="254.28" y="56.92" width="6.7" height=".94"/>
    <rect class="cls-4" x="261.51" y="49.69" width=".94" height="6.7"/>
    <rect class="cls-4" x="261.51" y="58.39" width=".94" height="6.7"/>
    <rect class="cls-4" x="262.98" y="56.92" width="6.71" height=".94"/>
    <rect class="cls-4" x="245.57" y="56.92" width="6.71" height=".94"/>
    <rect class="cls-4" x="244.11" y="58.39" width=".94" height="15.4"/>
    <rect class="cls-4" x="244.11" y="40.99" width=".94" height="15.41"/>
    <rect class="cls-4" x="341.29" y="74.32" width="6.7" height=".94"/>
    <rect class="cls-4" x="348.52" y="67.09" width=".94" height="6.7"/>
    <rect class="cls-4" x="332.58" y="74.32" width="6.71" height=".94"/>
    <rect class="cls-4" x="323.89" y="74.32" width="6.7" height=".94"/>
    <rect class="cls-4" x="331.12" y="67.09" width=".94" height="6.7"/>
    <rect class="cls-4" x="315.18" y="74.32" width="6.71" height=".94"/>
    <rect class="cls-4" x="306.48" y="74.32" width="6.7" height=".94"/>
    <rect class="cls-4" x="313.72" y="67.09" width=".94" height="6.7"/>
    <rect class="cls-4" x="297.78" y="74.32" width="6.71" height=".94"/>
    <rect class="cls-4" x="296.31" y="67.09" width=".94" height="6.7"/>
    <rect class="cls-4" x="289.08" y="74.32" width="6.7" height=".94"/>
    <rect class="cls-4" x="278.91" y="67.09" width=".94" height="6.7"/>
    <rect class="cls-4" x="271.68" y="74.32" width="6.7" height=".94"/>
    <rect class="cls-4" x="280.38" y="74.32" width="6.71" height=".94"/>
    <rect class="cls-4" x="261.51" y="67.09" width=".94" height="6.7"/>
    <rect class="cls-4" x="254.28" y="74.32" width="6.7" height=".94"/>
    <rect class="cls-4" x="262.98" y="74.32" width="6.71" height=".94"/>
    <rect class="cls-4" x="245.57" y="74.32" width="6.71" height=".94"/>
    <polygon class="cls-4" points="218.15 39.52 243.57 39.52 243.57 40.46 218.15 40.46 211.6 40.46 211.44 40.46 211.44 39.52 211.6 39.52 218.15 39.52"/>
    <rect class="cls-4" x="211.6" y="74.32" width="31.97" height=".94"/>
    <rect class="cls-4" x="176.76" y="4.74" width="32.79" height=".94"/>
    <rect class="cls-4" x="175.78" y="41.01" width=".94" height="32.81"/>
    <rect class="cls-4" x="175.78" y="6.21" width=".94" height="32.81"/>
    <polygon class="cls-4" points="183.95 39.54 209.55 39.54 209.55 40.48 183.95 40.48 177.58 40.48 177.24 40.48 177.24 39.54 177.58 39.54 183.95 39.54"/>
    <rect class="cls-4" x="177.58" y="74.34" width="31.97" height=".94"/>
    <rect class="cls-4" x="142.51" y="4.74" width="32.79" height=".94"/>
    <rect class="cls-4" x="141.53" y="41.01" width=".94" height="32.81"/>
    <rect class="cls-4" x="141.53" y="6.21" width=".94" height="32.81"/>
    <polygon class="cls-4" points="149.7 39.54 175.3 39.54 175.3 40.48 149.7 40.48 143.33 40.48 143 40.48 143 39.54 143.33 39.54 149.7 39.54"/>
    <rect class="cls-4" x="143.33" y="74.34" width="31.97" height=".94"/>
    <rect class="cls-4" x="108.26" y="4.74" width="32.79" height=".94"/>
    <rect class="cls-4" x="107.28" y="6.21" width=".94" height="32.81"/>
    <rect class="cls-4" x="107.28" y="41.01" width=".94" height="32.81"/>
    <polygon class="cls-4" points="115.45 39.54 141.05 39.54 141.05 40.48 115.45 40.48 109.09 40.48 108.75 40.48 108.75 39.54 109.09 39.54 115.45 39.54"/>
    <rect class="cls-4" x="109.09" y="74.34" width="31.97" height=".94"/>
    <rect class="cls-4" x="74.02" y="4.74" width="32.79" height=".94"/>
    <rect class="cls-4" x="74.84" y="74.34" width="31.97" height=".94"/>
    <rect class="cls-4" x="39.77" y="4.74" width="32.79" height=".94"/>
    <rect class="cls-4" x="40.59" y="74.34" width="31.97" height=".94"/>
    <rect class="cls-4" x="5.52" y="4.74" width="32.79" height=".94"/>
    <rect class="cls-4" x="4.54" y="41.01" width=".94" height="32.81"/>
    <rect class="cls-4" x="4.54" y="6.21" width=".94" height="32.81"/>
    <rect class="cls-4" x="6.34" y="74.34" width="31.97" height=".94"/>
  </g>
  <g class="cls-3">
    <polygon class="cls-4" points="294 60.11 293.64 59.76 282.61 70.8 282.61 65.13 281.61 65.13 281.61 72.52 289 72.52 289 71.52 283.3 71.52 294.35 60.47 294 60.11"/>
    <polygon class="cls-4" points="311.11 59.76 300.08 70.8 300.08 65.13 299.08 65.13 299.08 72.52 306.47 72.52 306.47 71.52 300.77 71.52 311.82 60.47 311.11 59.76"/>
    <line class="cls-4" x1="328.94" y1="60.11" x2="328.94" y2="60.11"/>
    <polygon class="cls-4" points="328.94 60.11 328.58 59.76 317.55 70.8 317.55 65.13 316.55 65.13 316.55 72.52 323.94 72.52 323.94 71.52 318.24 71.52 329.29 60.47 328.94 60.11"/>
    <polygon class="cls-4" points="346.06 59.8 335.02 70.84 335.02 65.16 334.02 65.16 334.02 72.56 341.41 72.56 341.41 71.56 335.71 71.56 346.76 60.5 346.06 59.8"/>
    <polygon class="cls-4" points="282.61 53.35 282.61 47.68 281.61 47.68 281.61 55.08 289 55.08 289 54.08 283.3 54.08 294.35 43.02 293.64 42.31 282.61 53.35"/>
    <polygon class="cls-4" points="300.08 53.35 300.08 47.68 299.08 47.68 299.08 55.08 306.47 55.08 306.47 54.08 300.77 54.08 311.82 43.02 311.11 42.31 300.08 53.35"/>
    <line class="cls-4" x1="328.94" y1="42.67" x2="328.94" y2="42.67"/>
    <polygon class="cls-4" points="328.58 42.31 317.55 53.35 317.55 47.68 316.55 47.68 316.55 55.08 323.94 55.08 323.94 54.08 318.24 54.08 329.29 43.02 328.94 42.67 328.58 42.31"/>
    <line class="cls-4" x1="346.41" y1="42.71" x2="346.41" y2="42.7"/>
    <polygon class="cls-4" points="346.06 42.35 335.02 53.39 335.02 47.72 334.02 47.72 334.02 55.11 341.41 55.11 341.41 54.11 335.71 54.11 346.76 43.06 346.41 42.71 346.06 42.35"/>
    <line class="cls-4" x1="294" y1="25.22" x2="294" y2="25.22"/>
    <polygon class="cls-4" points="293.64 24.87 282.61 35.91 282.61 30.24 281.61 30.24 281.61 37.63 289 37.63 289 36.63 283.3 36.63 294.35 25.58 294 25.22 293.64 24.87"/>
    <line class="cls-4" x1="311.47" y1="25.22" x2="311.47" y2="25.22"/>
    <polygon class="cls-4" points="311.11 24.87 300.08 35.91 300.08 30.24 299.08 30.24 299.08 37.63 306.47 37.63 306.47 36.63 300.77 36.63 311.82 25.58 311.47 25.22 311.11 24.87"/>
    <line class="cls-4" x1="328.94" y1="25.22" x2="328.94" y2="25.22"/>
    <polygon class="cls-4" points="328.58 24.87 317.55 35.91 317.55 30.24 316.55 30.24 316.55 37.63 323.94 37.63 323.94 36.63 318.24 36.63 329.29 25.58 328.94 25.22 328.58 24.87"/>
    <polygon class="cls-4" points="346.06 24.91 335.02 35.95 335.02 30.27 334.02 30.27 334.02 37.67 341.41 37.67 341.41 36.67 335.71 36.67 346.76 25.61 346.41 25.26 346.06 24.91"/>
    <polygon class="cls-4" points="282.61 18.46 282.61 12.79 281.61 12.79 281.61 20.19 289 20.19 289 19.19 283.3 19.19 294.35 8.13 293.64 7.42 282.61 18.46"/>
    <polygon class="cls-4" points="300.08 18.46 300.08 12.79 299.08 12.79 299.08 20.19 306.47 20.19 306.47 19.19 300.77 19.19 311.82 8.13 311.11 7.42 300.08 18.46"/>
    <line class="cls-4" x1="328.94" y1="7.78" x2="328.94" y2="7.78"/>
    <polygon class="cls-4" points="328.58 7.42 317.55 18.46 317.55 12.79 316.55 12.79 316.55 20.19 323.94 20.19 323.94 19.19 318.24 19.19 329.29 8.13 328.94 7.78 328.58 7.42"/>
    <line class="cls-4" x1="346.41" y1="7.82" x2="346.41" y2="7.82"/>
    <polygon class="cls-4" points="341.41 19.22 335.71 19.22 346.76 8.17 346.41 7.82 346.06 7.46 335.02 18.5 335.02 12.83 334.02 12.83 334.02 20.22 341.41 20.22 341.41 19.22"/>
  </g>
  <polygon class="cls-2" points="113.61 46.52 114.31 45.81 135.77 67.27 135.77 55.57 136.77 55.57 136.77 69 123.33 69 123.33 68 135.09 68 113.61 46.52"/>
  <polygon class="cls-2" points="147.33 46.52 148.03 45.81 169.48 67.27 169.48 55.57 170.48 55.57 170.48 69 157.05 69 157.05 68 168.81 68 147.33 46.52"/>
  <polygon class="cls-2" points="181.82 46.52 182.52 45.81 203.97 67.27 203.97 55.57 204.97 55.57 204.97 69 191.54 69 191.54 68 203.3 68 181.82 46.52"/>
  <path class="cls-1" d="M80.15,49.62c-.03,3.12-1.25,6.05-3.46,8.26-2.24,2.25-5.22,3.49-8.4,3.5-.48.04-.98-.03-1.46-.09l2.38,6.04-2.03.8-3.95-10.04,2.17.67c.92.29,1.89.43,2.87.43h.02c2.59,0,5.03-1.02,6.86-2.85s2.84-4.27,2.83-6.87c0-.2,0-.41-.02-.6-.22-3.55-2.37-6.68-5.6-8.18-.84-.39-1.73-.66-2.64-.79l.32-2.15c1.11.17,2.2.49,3.23.97,3.54,1.64,6.01,4.88,6.69,8.65,2.44-1.04,4.1-3.49,4.1-6.2,0-1.23-.34-2.43-.97-3.48l-.35-.57.35-.57c.48-.76.73-1.64.73-2.53,0-2.28-1.63-4.25-3.86-4.69l-.75-.15-.12-.75c-.63-3.97-3.85-7.1-7.84-7.62l-.71-.09-.2-.69c-.61-2.17-2.6-3.68-4.85-3.68h0c-.83,0-1.66.21-2.38.6-.2.11-.4.23-.58.37-1.29.94-2.07,2.45-2.07,4.08h0c0,.23,0,.38-.02.49,0,.13.02.19.05.29l-2.08.64c-.15-.49-.17-.71-.15-1.08,0-.08.01-.18.01-.34,0,0,0,0,0,0h0c0-.31.02-.61.06-.91.01-.09.03-.17.04-.26.03-.21.08-.42.13-.63.03-.1.05-.2.08-.29.06-.2.13-.39.2-.58.04-.09.07-.18.11-.27.1-.22.21-.43.33-.64.03-.05.05-.1.08-.15.15-.25.32-.5.5-.73.05-.06.1-.11.15-.17.14-.17.29-.34.45-.49.07-.07.15-.14.23-.21.08-.07.15-.15.23-.21-.79-.57-1.74-.88-2.74-.88h0c-1.17,0-2.29.44-3.17,1.24l-.61.56-.7-.44c-1.17-.73-2.53-1.12-3.91-1.12,0,0,0,0-.01,0-2.58,0-4.94,1.32-6.3,3.52l-.46.74-.82-.29c-.63-.22-1.29-.33-1.95-.33h-.01c-2.13,0-4.11,1.16-5.17,3.02l-.34.6-.69-.05c-.16-.01-.32,0-.47-.02-3.56,0-6.47,2.9-6.5,6.46h0v.05c0,3.51,2.75,6.36,6.26,6.5h0c.09,0,.17,0,.26,0,.81,0,1.61-.15,2.36-.45l.79,2.03c-.98.38-2,.58-3.05.6-.04.04-.08.07-.11.1-.04.05-.09.1-.13.15-.07.09-.13.18-.18.28-.03.05-.06.11-.09.17-.05.11-.09.22-.12.33-.02.05-.04.11-.05.16-.03.15-.05.31-.05.47,0,.02,0,.03,0,.05,0,.48.14.93.4,1.32.09.13.19.25.3.36.45.45,1.04.69,1.68.69h0v2.18h0s0,0,0,0c-1.21,0-2.35-.47-3.21-1.33-.86-.86-1.34-2-1.34-3.22,0-.71.17-1.4.48-2.03-2.9-.8-5.17-3.04-6.01-5.9-1.17,1.69-1.81,3.71-1.81,5.78,0,2.71,1.07,5.26,2.99,7.17,1.92,1.91,4.46,2.96,7.17,2.96h.02c1.39,0,2.72-.28,3.98-.82.16-3.32,2.08-6.26,5.08-7.75l.97,1.95c-2.4,1.19-3.89,3.6-3.88,6.28v.22c.13,3.8,3.19,6.76,6.99,6.76h.01l1.17.02c7.49.12,14.23,5.99,15.04,13.08l.06.57-2.17.23-.06-.56c-.67-5.93-6.58-11.03-12.91-11.14l-1.15-.02h-.02c-4.45,0-8.13-3.13-8.96-7.36-1.33.48-2.72.73-4.16.73h-.02c-3.29,0-6.37-1.28-8.7-3.6-2.33-2.32-3.62-5.42-3.63-8.71,0-3.29,1.33-6.45,3.66-8.76.27-4.53,4.03-8.14,8.61-8.17,1.5-2.2,4.01-3.55,6.7-3.55,0,0,.01,0,.02,0,.63,0,1.25.07,1.85.21,1.8-2.43,4.62-3.86,7.68-3.86h.02c1.53,0,3.03.36,4.38,1.06,1.17-.84,2.56-1.3,4.01-1.3h.01c1.77,0,3.45.68,4.72,1.88.84-.33,1.74-.51,2.65-.51,0,0,0,0,.01,0,2.98,0,5.65,1.86,6.72,4.59,4.39.84,7.91,4.26,8.89,8.61,2.87.9,4.88,3.58,4.89,6.64,0,1.08-.25,2.15-.73,3.11.64,1.25.97,2.63.97,4.04,0,3.84-2.51,7.26-6.09,8.46ZM48.97,45.32c.72-1.15,1.1-2.5,1.1-3.89,0-2.81-1.56-5.34-3.97-6.45l-.91,1.98c1.64.75,2.7,2.51,2.7,4.47,0,.98-.27,1.93-.77,2.74l1.85,1.15ZM56.85,27.66c.48.86.71,1.81.66,2.76l2.18.1c.06-1.36-.26-2.72-.94-3.93-1.37-2.46-3.97-3.9-6.61-3.7l.17,2.17c1.81-.15,3.58.87,4.54,2.59ZM37.39,28.73c-1.32.1-2.63-.15-3.78-.74l-1,1.94c1.28.66,2.71,1,4.18,1,.26,0,.51-.01.77-.03,2.7-.22,5.09-1.59,6.57-3.63.37.42.78.79,1.24,1.09l1.2-1.82c-.64-.42-1.15-1.02-1.48-1.74-.33-.72-.46-1.5-.36-2.26l-2.16-.27c-.12.95,0,1.92.32,2.84-.98,2.01-3.07,3.42-5.5,3.61ZM62.58,52.76c3.46,0,6.6-1.87,8.04-4.81l-1.95-.96c-1.1,2.25-3.57,3.65-6.28,3.59-1.36-.04-2.65-.44-3.75-1.16l-1.2,1.82c1.44.95,3.13,1.47,4.89,1.52.08,0,.17,0,.25,0ZM72.7,29.83c.74,1.23,1.12,2.62,1.09,4l2.18.04c.03-1.8-.46-3.58-1.4-5.16-1.92-3.19-5.4-5-8.88-4.61l.24,2.16c2.64-.29,5.3,1.11,6.77,3.57ZM55.95,39.92c.71.55,1.27,1.27,1.62,2.13.37.91.49,1.89.33,2.82l2.15.36c.23-1.34.06-2.73-.46-4.01-.1-.24-.22-.46-.34-.69.07,0,.13.01.2.01,4.51,0,8.47-2.88,9.86-7.17l-2.07-.67c-1.09,3.39-4.22,5.66-7.79,5.66-4.51,0-8.18-3.67-8.18-8.18h-2.18c0,4.49,2.87,8.3,6.87,9.74Z"/>
</svg>