<?xml version="1.0" encoding="UTF-8"?>
<svg id="Layer_1" data-name="Layer 1" xmlns="http://www.w3.org/2000/svg" width="354" height="80" xmlns:xlink="http://www.w3.org/1999/xlink" viewBox="0 0 354 80">
  <defs>
    <style>
      .cls-1 {
        fill: url(#New_Gradient_Swatch_14);
      }

      .cls-2, .cls-3 {
        opacity: .25;
      }

      .cls-2, .cls-4 {
        fill: #7d868c;
      }
    </style>
    <linearGradient id="New_Gradient_Swatch_14" data-name="New Gradient Swatch 14" x1="30.11" y1="40.99" x2="83.04" y2="40.99" gradientUnits="userSpaceOnUse">
      <stop offset="0" stop-color="#95d600"/>
      <stop offset="1" stop-color="#00c1de"/>
    </linearGradient>
  </defs>
  <g class="cls-3">
    <rect class="cls-4" x="348.52" y="6.19" width=".94" height="6.7"/>
    <rect class="cls-4" x="341.29" y="4.72" width="6.7" height=".94"/>
    <rect class="cls-4" x="332.58" y="4.72" width="6.71" height=".94"/>
    <rect class="cls-4" x="331.12" y="6.19" width=".94" height="6.7"/>
    <rect class="cls-4" x="323.89" y="4.72" width="6.7" height=".94"/>
    <rect class="cls-4" x="313.72" y="6.19" width=".94" height="6.7"/>
    <rect class="cls-4" x="306.48" y="4.72" width="6.7" height=".94"/>
    <rect class="cls-4" x="315.18" y="4.72" width="6.71" height=".94"/>
    <rect class="cls-4" x="296.31" y="6.19" width=".94" height="6.7"/>
    <rect class="cls-4" x="289.08" y="4.72" width="6.7" height=".94"/>
    <rect class="cls-4" x="297.78" y="4.72" width="6.71" height=".94"/>
    <rect class="cls-4" x="280.38" y="4.72" width="6.71" height=".94"/>
    <rect class="cls-4" x="278.91" y="6.19" width=".94" height="6.7"/>
    <rect class="cls-4" x="271.68" y="4.72" width="6.7" height=".94"/>
    <rect class="cls-4" x="261.51" y="6.19" width=".94" height="6.7"/>
    <rect class="cls-4" x="262.98" y="4.72" width="6.71" height=".94"/>
    <rect class="cls-4" x="254.28" y="4.72" width="6.7" height=".94"/>
    <rect class="cls-4" x="245.68" y="4.72" width="6.71" height=".94"/>
    <rect class="cls-4" x="244.22" y="6.19" width=".94" height="15.41"/>
    <rect class="cls-4" x="211.06" y="4.72" width="32.79" height=".94"/>
    <rect class="cls-4" x="348.52" y="23.59" width=".94" height="6.7"/>
    <rect class="cls-4" x="341.29" y="22.12" width="6.7" height=".94"/>
    <rect class="cls-4" x="348.52" y="14.89" width=".94" height="6.7"/>
    <rect class="cls-4" x="323.89" y="22.12" width="6.7" height=".94"/>
    <rect class="cls-4" x="331.12" y="23.59" width=".94" height="6.7"/>
    <rect class="cls-4" x="331.12" y="14.89" width=".94" height="6.7"/>
    <rect class="cls-4" x="332.58" y="22.12" width="6.71" height=".94"/>
    <rect class="cls-4" x="306.48" y="22.12" width="6.7" height=".94"/>
    <rect class="cls-4" x="313.72" y="23.59" width=".94" height="6.7"/>
    <rect class="cls-4" x="313.72" y="14.89" width=".94" height="6.7"/>
    <rect class="cls-4" x="315.18" y="22.12" width="6.71" height=".94"/>
    <rect class="cls-4" x="297.78" y="22.12" width="6.71" height=".94"/>
    <rect class="cls-4" x="296.31" y="23.59" width=".94" height="6.7"/>
    <rect class="cls-4" x="289.08" y="22.12" width="6.7" height=".94"/>
    <rect class="cls-4" x="296.31" y="14.89" width=".94" height="6.7"/>
    <rect class="cls-4" x="278.91" y="14.89" width=".94" height="6.7"/>
    <rect class="cls-4" x="280.38" y="22.12" width="6.71" height=".94"/>
    <rect class="cls-4" x="271.68" y="22.12" width="6.7" height=".94"/>
    <rect class="cls-4" x="278.91" y="23.59" width=".94" height="6.7"/>
    <rect class="cls-4" x="261.51" y="14.89" width=".94" height="6.7"/>
    <rect class="cls-4" x="261.51" y="23.59" width=".94" height="6.7"/>
    <rect class="cls-4" x="254.28" y="22.12" width="6.7" height=".94"/>
    <rect class="cls-4" x="262.98" y="22.12" width="6.71" height=".94"/>
    <rect class="cls-4" x="244.11" y="23.59" width=".94" height="15.41"/>
    <rect class="cls-4" x="245.57" y="22.12" width="6.71" height=".94"/>
    <rect class="cls-4" x="348.52" y="32.29" width=".94" height="6.7"/>
    <rect class="cls-4" x="348.52" y="40.99" width=".94" height="6.7"/>
    <rect class="cls-4" x="341.29" y="39.52" width="6.7" height=".94"/>
    <rect class="cls-4" x="331.12" y="32.29" width=".94" height="6.7"/>
    <rect class="cls-4" x="331.12" y="40.99" width=".94" height="6.7"/>
    <rect class="cls-4" x="323.89" y="39.52" width="6.7" height=".94"/>
    <rect class="cls-4" x="332.58" y="39.52" width="6.71" height=".94"/>
    <rect class="cls-4" x="313.72" y="32.29" width=".94" height="6.7"/>
    <rect class="cls-4" x="306.48" y="39.52" width="6.7" height=".94"/>
    <rect class="cls-4" x="315.18" y="39.52" width="6.71" height=".94"/>
    <rect class="cls-4" x="313.72" y="40.99" width=".94" height="6.7"/>
    <rect class="cls-4" x="296.31" y="40.99" width=".94" height="6.7"/>
    <rect class="cls-4" x="296.31" y="32.29" width=".94" height="6.7"/>
    <rect class="cls-4" x="297.78" y="39.52" width="6.71" height=".94"/>
    <rect class="cls-4" x="289.08" y="39.52" width="6.7" height=".94"/>
    <rect class="cls-4" x="271.68" y="39.52" width="6.7" height=".94"/>
    <rect class="cls-4" x="278.91" y="32.29" width=".94" height="6.7"/>
    <rect class="cls-4" x="280.38" y="39.52" width="6.71" height=".94"/>
    <rect class="cls-4" x="278.91" y="40.99" width=".94" height="6.7"/>
    <rect class="cls-4" x="261.51" y="40.99" width=".94" height="6.7"/>
    <rect class="cls-4" x="261.51" y="32.29" width=".94" height="6.7"/>
    <rect class="cls-4" x="262.98" y="39.52" width="6.71" height=".94"/>
    <rect class="cls-4" x="254.28" y="39.52" width="6.7" height=".94"/>
    <rect class="cls-4" x="210.02" y="6.19" width=".94" height="32.81"/>
    <rect class="cls-4" x="210.02" y="40.99" width=".94" height="32.8"/>
    <rect class="cls-4" x="245.57" y="39.52" width="6.71" height=".94"/>
    <rect class="cls-4" x="341.29" y="56.92" width="6.7" height=".94"/>
    <rect class="cls-4" x="348.52" y="49.69" width=".94" height="6.7"/>
    <rect class="cls-4" x="348.52" y="58.39" width=".94" height="6.7"/>
    <rect class="cls-4" x="331.12" y="49.69" width=".94" height="6.7"/>
    <rect class="cls-4" x="332.58" y="56.92" width="6.71" height=".94"/>
    <rect class="cls-4" x="323.89" y="56.92" width="6.7" height=".94"/>
    <rect class="cls-4" x="331.12" y="58.39" width=".94" height="6.7"/>
    <rect class="cls-4" x="313.72" y="58.39" width=".94" height="6.7"/>
    <rect class="cls-4" x="313.72" y="49.69" width=".94" height="6.7"/>
    <rect class="cls-4" x="306.48" y="56.92" width="6.7" height=".94"/>
    <rect class="cls-4" x="315.18" y="56.92" width="6.71" height=".94"/>
    <rect class="cls-4" x="296.31" y="49.69" width=".94" height="6.7"/>
    <rect class="cls-4" x="296.31" y="58.39" width=".94" height="6.7"/>
    <rect class="cls-4" x="289.08" y="56.92" width="6.7" height=".94"/>
    <rect class="cls-4" x="297.78" y="56.92" width="6.71" height=".94"/>
    <rect class="cls-4" x="271.68" y="56.92" width="6.7" height=".94"/>
    <rect class="cls-4" x="280.38" y="56.92" width="6.71" height=".94"/>
    <rect class="cls-4" x="278.91" y="49.69" width=".94" height="6.7"/>
    <rect class="cls-4" x="278.91" y="58.39" width=".94" height="6.7"/>
    <rect class="cls-4" x="254.28" y="56.92" width="6.7" height=".94"/>
    <rect class="cls-4" x="261.51" y="49.69" width=".94" height="6.7"/>
    <rect class="cls-4" x="261.51" y="58.39" width=".94" height="6.7"/>
    <rect class="cls-4" x="262.98" y="56.92" width="6.71" height=".94"/>
    <rect class="cls-4" x="245.57" y="56.92" width="6.71" height=".94"/>
    <rect class="cls-4" x="244.11" y="58.39" width=".94" height="15.4"/>
    <rect class="cls-4" x="244.11" y="40.99" width=".94" height="15.41"/>
    <rect class="cls-4" x="341.29" y="74.32" width="6.7" height=".94"/>
    <rect class="cls-4" x="348.52" y="67.09" width=".94" height="6.7"/>
    <rect class="cls-4" x="332.58" y="74.32" width="6.71" height=".94"/>
    <rect class="cls-4" x="323.89" y="74.32" width="6.7" height=".94"/>
    <rect class="cls-4" x="331.12" y="67.09" width=".94" height="6.7"/>
    <rect class="cls-4" x="315.18" y="74.32" width="6.71" height=".94"/>
    <rect class="cls-4" x="306.48" y="74.32" width="6.7" height=".94"/>
    <rect class="cls-4" x="313.72" y="67.09" width=".94" height="6.7"/>
    <rect class="cls-4" x="297.78" y="74.32" width="6.71" height=".94"/>
    <rect class="cls-4" x="296.31" y="67.09" width=".94" height="6.7"/>
    <rect class="cls-4" x="289.08" y="74.32" width="6.7" height=".94"/>
    <rect class="cls-4" x="278.91" y="67.09" width=".94" height="6.7"/>
    <rect class="cls-4" x="271.68" y="74.32" width="6.7" height=".94"/>
    <rect class="cls-4" x="280.38" y="74.32" width="6.71" height=".94"/>
    <rect class="cls-4" x="261.51" y="67.09" width=".94" height="6.7"/>
    <rect class="cls-4" x="254.28" y="74.32" width="6.7" height=".94"/>
    <rect class="cls-4" x="262.98" y="74.32" width="6.71" height=".94"/>
    <rect class="cls-4" x="245.57" y="74.32" width="6.71" height=".94"/>
    <polygon class="cls-4" points="218.15 39.52 243.57 39.52 243.57 40.46 218.15 40.46 211.6 40.46 211.44 40.46 211.44 39.52 211.6 39.52 218.15 39.52"/>
    <rect class="cls-4" x="211.6" y="74.32" width="31.97" height=".94"/>
    <rect class="cls-4" x="176.76" y="4.74" width="32.79" height=".94"/>
    <rect class="cls-4" x="175.78" y="41.01" width=".94" height="32.81"/>
    <rect class="cls-4" x="175.78" y="6.21" width=".94" height="32.81"/>
    <polygon class="cls-4" points="183.95 39.54 209.55 39.54 209.55 40.48 183.95 40.48 177.58 40.48 177.24 40.48 177.24 39.54 177.58 39.54 183.95 39.54"/>
    <rect class="cls-4" x="177.58" y="74.34" width="31.97" height=".94"/>
    <rect class="cls-4" x="142.51" y="4.74" width="32.79" height=".94"/>
    <rect class="cls-4" x="141.53" y="41.01" width=".94" height="32.81"/>
    <rect class="cls-4" x="141.53" y="6.21" width=".94" height="32.81"/>
    <polygon class="cls-4" points="149.7 39.54 175.3 39.54 175.3 40.48 149.7 40.48 143.33 40.48 143 40.48 143 39.54 143.33 39.54 149.7 39.54"/>
    <rect class="cls-4" x="143.33" y="74.34" width="31.97" height=".94"/>
    <rect class="cls-4" x="108.26" y="4.74" width="32.79" height=".94"/>
    <rect class="cls-4" x="107.28" y="6.21" width=".94" height="32.81"/>
    <rect class="cls-4" x="107.28" y="41.01" width=".94" height="32.81"/>
    <polygon class="cls-4" points="115.45 39.54 141.05 39.54 141.05 40.48 115.45 40.48 109.09 40.48 108.75 40.48 108.75 39.54 109.09 39.54 115.45 39.54"/>
    <rect class="cls-4" x="109.09" y="74.34" width="31.97" height=".94"/>
    <rect class="cls-4" x="74.02" y="4.74" width="32.79" height=".94"/>
    <rect class="cls-4" x="74.84" y="74.34" width="31.97" height=".94"/>
    <rect class="cls-4" x="39.77" y="4.74" width="32.79" height=".94"/>
    <rect class="cls-4" x="40.59" y="74.34" width="31.97" height=".94"/>
    <rect class="cls-4" x="5.52" y="4.74" width="32.79" height=".94"/>
    <rect class="cls-4" x="4.54" y="41.01" width=".94" height="32.81"/>
    <rect class="cls-4" x="4.54" y="6.21" width=".94" height="32.81"/>
    <rect class="cls-4" x="6.34" y="74.34" width="31.97" height=".94"/>
  </g>
  <g class="cls-3">
    <polygon class="cls-4" points="294 60.11 293.64 59.76 282.61 70.8 282.61 65.13 281.61 65.13 281.61 72.52 289 72.52 289 71.52 283.3 71.52 294.35 60.47 294 60.11"/>
    <polygon class="cls-4" points="311.11 59.76 300.08 70.8 300.08 65.13 299.08 65.13 299.08 72.52 306.47 72.52 306.47 71.52 300.77 71.52 311.82 60.47 311.11 59.76"/>
    <line class="cls-4" x1="328.94" y1="60.11" x2="328.94" y2="60.11"/>
    <polygon class="cls-4" points="328.94 60.11 328.58 59.76 317.55 70.8 317.55 65.13 316.55 65.13 316.55 72.52 323.94 72.52 323.94 71.52 318.24 71.52 329.29 60.47 328.94 60.11"/>
    <polygon class="cls-4" points="346.06 59.8 335.02 70.84 335.02 65.16 334.02 65.16 334.02 72.56 341.41 72.56 341.41 71.56 335.71 71.56 346.76 60.5 346.06 59.8"/>
    <polygon class="cls-4" points="282.61 53.35 282.61 47.68 281.61 47.68 281.61 55.08 289 55.08 289 54.08 283.3 54.08 294.35 43.02 293.64 42.31 282.61 53.35"/>
    <polygon class="cls-4" points="300.08 53.35 300.08 47.68 299.08 47.68 299.08 55.08 306.47 55.08 306.47 54.08 300.77 54.08 311.82 43.02 311.11 42.31 300.08 53.35"/>
    <line class="cls-4" x1="328.94" y1="42.67" x2="328.94" y2="42.67"/>
    <polygon class="cls-4" points="328.58 42.31 317.55 53.35 317.55 47.68 316.55 47.68 316.55 55.08 323.94 55.08 323.94 54.08 318.24 54.08 329.29 43.02 328.94 42.67 328.58 42.31"/>
    <line class="cls-4" x1="346.41" y1="42.71" x2="346.41" y2="42.7"/>
    <polygon class="cls-4" points="346.06 42.35 335.02 53.39 335.02 47.72 334.02 47.72 334.02 55.11 341.41 55.11 341.41 54.11 335.71 54.11 346.76 43.06 346.41 42.71 346.06 42.35"/>
    <line class="cls-4" x1="294" y1="25.22" x2="294" y2="25.22"/>
    <polygon class="cls-4" points="293.64 24.87 282.61 35.91 282.61 30.24 281.61 30.24 281.61 37.63 289 37.63 289 36.63 283.3 36.63 294.35 25.58 294 25.22 293.64 24.87"/>
    <line class="cls-4" x1="311.47" y1="25.22" x2="311.47" y2="25.22"/>
    <polygon class="cls-4" points="311.11 24.87 300.08 35.91 300.08 30.24 299.08 30.24 299.08 37.63 306.47 37.63 306.47 36.63 300.77 36.63 311.82 25.58 311.47 25.22 311.11 24.87"/>
    <line class="cls-4" x1="328.94" y1="25.22" x2="328.94" y2="25.22"/>
    <polygon class="cls-4" points="328.58 24.87 317.55 35.91 317.55 30.24 316.55 30.24 316.55 37.63 323.94 37.63 323.94 36.63 318.24 36.63 329.29 25.58 328.94 25.22 328.58 24.87"/>
    <polygon class="cls-4" points="346.06 24.91 335.02 35.95 335.02 30.27 334.02 30.27 334.02 37.67 341.41 37.67 341.41 36.67 335.71 36.67 346.76 25.61 346.41 25.26 346.06 24.91"/>
    <polygon class="cls-4" points="282.61 18.46 282.61 12.79 281.61 12.79 281.61 20.19 289 20.19 289 19.19 283.3 19.19 294.35 8.13 293.64 7.42 282.61 18.46"/>
    <polygon class="cls-4" points="300.08 18.46 300.08 12.79 299.08 12.79 299.08 20.19 306.47 20.19 306.47 19.19 300.77 19.19 311.82 8.13 311.11 7.42 300.08 18.46"/>
    <line class="cls-4" x1="328.94" y1="7.78" x2="328.94" y2="7.78"/>
    <polygon class="cls-4" points="328.58 7.42 317.55 18.46 317.55 12.79 316.55 12.79 316.55 20.19 323.94 20.19 323.94 19.19 318.24 19.19 329.29 8.13 328.94 7.78 328.58 7.42"/>
    <line class="cls-4" x1="346.41" y1="7.82" x2="346.41" y2="7.82"/>
    <polygon class="cls-4" points="341.41 19.22 335.71 19.22 346.76 8.17 346.41 7.82 346.06 7.46 335.02 18.5 335.02 12.83 334.02 12.83 334.02 20.22 341.41 20.22 341.41 19.22"/>
  </g>
  <polygon class="cls-2" points="113.61 46.52 114.31 45.81 135.77 67.27 135.77 55.57 136.77 55.57 136.77 69 123.33 69 123.33 68 135.09 68 113.61 46.52"/>
  <polygon class="cls-2" points="147.33 46.52 148.03 45.81 169.48 67.27 169.48 55.57 170.48 55.57 170.48 69 157.05 69 157.05 68 168.81 68 147.33 46.52"/>
  <polygon class="cls-2" points="181.82 46.52 182.52 45.81 203.97 67.27 203.97 55.57 204.97 55.57 204.97 69 191.54 69 191.54 68 203.3 68 181.82 46.52"/>
  <path class="cls-1" d="M83.04,42.94c0-1.56-.74-3.03-2-3.96l-3.59-3.6,2.82-.29c.53-.02.99-.32,1.21-.8.23-.5.16-1.07-.19-1.49l-1.64-1.97c-.27-.32-.66-.5-1.07-.5h-5.34l-2.72-3.67c-1.25-1.53-2.53-2.63-4.36-2.63h-20.36c-2.1,0-3.43,1.39-4.65,3.32l-1.74,2.99h-4.8c-.41,0-.81.18-1.07.5l-1.64,1.97c-.35.42-.43.99-.19,1.49.22.48.68.78,1.2.8l2.77.31-3.56,3.58c-1.26.93-2,2.39-2,3.96l.84,3.82v9.34c0,1.02.83,1.86,1.86,1.86h4.55c1.03,0,1.86-.83,1.86-1.86v-2.82c.4.04.82.06,1.27.06h32.16c.51,0,.99-.03,1.45-.08v2.83c0,1.02.83,1.86,1.86,1.86h4.55c1.03,0,1.86-.83,1.86-1.86v-10.17l.66-2.98ZM78.38,32.14l1.01,1.21-3.51.36-1.12-1.58h3.62ZM42.7,28.29c1.3-2.04,2.15-2.45,3.1-2.45h20.36c.97,0,1.77.52,2.92,1.93l4.1,5.54c-5.23-.75-18-2.05-33.47.08l2.98-5.11ZM34.8,32.14h3.18l-1.12,1.57-3.08-.35,1.02-1.22ZM37.37,56.14l-4.6-.04v-5.84c.96,1.08,2.44,2.17,4.64,2.72l-.04,3.17ZM40.5,51.53c-6.09,0-7.52-4.21-7.64-4.58l-.09-.39v-.04h0l-.83-3.76c.05-.92.51-1.77,1.26-2.32l.11-.08.1-.1,4.64-4.66c19.06-2.95,34.35-.51,36.92-.05l.06.08h.11s4.62,4.63,4.62,4.63l.1.1.11.08c.74.55,1.2,1.4,1.26,2.32l-.92,4.17c-.14.44-1.6,4.59-7.64,4.59h-32.16ZM75.92,56.1v-3.17c2.23-.6,3.69-1.75,4.62-2.86l-.03,6.08-4.6-.04ZM70.16,40.76l-.7,1.82h-25.87l-.7-1.82h27.28ZM44.31,44.46h24.42l-.7,1.82h-23.02l-.7-1.82ZM41.56,42.59l-.7-1.82h-5.01c-.78,0-1.5.35-1.98.96s-.65,1.4-.46,2.15c.36,1.46,2.39,1.85,2.8,1.91l5.74.41,1.05.08-.7-1.82-.72-1.87ZM36.41,43.99c-.64-.11-1.18-.4-1.25-.54-.05-.21,0-.43.13-.6.14-.17.33-.27.55-.27h3.77l.26.66.4,1.02-3.85-.28ZM79.65,43.88c.19-.76.02-1.54-.46-2.15s-1.2-.96-1.98-.96h-5.01l-.7,1.82-.72,1.87-.7,1.82,1.32-.09,5.39-.39h.08c.4-.07,2.44-.46,2.8-1.92ZM77.89,43.44c-.08.15-.62.44-1.28.55l-3.83.27.4-1.03.26-.66h3.77c.22,0,.42.1.55.27.14.17.18.39.13.59Z"/>
</svg>