<?xml version="1.0" encoding="UTF-8"?>
<svg id="Layer_1" data-name="Layer 1" xmlns="http://www.w3.org/2000/svg" width="354" height="80" xmlns:xlink="http://www.w3.org/1999/xlink" viewBox="0 0 354 80">
  <defs>
    <style>
      .cls-1 {
        fill: #00c1de;
      }

      .cls-2 {
        fill: #7d868c;
      }

      .cls-3 {
        fill: #1f2023;
      }

      .cls-4 {
        fill: url(#New_Gradient_Swatch_3);
      }

      .cls-5 {
        fill: #fff;
      }

      .cls-5, .cls-6 {
        stroke: #00c1de;
        stroke-miterlimit: 10;
      }

      .cls-6 {
        fill: none;
      }

      .cls-7 {
        opacity: .5;
      }
    </style>
    <linearGradient id="New_Gradient_Swatch_3" data-name="New Gradient Swatch 3" x1="268.62" y1="39.99" x2="326.22" y2="39.99" gradientUnits="userSpaceOnUse">
      <stop offset="0" stop-color="#ffc700"/>
      <stop offset=".58" stop-color="#ff9b00"/>
      <stop offset="1" stop-color="#ff8100"/>
    </linearGradient>
  </defs>
  <rect class="cls-3" width="354" height="80"/>
  <g class="cls-7">
    <rect class="cls-2" x="4.54" y="6.19" width=".94" height="6.7"/>
    <rect class="cls-2" x="6.01" y="4.72" width="6.7" height=".94"/>
    <rect class="cls-2" x="14.71" y="4.72" width="6.71" height=".94"/>
    <rect class="cls-2" x="21.94" y="6.19" width=".94" height="6.7"/>
    <rect class="cls-2" x="23.41" y="4.72" width="6.7" height=".94"/>
    <rect class="cls-2" x="39.34" y="6.19" width=".94" height="6.7"/>
    <rect class="cls-2" x="40.81" y="4.72" width="6.7" height=".94"/>
    <rect class="cls-2" x="32.11" y="4.72" width="6.71" height=".94"/>
    <rect class="cls-2" x="56.75" y="6.19" width=".94" height="6.7"/>
    <rect class="cls-2" x="58.21" y="4.72" width="6.7" height=".94"/>
    <rect class="cls-2" x="49.51" y="4.72" width="6.71" height=".94"/>
    <rect class="cls-2" x="66.92" y="4.72" width="6.71" height=".94"/>
    <rect class="cls-2" x="74.15" y="6.19" width=".94" height="6.7"/>
    <rect class="cls-2" x="75.62" y="4.72" width="6.7" height=".94"/>
    <rect class="cls-2" x="91.55" y="6.19" width=".94" height="6.7"/>
    <rect class="cls-2" x="84.32" y="4.72" width="6.71" height=".94"/>
    <rect class="cls-2" x="93.02" y="4.72" width="6.7" height=".94"/>
    <rect class="cls-2" x="101.61" y="4.72" width="6.71" height=".94"/>
    <rect class="cls-2" x="108.85" y="6.19" width=".94" height="15.41"/>
    <rect class="cls-2" x="110.15" y="4.72" width="32.79" height=".94"/>
    <rect class="cls-2" x="4.54" y="23.59" width=".94" height="6.7"/>
    <rect class="cls-2" x="6.01" y="22.12" width="6.7" height=".94"/>
    <rect class="cls-2" x="4.54" y="14.89" width=".94" height="6.7"/>
    <rect class="cls-2" x="23.41" y="22.12" width="6.7" height=".94"/>
    <rect class="cls-2" x="21.94" y="23.59" width=".94" height="6.7"/>
    <rect class="cls-2" x="21.94" y="14.89" width=".94" height="6.7"/>
    <rect class="cls-2" x="14.71" y="22.12" width="6.71" height=".94"/>
    <rect class="cls-2" x="40.81" y="22.12" width="6.7" height=".94"/>
    <rect class="cls-2" x="39.34" y="23.59" width=".94" height="6.7"/>
    <rect class="cls-2" x="39.34" y="14.89" width=".94" height="6.7"/>
    <rect class="cls-2" x="32.11" y="22.12" width="6.71" height=".94"/>
    <rect class="cls-2" x="49.51" y="22.12" width="6.71" height=".94"/>
    <rect class="cls-2" x="56.75" y="23.59" width=".94" height="6.7"/>
    <rect class="cls-2" x="58.21" y="22.12" width="6.7" height=".94"/>
    <rect class="cls-2" x="56.75" y="14.89" width=".94" height="6.7"/>
    <rect class="cls-2" x="74.15" y="14.89" width=".94" height="6.7"/>
    <rect class="cls-2" x="66.92" y="22.12" width="6.71" height=".94"/>
    <rect class="cls-2" x="75.62" y="22.12" width="6.7" height=".94"/>
    <rect class="cls-2" x="74.15" y="23.59" width=".94" height="6.7"/>
    <rect class="cls-2" x="91.55" y="14.89" width=".94" height="6.7"/>
    <rect class="cls-2" x="91.55" y="23.59" width=".94" height="6.7"/>
    <rect class="cls-2" x="93.02" y="22.12" width="6.7" height=".94"/>
    <rect class="cls-2" x="84.32" y="22.12" width="6.71" height=".94"/>
    <rect class="cls-2" x="108.95" y="23.59" width=".94" height="15.41"/>
    <rect class="cls-2" x="101.72" y="22.12" width="6.71" height=".94"/>
    <rect class="cls-2" x="4.54" y="32.29" width=".94" height="6.7"/>
    <rect class="cls-2" x="4.54" y="40.99" width=".94" height="6.7"/>
    <rect class="cls-2" x="6.01" y="39.52" width="6.7" height=".94"/>
    <rect class="cls-2" x="21.94" y="32.29" width=".94" height="6.7"/>
    <rect class="cls-2" x="21.94" y="40.99" width=".94" height="6.7"/>
    <rect class="cls-2" x="23.41" y="39.52" width="6.7" height=".94"/>
    <rect class="cls-2" x="14.71" y="39.52" width="6.71" height=".94"/>
    <rect class="cls-2" x="39.34" y="32.29" width=".94" height="6.7"/>
    <rect class="cls-2" x="40.81" y="39.52" width="6.7" height=".94"/>
    <rect class="cls-2" x="32.11" y="39.52" width="6.71" height=".94"/>
    <rect class="cls-2" x="39.34" y="40.99" width=".94" height="6.7"/>
    <rect class="cls-2" x="56.75" y="40.99" width=".94" height="6.7"/>
    <rect class="cls-2" x="56.75" y="32.29" width=".94" height="6.7"/>
    <rect class="cls-2" x="49.51" y="39.52" width="6.71" height=".94"/>
    <rect class="cls-2" x="58.21" y="39.52" width="6.7" height=".94"/>
    <rect class="cls-2" x="75.62" y="39.52" width="6.7" height=".94"/>
    <rect class="cls-2" x="74.15" y="32.29" width=".94" height="6.7"/>
    <rect class="cls-2" x="66.92" y="39.52" width="6.71" height=".94"/>
    <rect class="cls-2" x="74.15" y="40.99" width=".94" height="6.7"/>
    <rect class="cls-2" x="91.55" y="40.99" width=".94" height="6.7"/>
    <rect class="cls-2" x="91.55" y="32.29" width=".94" height="6.7"/>
    <rect class="cls-2" x="84.32" y="39.52" width="6.71" height=".94"/>
    <rect class="cls-2" x="93.02" y="39.52" width="6.7" height=".94"/>
    <rect class="cls-2" x="143.04" y="6.19" width=".94" height="32.81"/>
    <rect class="cls-2" x="143.04" y="40.99" width=".94" height="32.8"/>
    <rect class="cls-2" x="101.72" y="39.52" width="6.71" height=".94"/>
    <rect class="cls-2" x="6.01" y="56.92" width="6.7" height=".94"/>
    <rect class="cls-2" x="4.54" y="49.69" width=".94" height="6.7"/>
    <rect class="cls-2" x="4.54" y="58.39" width=".94" height="6.7"/>
    <rect class="cls-2" x="21.94" y="49.69" width=".94" height="6.7"/>
    <rect class="cls-2" x="14.71" y="56.92" width="6.71" height=".94"/>
    <rect class="cls-2" x="23.41" y="56.92" width="6.7" height=".94"/>
    <rect class="cls-2" x="21.94" y="58.39" width=".94" height="6.7"/>
    <rect class="cls-2" x="39.34" y="58.39" width=".94" height="6.7"/>
    <rect class="cls-2" x="39.34" y="49.69" width=".94" height="6.7"/>
    <rect class="cls-2" x="40.81" y="56.92" width="6.7" height=".94"/>
    <rect class="cls-2" x="32.11" y="56.92" width="6.71" height=".94"/>
    <rect class="cls-2" x="56.75" y="49.69" width=".94" height="6.7"/>
    <rect class="cls-2" x="56.75" y="58.39" width=".94" height="6.7"/>
    <rect class="cls-2" x="58.21" y="56.92" width="6.7" height=".94"/>
    <rect class="cls-2" x="49.51" y="56.92" width="6.71" height=".94"/>
    <rect class="cls-2" x="75.62" y="56.92" width="6.7" height=".94"/>
    <rect class="cls-2" x="66.92" y="56.92" width="6.71" height=".94"/>
    <rect class="cls-2" x="74.15" y="49.69" width=".94" height="6.7"/>
    <rect class="cls-2" x="74.15" y="58.39" width=".94" height="6.7"/>
    <rect class="cls-2" x="93.02" y="56.92" width="6.7" height=".94"/>
    <rect class="cls-2" x="91.55" y="49.69" width=".94" height="6.7"/>
    <rect class="cls-2" x="91.55" y="58.39" width=".94" height="6.7"/>
    <rect class="cls-2" x="84.32" y="56.92" width="6.71" height=".94"/>
    <rect class="cls-2" x="101.72" y="56.92" width="6.71" height=".94"/>
    <rect class="cls-2" x="108.95" y="58.39" width=".94" height="15.4"/>
    <rect class="cls-2" x="108.95" y="40.99" width=".94" height="15.41"/>
    <rect class="cls-2" x="6.01" y="74.32" width="6.7" height=".94"/>
    <rect class="cls-2" x="4.54" y="67.09" width=".94" height="6.7"/>
    <rect class="cls-2" x="14.71" y="74.32" width="6.71" height=".94"/>
    <rect class="cls-2" x="23.41" y="74.32" width="6.7" height=".94"/>
    <rect class="cls-2" x="21.94" y="67.09" width=".94" height="6.7"/>
    <rect class="cls-2" x="32.11" y="74.32" width="6.71" height=".94"/>
    <rect class="cls-2" x="40.81" y="74.32" width="6.7" height=".94"/>
    <rect class="cls-2" x="39.34" y="67.09" width=".94" height="6.7"/>
    <rect class="cls-2" x="49.51" y="74.32" width="6.71" height=".94"/>
    <rect class="cls-2" x="56.75" y="67.09" width=".94" height="6.7"/>
    <rect class="cls-2" x="58.21" y="74.32" width="6.7" height=".94"/>
    <rect class="cls-2" x="74.15" y="67.09" width=".94" height="6.7"/>
    <rect class="cls-2" x="75.62" y="74.32" width="6.7" height=".94"/>
    <rect class="cls-2" x="66.92" y="74.32" width="6.71" height=".94"/>
    <rect class="cls-2" x="91.55" y="67.09" width=".94" height="6.7"/>
    <rect class="cls-2" x="93.02" y="74.32" width="6.7" height=".94"/>
    <rect class="cls-2" x="84.32" y="74.32" width="6.71" height=".94"/>
    <rect class="cls-2" x="101.72" y="74.32" width="6.71" height=".94"/>
    <polygon class="cls-2" points="135.85 39.52 110.43 39.52 110.43 40.46 135.85 40.46 142.4 40.46 142.56 40.46 142.56 39.52 142.4 39.52 135.85 39.52"/>
    <rect class="cls-2" x="110.43" y="74.32" width="31.97" height=".94"/>
    <rect class="cls-2" x="144.45" y="4.74" width="32.79" height=".94"/>
    <rect class="cls-2" x="177.29" y="41.01" width=".94" height="32.81"/>
    <rect class="cls-2" x="177.29" y="6.21" width=".94" height="32.81"/>
    <polygon class="cls-2" points="170.05 39.54 144.45 39.54 144.45 40.48 170.05 40.48 176.42 40.48 176.76 40.48 176.76 39.54 176.42 39.54 170.05 39.54"/>
    <rect class="cls-2" x="144.45" y="74.34" width="31.97" height=".94"/>
    <rect class="cls-2" x="178.7" y="4.74" width="32.79" height=".94"/>
    <rect class="cls-2" x="211.53" y="41.01" width=".94" height="32.81"/>
    <rect class="cls-2" x="211.53" y="6.21" width=".94" height="32.81"/>
    <polygon class="cls-2" points="204.3 39.54 178.7 39.54 178.7 40.48 204.3 40.48 210.67 40.48 211 40.48 211 39.54 210.67 39.54 204.3 39.54"/>
    <rect class="cls-2" x="178.7" y="74.34" width="31.97" height=".94"/>
    <rect class="cls-2" x="212.95" y="4.74" width="32.79" height=".94"/>
    <rect class="cls-2" x="245.78" y="6.21" width=".94" height="32.81"/>
    <rect class="cls-2" x="245.78" y="41.01" width=".94" height="32.81"/>
    <polygon class="cls-2" points="238.55 39.54 212.95 39.54 212.95 40.48 238.55 40.48 244.91 40.48 245.25 40.48 245.25 39.54 244.91 39.54 238.55 39.54"/>
    <rect class="cls-2" x="212.95" y="74.34" width="31.97" height=".94"/>
    <rect class="cls-2" x="247.19" y="4.74" width="32.79" height=".94"/>
    <rect class="cls-2" x="247.19" y="74.34" width="31.97" height=".94"/>
    <rect class="cls-2" x="281.44" y="4.74" width="32.79" height=".94"/>
    <rect class="cls-2" x="281.44" y="74.34" width="31.97" height=".94"/>
    <rect class="cls-2" x="315.69" y="4.74" width="32.79" height=".94"/>
    <rect class="cls-2" x="348.52" y="41.01" width=".94" height="32.81"/>
    <rect class="cls-2" x="348.52" y="6.21" width=".94" height="32.81"/>
    <rect class="cls-2" x="315.69" y="74.34" width="31.97" height=".94"/>
  </g>
  <polygon class="cls-1" points="240.39 46.52 239.69 45.81 218.23 67.27 218.23 55.57 217.23 55.57 217.23 69 230.67 69 230.67 68 218.91 68 240.39 46.52"/>
  <polygon class="cls-1" points="206.67 46.52 205.97 45.81 184.52 67.27 184.52 55.57 183.52 55.57 183.52 69 196.95 69 196.95 68 185.19 68 206.67 46.52"/>
  <polygon class="cls-1" points="172.18 46.52 171.48 45.81 150.03 67.27 150.03 55.57 149.03 55.57 149.03 69 162.46 69 162.46 68 150.7 68 172.18 46.52"/>
  <g>
    <g>
      <line class="cls-5" x1="60" y1="60.11" x2="71.9" y2="72.01"/>
      <polyline class="cls-6" points="65 72.02 71.9 72.02 71.9 65.13"/>
    </g>
    <g>
      <line class="cls-5" x1="42.53" y1="60.11" x2="54.42" y2="72.01"/>
      <polyline class="cls-6" points="47.53 72.02 54.42 72.02 54.42 65.13"/>
    </g>
    <g>
      <line class="cls-5" x1="25.06" y1="60.11" x2="36.95" y2="72.01"/>
      <polyline class="cls-6" points="30.06 72.02 36.95 72.02 36.95 65.13"/>
    </g>
    <g>
      <line class="cls-5" x1="7.59" y1="60.15" x2="19.48" y2="72.04"/>
      <polyline class="cls-6" points="12.59 72.06 19.48 72.06 19.48 65.16"/>
    </g>
  </g>
  <g>
    <g>
      <line class="cls-5" x1="60" y1="42.67" x2="71.9" y2="54.56"/>
      <polyline class="cls-6" points="65 54.58 71.9 54.58 71.9 47.68"/>
    </g>
    <g>
      <line class="cls-5" x1="42.53" y1="42.67" x2="54.42" y2="54.56"/>
      <polyline class="cls-6" points="47.53 54.58 54.42 54.58 54.42 47.68"/>
    </g>
    <g>
      <line class="cls-5" x1="25.06" y1="42.67" x2="36.95" y2="54.56"/>
      <polyline class="cls-6" points="30.06 54.58 36.95 54.58 36.95 47.68"/>
    </g>
    <g>
      <line class="cls-5" x1="7.59" y1="42.7" x2="19.48" y2="54.6"/>
      <polyline class="cls-6" points="12.59 54.61 19.48 54.61 19.48 47.72"/>
    </g>
  </g>
  <g>
    <g>
      <line class="cls-5" x1="60" y1="25.22" x2="71.9" y2="37.12"/>
      <polyline class="cls-6" points="65 37.13 71.9 37.13 71.9 30.24"/>
    </g>
    <g>
      <line class="cls-5" x1="42.53" y1="25.22" x2="54.42" y2="37.12"/>
      <polyline class="cls-6" points="47.53 37.13 54.42 37.13 54.42 30.24"/>
    </g>
    <g>
      <line class="cls-5" x1="25.06" y1="25.22" x2="36.95" y2="37.12"/>
      <polyline class="cls-6" points="30.06 37.13 36.95 37.13 36.95 30.24"/>
    </g>
    <g>
      <line class="cls-5" x1="7.59" y1="25.26" x2="19.48" y2="37.15"/>
      <polyline class="cls-6" points="12.59 37.17 19.48 37.17 19.48 30.27"/>
    </g>
  </g>
  <g>
    <g>
      <line class="cls-5" x1="60" y1="7.78" x2="71.9" y2="19.67"/>
      <polyline class="cls-6" points="65 19.69 71.9 19.69 71.9 12.79"/>
    </g>
    <g>
      <line class="cls-5" x1="42.53" y1="7.78" x2="54.42" y2="19.67"/>
      <polyline class="cls-6" points="47.53 19.69 54.42 19.69 54.42 12.79"/>
    </g>
    <g>
      <line class="cls-5" x1="25.06" y1="7.78" x2="36.95" y2="19.67"/>
      <polyline class="cls-6" points="30.06 19.69 36.95 19.69 36.95 12.79"/>
    </g>
    <g>
      <line class="cls-5" x1="7.59" y1="7.82" x2="19.48" y2="19.71"/>
      <polyline class="cls-6" points="12.59 19.72 19.48 19.72 19.48 12.83"/>
    </g>
  </g>
  <path class="cls-4" d="m322.62,50.79v-28.8c0-.99-.8-1.8-1.8-1.8h-46.8c-.99,0-1.8.8-1.8,1.8v28.8h-3.6v5.39c0,1.99,1.61,3.61,3.61,3.61h50.39c1.99,0,3.61-1.61,3.61-3.61v-5.39h-3.6Zm-48.6-28.8h46.8v28.8h-46.8v-28.8Zm50.4,34.19c0,1-.81,1.81-1.81,1.81h-50.39c-1,0-1.81-.81-1.81-1.81v-3.59h54v3.59Zm-19.8,0h-14.4v-1.8h14.4v1.8Z"/>
</svg>