<?xml version="1.0" encoding="UTF-8"?>
<svg id="Layer_1" data-name="Layer 1" xmlns="http://www.w3.org/2000/svg" width="354" height="80" xmlns:xlink="http://www.w3.org/1999/xlink" viewBox="0 0 354 80">
  <defs>
    <style>
      .cls-1, .cls-2 {
        fill: #7d868c;
      }

      .cls-3 {
        fill: url(#New_Gradient_Swatch_7);
      }

      .cls-4, .cls-2 {
        opacity: .25;
      }
    </style>
    <linearGradient id="New_Gradient_Swatch_7" data-name="New Gradient Swatch 7" x1="268.62" y1="39.52" x2="326.22" y2="39.52" gradientTransform="translate(-240.85)" gradientUnits="userSpaceOnUse">
      <stop offset="0" stop-color="#95d600"/>
      <stop offset="1" stop-color="#00c1de"/>
    </linearGradient>
  </defs>
  <g class="cls-4">
    <rect class="cls-1" x="348.52" y="6.19" width=".94" height="6.7"/>
    <rect class="cls-1" x="341.29" y="4.72" width="6.7" height=".94"/>
    <rect class="cls-1" x="332.58" y="4.72" width="6.71" height=".94"/>
    <rect class="cls-1" x="331.12" y="6.19" width=".94" height="6.7"/>
    <rect class="cls-1" x="323.89" y="4.72" width="6.7" height=".94"/>
    <rect class="cls-1" x="313.72" y="6.19" width=".94" height="6.7"/>
    <rect class="cls-1" x="306.48" y="4.72" width="6.7" height=".94"/>
    <rect class="cls-1" x="315.18" y="4.72" width="6.71" height=".94"/>
    <rect class="cls-1" x="296.31" y="6.19" width=".94" height="6.7"/>
    <rect class="cls-1" x="289.08" y="4.72" width="6.7" height=".94"/>
    <rect class="cls-1" x="297.78" y="4.72" width="6.71" height=".94"/>
    <rect class="cls-1" x="280.38" y="4.72" width="6.71" height=".94"/>
    <rect class="cls-1" x="278.91" y="6.19" width=".94" height="6.7"/>
    <rect class="cls-1" x="271.68" y="4.72" width="6.7" height=".94"/>
    <rect class="cls-1" x="261.51" y="6.19" width=".94" height="6.7"/>
    <rect class="cls-1" x="262.98" y="4.72" width="6.71" height=".94"/>
    <rect class="cls-1" x="254.28" y="4.72" width="6.7" height=".94"/>
    <rect class="cls-1" x="245.68" y="4.72" width="6.71" height=".94"/>
    <rect class="cls-1" x="244.22" y="6.19" width=".94" height="15.41"/>
    <rect class="cls-1" x="211.06" y="4.72" width="32.79" height=".94"/>
    <rect class="cls-1" x="348.52" y="23.59" width=".94" height="6.7"/>
    <rect class="cls-1" x="341.29" y="22.12" width="6.7" height=".94"/>
    <rect class="cls-1" x="348.52" y="14.89" width=".94" height="6.7"/>
    <rect class="cls-1" x="323.89" y="22.12" width="6.7" height=".94"/>
    <rect class="cls-1" x="331.12" y="23.59" width=".94" height="6.7"/>
    <rect class="cls-1" x="331.12" y="14.89" width=".94" height="6.7"/>
    <rect class="cls-1" x="332.58" y="22.12" width="6.71" height=".94"/>
    <rect class="cls-1" x="306.48" y="22.12" width="6.7" height=".94"/>
    <rect class="cls-1" x="313.72" y="23.59" width=".94" height="6.7"/>
    <rect class="cls-1" x="313.72" y="14.89" width=".94" height="6.7"/>
    <rect class="cls-1" x="315.18" y="22.12" width="6.71" height=".94"/>
    <rect class="cls-1" x="297.78" y="22.12" width="6.71" height=".94"/>
    <rect class="cls-1" x="296.31" y="23.59" width=".94" height="6.7"/>
    <rect class="cls-1" x="289.08" y="22.12" width="6.7" height=".94"/>
    <rect class="cls-1" x="296.31" y="14.89" width=".94" height="6.7"/>
    <rect class="cls-1" x="278.91" y="14.89" width=".94" height="6.7"/>
    <rect class="cls-1" x="280.38" y="22.12" width="6.71" height=".94"/>
    <rect class="cls-1" x="271.68" y="22.12" width="6.7" height=".94"/>
    <rect class="cls-1" x="278.91" y="23.59" width=".94" height="6.7"/>
    <rect class="cls-1" x="261.51" y="14.89" width=".94" height="6.7"/>
    <rect class="cls-1" x="261.51" y="23.59" width=".94" height="6.7"/>
    <rect class="cls-1" x="254.28" y="22.12" width="6.7" height=".94"/>
    <rect class="cls-1" x="262.98" y="22.12" width="6.71" height=".94"/>
    <rect class="cls-1" x="244.11" y="23.59" width=".94" height="15.41"/>
    <rect class="cls-1" x="245.57" y="22.12" width="6.71" height=".94"/>
    <rect class="cls-1" x="348.52" y="32.29" width=".94" height="6.7"/>
    <rect class="cls-1" x="348.52" y="40.99" width=".94" height="6.7"/>
    <rect class="cls-1" x="341.29" y="39.52" width="6.7" height=".94"/>
    <rect class="cls-1" x="331.12" y="32.29" width=".94" height="6.7"/>
    <rect class="cls-1" x="331.12" y="40.99" width=".94" height="6.7"/>
    <rect class="cls-1" x="323.89" y="39.52" width="6.7" height=".94"/>
    <rect class="cls-1" x="332.58" y="39.52" width="6.71" height=".94"/>
    <rect class="cls-1" x="313.72" y="32.29" width=".94" height="6.7"/>
    <rect class="cls-1" x="306.48" y="39.52" width="6.7" height=".94"/>
    <rect class="cls-1" x="315.18" y="39.52" width="6.71" height=".94"/>
    <rect class="cls-1" x="313.72" y="40.99" width=".94" height="6.7"/>
    <rect class="cls-1" x="296.31" y="40.99" width=".94" height="6.7"/>
    <rect class="cls-1" x="296.31" y="32.29" width=".94" height="6.7"/>
    <rect class="cls-1" x="297.78" y="39.52" width="6.71" height=".94"/>
    <rect class="cls-1" x="289.08" y="39.52" width="6.7" height=".94"/>
    <rect class="cls-1" x="271.68" y="39.52" width="6.7" height=".94"/>
    <rect class="cls-1" x="278.91" y="32.29" width=".94" height="6.7"/>
    <rect class="cls-1" x="280.38" y="39.52" width="6.71" height=".94"/>
    <rect class="cls-1" x="278.91" y="40.99" width=".94" height="6.7"/>
    <rect class="cls-1" x="261.51" y="40.99" width=".94" height="6.7"/>
    <rect class="cls-1" x="261.51" y="32.29" width=".94" height="6.7"/>
    <rect class="cls-1" x="262.98" y="39.52" width="6.71" height=".94"/>
    <rect class="cls-1" x="254.28" y="39.52" width="6.7" height=".94"/>
    <rect class="cls-1" x="210.02" y="6.19" width=".94" height="32.81"/>
    <rect class="cls-1" x="210.02" y="40.99" width=".94" height="32.8"/>
    <rect class="cls-1" x="245.57" y="39.52" width="6.71" height=".94"/>
    <rect class="cls-1" x="341.29" y="56.92" width="6.7" height=".94"/>
    <rect class="cls-1" x="348.52" y="49.69" width=".94" height="6.7"/>
    <rect class="cls-1" x="348.52" y="58.39" width=".94" height="6.7"/>
    <rect class="cls-1" x="331.12" y="49.69" width=".94" height="6.7"/>
    <rect class="cls-1" x="332.58" y="56.92" width="6.71" height=".94"/>
    <rect class="cls-1" x="323.89" y="56.92" width="6.7" height=".94"/>
    <rect class="cls-1" x="331.12" y="58.39" width=".94" height="6.7"/>
    <rect class="cls-1" x="313.72" y="58.39" width=".94" height="6.7"/>
    <rect class="cls-1" x="313.72" y="49.69" width=".94" height="6.7"/>
    <rect class="cls-1" x="306.48" y="56.92" width="6.7" height=".94"/>
    <rect class="cls-1" x="315.18" y="56.92" width="6.71" height=".94"/>
    <rect class="cls-1" x="296.31" y="49.69" width=".94" height="6.7"/>
    <rect class="cls-1" x="296.31" y="58.39" width=".94" height="6.7"/>
    <rect class="cls-1" x="289.08" y="56.92" width="6.7" height=".94"/>
    <rect class="cls-1" x="297.78" y="56.92" width="6.71" height=".94"/>
    <rect class="cls-1" x="271.68" y="56.92" width="6.7" height=".94"/>
    <rect class="cls-1" x="280.38" y="56.92" width="6.71" height=".94"/>
    <rect class="cls-1" x="278.91" y="49.69" width=".94" height="6.7"/>
    <rect class="cls-1" x="278.91" y="58.39" width=".94" height="6.7"/>
    <rect class="cls-1" x="254.28" y="56.92" width="6.7" height=".94"/>
    <rect class="cls-1" x="261.51" y="49.69" width=".94" height="6.7"/>
    <rect class="cls-1" x="261.51" y="58.39" width=".94" height="6.7"/>
    <rect class="cls-1" x="262.98" y="56.92" width="6.71" height=".94"/>
    <rect class="cls-1" x="245.57" y="56.92" width="6.71" height=".94"/>
    <rect class="cls-1" x="244.11" y="58.39" width=".94" height="15.4"/>
    <rect class="cls-1" x="244.11" y="40.99" width=".94" height="15.41"/>
    <rect class="cls-1" x="341.29" y="74.32" width="6.7" height=".94"/>
    <rect class="cls-1" x="348.52" y="67.09" width=".94" height="6.7"/>
    <rect class="cls-1" x="332.58" y="74.32" width="6.71" height=".94"/>
    <rect class="cls-1" x="323.89" y="74.32" width="6.7" height=".94"/>
    <rect class="cls-1" x="331.12" y="67.09" width=".94" height="6.7"/>
    <rect class="cls-1" x="315.18" y="74.32" width="6.71" height=".94"/>
    <rect class="cls-1" x="306.48" y="74.32" width="6.7" height=".94"/>
    <rect class="cls-1" x="313.72" y="67.09" width=".94" height="6.7"/>
    <rect class="cls-1" x="297.78" y="74.32" width="6.71" height=".94"/>
    <rect class="cls-1" x="296.31" y="67.09" width=".94" height="6.7"/>
    <rect class="cls-1" x="289.08" y="74.32" width="6.7" height=".94"/>
    <rect class="cls-1" x="278.91" y="67.09" width=".94" height="6.7"/>
    <rect class="cls-1" x="271.68" y="74.32" width="6.7" height=".94"/>
    <rect class="cls-1" x="280.38" y="74.32" width="6.71" height=".94"/>
    <rect class="cls-1" x="261.51" y="67.09" width=".94" height="6.7"/>
    <rect class="cls-1" x="254.28" y="74.32" width="6.7" height=".94"/>
    <rect class="cls-1" x="262.98" y="74.32" width="6.71" height=".94"/>
    <rect class="cls-1" x="245.57" y="74.32" width="6.71" height=".94"/>
    <polygon class="cls-1" points="218.15 39.52 243.57 39.52 243.57 40.46 218.15 40.46 211.6 40.46 211.44 40.46 211.44 39.52 211.6 39.52 218.15 39.52"/>
    <rect class="cls-1" x="211.6" y="74.32" width="31.97" height=".94"/>
    <rect class="cls-1" x="176.76" y="4.74" width="32.79" height=".94"/>
    <rect class="cls-1" x="175.78" y="41.01" width=".94" height="32.81"/>
    <rect class="cls-1" x="175.78" y="6.21" width=".94" height="32.81"/>
    <polygon class="cls-1" points="183.95 39.54 209.55 39.54 209.55 40.48 183.95 40.48 177.58 40.48 177.24 40.48 177.24 39.54 177.58 39.54 183.95 39.54"/>
    <rect class="cls-1" x="177.58" y="74.34" width="31.97" height=".94"/>
    <rect class="cls-1" x="142.51" y="4.74" width="32.79" height=".94"/>
    <rect class="cls-1" x="141.53" y="41.01" width=".94" height="32.81"/>
    <rect class="cls-1" x="141.53" y="6.21" width=".94" height="32.81"/>
    <polygon class="cls-1" points="149.7 39.54 175.3 39.54 175.3 40.48 149.7 40.48 143.33 40.48 143 40.48 143 39.54 143.33 39.54 149.7 39.54"/>
    <rect class="cls-1" x="143.33" y="74.34" width="31.97" height=".94"/>
    <rect class="cls-1" x="108.26" y="4.74" width="32.79" height=".94"/>
    <rect class="cls-1" x="107.28" y="6.21" width=".94" height="32.81"/>
    <rect class="cls-1" x="107.28" y="41.01" width=".94" height="32.81"/>
    <polygon class="cls-1" points="115.45 39.54 141.05 39.54 141.05 40.48 115.45 40.48 109.09 40.48 108.75 40.48 108.75 39.54 109.09 39.54 115.45 39.54"/>
    <rect class="cls-1" x="109.09" y="74.34" width="31.97" height=".94"/>
    <rect class="cls-1" x="74.02" y="4.74" width="32.79" height=".94"/>
    <rect class="cls-1" x="74.84" y="74.34" width="31.97" height=".94"/>
    <rect class="cls-1" x="39.77" y="4.74" width="32.79" height=".94"/>
    <rect class="cls-1" x="40.59" y="74.34" width="31.97" height=".94"/>
    <rect class="cls-1" x="5.52" y="4.74" width="32.79" height=".94"/>
    <rect class="cls-1" x="4.54" y="41.01" width=".94" height="32.81"/>
    <rect class="cls-1" x="4.54" y="6.21" width=".94" height="32.81"/>
    <rect class="cls-1" x="6.34" y="74.34" width="31.97" height=".94"/>
  </g>
  <path class="cls-3" d="m82.9,22.12h-2.33c-.25-2.02-1.96-3.59-4.05-3.59h-12.7c-2.09,0-3.79,1.57-4.05,3.59h-29.52c-1.37,0-2.48,1.11-2.48,2.48v33.44c0,1.37,1.11,2.48,2.48,2.48h52.64c1.37,0,2.48-1.11,2.48-2.48V24.6c0-1.37-1.11-2.48-2.48-2.48Zm-21.38.51c0-1.27,1.03-2.3,2.3-2.3h12.7c1.27,0,2.3,1.03,2.3,2.3v.77c0,1.27-1.03,2.3-2.3,2.3h-12.7c-1.27,0-2.3-1.03-2.3-2.3v-.77Zm-31.94,35.41V24.6c0-.37.3-.68.68-.68h29.52c.26,2.01,1.96,3.58,4.05,3.58h12.7c2.08,0,3.79-1.57,4.05-3.58h2.33c.37,0,.68.3.68.68v22.76h-10.61v11.36H30.25c-.37,0-.68-.3-.68-.68Zm53.32.68h-8.14v-9.56h8.81v8.88c0,.37-.3.68-.68.68Zm-15.51-10.48c-2.25,0-4.08,1.83-4.08,4.08s1.83,4.08,4.08,4.08,4.08-1.83,4.08-4.08-1.83-4.08-4.08-4.08Zm0,6.37c-1.26,0-2.28-1.02-2.28-2.28s1.02-2.28,2.28-2.28,2.28,1.02,2.28,2.28-1.02,2.28-2.28,2.28Zm11.78-3.88c-1.57,0-2.84,1.27-2.84,2.84s1.27,2.84,2.84,2.84,2.84-1.27,2.84-2.84-1.27-2.84-2.84-2.84Zm0,3.88c-.57,0-1.04-.47-1.04-1.04s.47-1.04,1.04-1.04,1.04.47,1.04,1.04-.47,1.04-1.04,1.04Zm-20.97-25.57h-3.33v-1.67h-1.8v1.67h-6v-1.67h-1.8v1.67h-5.96v-1.28h-1.8v1.28h-3.33v3.61h-1.55v1.8h1.55v5.96h-1.55v1.8h1.55v6h-1.55v1.8h1.55v3.61h3.33v1.67h1.8v-1.67h5.96v1.67h1.8v-1.67h6v1.67h1.8v-1.67h3.33v-3.61h1.55v-1.8h-1.55v-6h1.55v-1.8h-1.55v-5.96h1.55v-1.8h-1.55v-3.61Zm-1.8,22.77h-20.43v-20.97h20.43v20.97Zm-3.33-17.51h-13.76v14.06h13.76v-14.06Zm-1.8,12.26h-10.16v-10.46h10.16v10.46Zm30.74-11.42h-18.71s0,6.45,0,6.45h18.71s0-6.45,0-6.45Zm-1.8,4.65h-15.11v-2.86h15.11v2.86Zm-14.31-15.97h-1.8v-1.96h1.8v1.96Zm5.16,0h-1.8v-1.96h1.8v1.96Zm5.16,0h-1.8s0-1.96,0-1.96h1.8s0,1.96,0,1.96Z"/>
  <g class="cls-4">
    <polygon class="cls-1" points="294 60.11 293.64 59.76 282.61 70.8 282.61 65.13 281.61 65.13 281.61 72.52 289 72.52 289 71.52 283.3 71.52 294.35 60.47 294 60.11"/>
    <polygon class="cls-1" points="311.11 59.76 300.08 70.8 300.08 65.13 299.08 65.13 299.08 72.52 306.47 72.52 306.47 71.52 300.77 71.52 311.82 60.47 311.11 59.76"/>
    <line class="cls-1" x1="328.94" y1="60.11" x2="328.94" y2="60.11"/>
    <polygon class="cls-1" points="328.94 60.11 328.58 59.76 317.55 70.8 317.55 65.13 316.55 65.13 316.55 72.52 323.94 72.52 323.94 71.52 318.24 71.52 329.29 60.47 328.94 60.11"/>
    <polygon class="cls-1" points="346.06 59.8 335.02 70.84 335.02 65.16 334.02 65.16 334.02 72.56 341.41 72.56 341.41 71.56 335.71 71.56 346.76 60.5 346.06 59.8"/>
    <polygon class="cls-1" points="282.61 53.35 282.61 47.68 281.61 47.68 281.61 55.08 289 55.08 289 54.08 283.3 54.08 294.35 43.02 293.64 42.31 282.61 53.35"/>
    <polygon class="cls-1" points="300.08 53.35 300.08 47.68 299.08 47.68 299.08 55.08 306.47 55.08 306.47 54.08 300.77 54.08 311.82 43.02 311.11 42.31 300.08 53.35"/>
    <line class="cls-1" x1="328.94" y1="42.67" x2="328.94" y2="42.67"/>
    <polygon class="cls-1" points="328.58 42.31 317.55 53.35 317.55 47.68 316.55 47.68 316.55 55.08 323.94 55.08 323.94 54.08 318.24 54.08 329.29 43.02 328.94 42.67 328.58 42.31"/>
    <line class="cls-1" x1="346.41" y1="42.71" x2="346.41" y2="42.7"/>
    <polygon class="cls-1" points="346.06 42.35 335.02 53.39 335.02 47.72 334.02 47.72 334.02 55.11 341.41 55.11 341.41 54.11 335.71 54.11 346.76 43.06 346.41 42.71 346.06 42.35"/>
    <line class="cls-1" x1="294" y1="25.22" x2="294" y2="25.22"/>
    <polygon class="cls-1" points="293.64 24.87 282.61 35.91 282.61 30.24 281.61 30.24 281.61 37.63 289 37.63 289 36.63 283.3 36.63 294.35 25.58 294 25.22 293.64 24.87"/>
    <line class="cls-1" x1="311.47" y1="25.22" x2="311.47" y2="25.22"/>
    <polygon class="cls-1" points="311.11 24.87 300.08 35.91 300.08 30.24 299.08 30.24 299.08 37.63 306.47 37.63 306.47 36.63 300.77 36.63 311.82 25.58 311.47 25.22 311.11 24.87"/>
    <line class="cls-1" x1="328.94" y1="25.22" x2="328.94" y2="25.22"/>
    <polygon class="cls-1" points="328.58 24.87 317.55 35.91 317.55 30.24 316.55 30.24 316.55 37.63 323.94 37.63 323.94 36.63 318.24 36.63 329.29 25.58 328.94 25.22 328.58 24.87"/>
    <polygon class="cls-1" points="346.06 24.91 335.02 35.95 335.02 30.27 334.02 30.27 334.02 37.67 341.41 37.67 341.41 36.67 335.71 36.67 346.76 25.61 346.41 25.26 346.06 24.91"/>
    <polygon class="cls-1" points="282.61 18.46 282.61 12.79 281.61 12.79 281.61 20.19 289 20.19 289 19.19 283.3 19.19 294.35 8.13 293.64 7.42 282.61 18.46"/>
    <polygon class="cls-1" points="300.08 18.46 300.08 12.79 299.08 12.79 299.08 20.19 306.47 20.19 306.47 19.19 300.77 19.19 311.82 8.13 311.11 7.42 300.08 18.46"/>
    <line class="cls-1" x1="328.94" y1="7.78" x2="328.94" y2="7.78"/>
    <polygon class="cls-1" points="328.58 7.42 317.55 18.46 317.55 12.79 316.55 12.79 316.55 20.19 323.94 20.19 323.94 19.19 318.24 19.19 329.29 8.13 328.94 7.78 328.58 7.42"/>
    <line class="cls-1" x1="346.41" y1="7.82" x2="346.41" y2="7.82"/>
    <polygon class="cls-1" points="341.41 19.22 335.71 19.22 346.76 8.17 346.41 7.82 346.06 7.46 335.02 18.5 335.02 12.83 334.02 12.83 334.02 20.22 341.41 20.22 341.41 19.22"/>
  </g>
  <polygon class="cls-2" points="113.61 46.52 114.31 45.81 135.77 67.27 135.77 55.57 136.77 55.57 136.77 69 123.33 69 123.33 68 135.09 68 113.61 46.52"/>
  <polygon class="cls-2" points="147.33 46.52 148.03 45.81 169.48 67.27 169.48 55.57 170.48 55.57 170.48 69 157.05 69 157.05 68 168.81 68 147.33 46.52"/>
  <polygon class="cls-2" points="181.82 46.52 182.52 45.81 203.97 67.27 203.97 55.57 204.97 55.57 204.97 69 191.54 69 191.54 68 203.3 68 181.82 46.52"/>
</svg>