<svg xmlns="http://www.w3.org/2000/svg" xmlns:xlink="http://www.w3.org/1999/xlink" width="354" height="80" viewBox="0 0 354 80"><defs><clipPath id="a"><rect width="354" height="80" transform="translate(14 15)" fill="#a3a8ae"/></clipPath><linearGradient id="b" y1="0.5" x2="1" y2="0.5" gradientUnits="objectBoundingBox"><stop offset="0" stop-color="#95d600"/><stop offset="0.07" stop-color="#88d412"/><stop offset="0.53" stop-color="#3fca7e"/><stop offset="0.85" stop-color="#11c3c3"/><stop offset="1" stop-color="#00c1de"/></linearGradient></defs><g transform="translate(-14 -15)" clip-path="url(#a)"><g transform="translate(14 15)"><path d="M0,0H354V80H0Z" fill="#1f2023"/><g opacity="0.5"><rect width="0.94" height="6.7" transform="translate(4.54 6.19)" fill="#7d868c"/><rect width="6.7" height="0.94" transform="translate(6.01 4.72)" fill="#7d868c"/><rect width="6.71" height="0.94" transform="translate(14.71 4.72)" fill="#7d868c"/><rect width="0.94" height="6.7" transform="translate(21.94 6.19)" fill="#7d868c"/><rect width="6.7" height="0.94" transform="translate(23.41 4.72)" fill="#7d868c"/><rect width="0.94" height="6.7" transform="translate(39.34 6.19)" fill="#7d868c"/><rect width="6.7" height="0.94" transform="translate(40.81 4.72)" fill="#7d868c"/><rect width="6.71" height="0.94" transform="translate(32.11 4.72)" fill="#7d868c"/><rect width="0.94" height="6.7" transform="translate(56.75 6.19)" fill="#7d868c"/><rect width="6.7" height="0.94" transform="translate(58.21 4.72)" fill="#7d868c"/><rect width="6.71" height="0.94" transform="translate(49.51 4.72)" fill="#7d868c"/><rect width="6.71" height="0.94" transform="translate(66.92 4.72)" fill="#7d868c"/><rect width="0.94" height="6.7" transform="translate(74.15 6.19)" fill="#7d868c"/><rect width="6.7" height="0.94" transform="translate(75.62 4.72)" fill="#7d868c"/><rect width="0.94" height="6.7" transform="translate(91.55 6.19)" fill="#7d868c"/><rect width="6.71" height="0.94" transform="translate(84.32 4.72)" fill="#7d868c"/><rect width="6.7" height="0.94" transform="translate(93.02 4.72)" fill="#7d868c"/><rect width="6.71" height="0.94" transform="translate(101.61 4.72)" fill="#7d868c"/><rect width="0.94" height="15.41" transform="translate(108.85 6.19)" fill="#7d868c"/><rect width="32.79" height="0.94" transform="translate(110.15 4.72)" fill="#7d868c"/><rect width="0.94" height="6.7" transform="translate(4.54 23.59)" fill="#7d868c"/><rect width="6.7" height="0.94" transform="translate(6.01 22.12)" fill="#7d868c"/><rect width="0.94" height="6.7" transform="translate(4.54 14.89)" fill="#7d868c"/><rect width="6.7" height="0.94" transform="translate(23.41 22.12)" fill="#7d868c"/><rect width="0.94" height="6.7" transform="translate(21.94 23.59)" fill="#7d868c"/><rect width="0.94" height="6.7" transform="translate(21.94 14.89)" fill="#7d868c"/><rect width="6.71" height="0.94" transform="translate(14.71 22.12)" fill="#7d868c"/><rect width="6.7" height="0.94" transform="translate(40.81 22.12)" fill="#7d868c"/><rect width="0.94" height="6.7" transform="translate(39.34 23.59)" fill="#7d868c"/><rect width="0.94" height="6.7" transform="translate(39.34 14.89)" fill="#7d868c"/><rect width="6.71" height="0.94" transform="translate(32.11 22.12)" fill="#7d868c"/><rect width="6.71" height="0.94" transform="translate(49.51 22.12)" fill="#7d868c"/><rect width="0.94" height="6.7" transform="translate(56.75 23.59)" fill="#7d868c"/><rect width="6.7" height="0.94" transform="translate(58.21 22.12)" fill="#7d868c"/><rect width="0.94" height="6.7" transform="translate(56.75 14.89)" fill="#7d868c"/><rect width="0.94" height="6.7" transform="translate(74.15 14.89)" fill="#7d868c"/><rect width="6.71" height="0.94" transform="translate(66.92 22.12)" fill="#7d868c"/><rect width="6.7" height="0.94" transform="translate(75.62 22.12)" fill="#7d868c"/><rect width="0.94" height="6.7" transform="translate(74.15 23.59)" fill="#7d868c"/><rect width="0.94" height="6.7" transform="translate(91.55 14.89)" fill="#7d868c"/><rect width="0.94" height="6.7" transform="translate(91.55 23.59)" fill="#7d868c"/><rect width="6.7" height="0.94" transform="translate(93.02 22.12)" fill="#7d868c"/><rect width="6.71" height="0.94" transform="translate(84.32 22.12)" fill="#7d868c"/><rect width="0.94" height="15.41" transform="translate(108.95 23.59)" fill="#7d868c"/><rect width="6.71" height="0.94" transform="translate(101.72 22.12)" fill="#7d868c"/><rect width="0.94" height="6.7" transform="translate(4.54 32.29)" fill="#7d868c"/><rect width="0.94" height="6.7" transform="translate(4.54 40.99)" fill="#7d868c"/><rect width="6.7" height="0.94" transform="translate(6.01 39.52)" fill="#7d868c"/><rect width="0.94" height="6.7" transform="translate(21.94 32.29)" fill="#7d868c"/><rect width="0.94" height="6.7" transform="translate(21.94 40.99)" fill="#7d868c"/><rect width="6.7" height="0.94" transform="translate(23.41 39.52)" fill="#7d868c"/><rect width="6.71" height="0.94" transform="translate(14.71 39.52)" fill="#7d868c"/><rect width="0.94" height="6.7" transform="translate(39.34 32.29)" fill="#7d868c"/><rect width="6.7" height="0.94" transform="translate(40.81 39.52)" fill="#7d868c"/><rect width="6.71" height="0.94" transform="translate(32.11 39.52)" fill="#7d868c"/><rect width="0.94" height="6.7" transform="translate(39.34 40.99)" fill="#7d868c"/><rect width="0.94" height="6.7" transform="translate(56.75 40.99)" fill="#7d868c"/><rect width="0.94" height="6.7" transform="translate(56.75 32.29)" fill="#7d868c"/><rect width="6.71" height="0.94" transform="translate(49.51 39.52)" fill="#7d868c"/><rect width="6.7" height="0.94" transform="translate(58.21 39.52)" fill="#7d868c"/><rect width="6.7" height="0.94" transform="translate(75.62 39.52)" fill="#7d868c"/><rect width="0.94" height="6.7" transform="translate(74.15 32.29)" fill="#7d868c"/><rect width="6.71" height="0.94" transform="translate(66.92 39.52)" fill="#7d868c"/><rect width="0.94" height="6.7" transform="translate(74.15 40.99)" fill="#7d868c"/><rect width="0.94" height="6.7" transform="translate(91.55 40.99)" fill="#7d868c"/><rect width="0.94" height="6.7" transform="translate(91.55 32.29)" fill="#7d868c"/><rect width="6.71" height="0.94" transform="translate(84.32 39.52)" fill="#7d868c"/><rect width="6.7" height="0.94" transform="translate(93.02 39.52)" fill="#7d868c"/><rect width="0.94" height="32.81" transform="translate(143.04 6.19)" fill="#7d868c"/><rect width="0.94" height="32.8" transform="translate(143.04 40.99)" fill="#7d868c"/><rect width="6.71" height="0.94" transform="translate(101.72 39.52)" fill="#7d868c"/><rect width="6.7" height="0.94" transform="translate(6.01 56.92)" fill="#7d868c"/><rect width="0.94" height="6.7" transform="translate(4.54 49.69)" fill="#7d868c"/><rect width="0.94" height="6.7" transform="translate(4.54 58.39)" fill="#7d868c"/><rect width="0.94" height="6.7" transform="translate(21.94 49.69)" fill="#7d868c"/><rect width="6.71" height="0.94" transform="translate(14.71 56.92)" fill="#7d868c"/><rect width="6.7" height="0.94" transform="translate(23.41 56.92)" fill="#7d868c"/><rect width="0.94" height="6.7" transform="translate(21.94 58.39)" fill="#7d868c"/><rect width="0.94" height="6.7" transform="translate(39.34 58.39)" fill="#7d868c"/><rect width="0.94" height="6.7" transform="translate(39.34 49.69)" fill="#7d868c"/><rect width="6.7" height="0.94" transform="translate(40.81 56.92)" fill="#7d868c"/><rect width="6.71" height="0.94" transform="translate(32.11 56.92)" fill="#7d868c"/><rect width="0.94" height="6.7" transform="translate(56.75 49.69)" fill="#7d868c"/><rect width="0.94" height="6.7" transform="translate(56.75 58.39)" fill="#7d868c"/><rect width="6.7" height="0.94" transform="translate(58.21 56.92)" fill="#7d868c"/><rect width="6.71" height="0.94" transform="translate(49.51 56.92)" fill="#7d868c"/><rect width="6.7" height="0.94" transform="translate(75.62 56.92)" fill="#7d868c"/><rect width="6.71" height="0.94" transform="translate(66.92 56.92)" fill="#7d868c"/><rect width="0.94" height="6.7" transform="translate(74.15 49.69)" fill="#7d868c"/><rect width="0.94" height="6.7" transform="translate(74.15 58.39)" fill="#7d868c"/><rect width="6.7" height="0.94" transform="translate(93.02 56.92)" fill="#7d868c"/><rect width="0.94" height="6.7" transform="translate(91.55 49.69)" fill="#7d868c"/><rect width="0.94" height="6.7" transform="translate(91.55 58.39)" fill="#7d868c"/><rect width="6.71" height="0.94" transform="translate(84.32 56.92)" fill="#7d868c"/><rect width="6.71" height="0.94" transform="translate(101.72 56.92)" fill="#7d868c"/><rect width="0.94" height="15.4" transform="translate(108.95 58.39)" fill="#7d868c"/><rect width="0.94" height="15.41" transform="translate(108.95 40.99)" fill="#7d868c"/><rect width="6.7" height="0.94" transform="translate(6.01 74.32)" fill="#7d868c"/><rect width="0.94" height="6.7" transform="translate(4.54 67.09)" fill="#7d868c"/><rect width="6.71" height="0.94" transform="translate(14.71 74.32)" fill="#7d868c"/><rect width="6.7" height="0.94" transform="translate(23.41 74.32)" fill="#7d868c"/><rect width="0.94" height="6.7" transform="translate(21.94 67.09)" fill="#7d868c"/><rect width="6.71" height="0.94" transform="translate(32.11 74.32)" fill="#7d868c"/><rect width="6.7" height="0.94" transform="translate(40.81 74.32)" fill="#7d868c"/><rect width="0.94" height="6.7" transform="translate(39.34 67.09)" fill="#7d868c"/><rect width="6.71" height="0.94" transform="translate(49.51 74.32)" fill="#7d868c"/><rect width="0.94" height="6.7" transform="translate(56.75 67.09)" fill="#7d868c"/><rect width="6.7" height="0.94" transform="translate(58.21 74.32)" fill="#7d868c"/><rect width="0.94" height="6.7" transform="translate(74.15 67.09)" fill="#7d868c"/><rect width="6.7" height="0.94" transform="translate(75.62 74.32)" fill="#7d868c"/><rect width="6.71" height="0.94" transform="translate(66.92 74.32)" fill="#7d868c"/><rect width="0.94" height="6.7" transform="translate(91.55 67.09)" fill="#7d868c"/><rect width="6.7" height="0.94" transform="translate(93.02 74.32)" fill="#7d868c"/><rect width="6.71" height="0.94" transform="translate(84.32 74.32)" fill="#7d868c"/><rect width="6.71" height="0.94" transform="translate(101.72 74.32)" fill="#7d868c"/><path d="M135.85,39.52H110.43v.94h32.13v-.94h-6.71Z" fill="#7d868c"/><rect width="31.97" height="0.94" transform="translate(110.43 74.32)" fill="#7d868c"/><rect width="32.79" height="0.94" transform="translate(144.45 4.74)" fill="#7d868c"/><rect width="0.94" height="32.81" transform="translate(177.29 41.01)" fill="#7d868c"/><rect width="0.94" height="32.81" transform="translate(177.29 6.21)" fill="#7d868c"/><path d="M170.05,39.54h-25.6v.94h32.31v-.94h-6.71Z" fill="#7d868c"/><rect width="31.97" height="0.94" transform="translate(144.45 74.34)" fill="#7d868c"/><rect width="32.79" height="0.94" transform="translate(178.7 4.74)" fill="#7d868c"/><rect width="0.94" height="32.81" transform="translate(211.53 41.01)" fill="#7d868c"/><rect width="0.94" height="32.81" transform="translate(211.53 6.21)" fill="#7d868c"/><path d="M204.3,39.54H178.7v.94H211v-.94h-6.7Z" fill="#7d868c"/><rect width="31.97" height="0.94" transform="translate(178.7 74.34)" fill="#7d868c"/><rect width="32.79" height="0.94" transform="translate(212.95 4.74)" fill="#7d868c"/><rect width="0.94" height="32.81" transform="translate(245.78 6.21)" fill="#7d868c"/><rect width="0.94" height="32.81" transform="translate(245.78 41.01)" fill="#7d868c"/><path d="M238.55,39.54h-25.6v.94h32.3v-.94h-6.7Z" fill="#7d868c"/><rect width="31.97" height="0.94" transform="translate(212.95 74.34)" fill="#7d868c"/><rect width="32.79" height="0.94" transform="translate(247.19 4.74)" fill="#7d868c"/><rect width="31.97" height="0.94" transform="translate(247.19 74.34)" fill="#7d868c"/><rect width="32.79" height="0.94" transform="translate(281.44 4.74)" fill="#7d868c"/><rect width="31.97" height="0.94" transform="translate(281.44 74.34)" fill="#7d868c"/><rect width="32.79" height="0.94" transform="translate(315.69 4.74)" fill="#7d868c"/><rect width="0.94" height="32.81" transform="translate(348.52 41.01)" fill="#7d868c"/><rect width="0.94" height="32.81" transform="translate(348.52 6.21)" fill="#7d868c"/><rect width="31.97" height="0.94" transform="translate(315.69 74.34)" fill="#7d868c"/></g><path d="M240.39,46.52l-.7-.71L218.23,67.27V55.57h-1V69h13.44V68H218.91Z" fill="#00c1de"/><path d="M206.67,46.52l-.7-.71L184.52,67.27V55.57h-1V69h13.43V68H185.19Z" fill="#00c1de"/><path d="M172.18,46.52l-.7-.71L150.03,67.27V55.57h-1V69h13.43V68H150.7Z" fill="#00c1de"/><line x2="11.9" y2="11.9" transform="translate(60 60.11)" fill="#fff" stroke="#00c1de" stroke-miterlimit="10" stroke-width="1"/><path d="M65,72.02h6.9V65.13" fill="none" stroke="#00c1de" stroke-miterlimit="10" stroke-width="1"/><line x2="11.89" y2="11.9" transform="translate(42.53 60.11)" fill="#fff" stroke="#00c1de" stroke-miterlimit="10" stroke-width="1"/><path d="M47.53,72.02h6.89V65.13" fill="none" stroke="#00c1de" stroke-miterlimit="10" stroke-width="1"/><line x2="11.89" y2="11.9" transform="translate(25.06 60.11)" fill="#fff" stroke="#00c1de" stroke-miterlimit="10" stroke-width="1"/><path d="M30.06,72.02h6.89V65.13" fill="none" stroke="#00c1de" stroke-miterlimit="10" stroke-width="1"/><line x2="11.89" y2="11.89" transform="translate(7.59 60.15)" fill="#fff" stroke="#00c1de" stroke-miterlimit="10" stroke-width="1"/><path d="M12.59,72.06h6.89v-6.9" fill="none" stroke="#00c1de" stroke-miterlimit="10" stroke-width="1"/><line x2="11.9" y2="11.89" transform="translate(60 42.67)" fill="#fff" stroke="#00c1de" stroke-miterlimit="10" stroke-width="1"/><path d="M65,54.58h6.9v-6.9" fill="none" stroke="#00c1de" stroke-miterlimit="10" stroke-width="1"/><line x2="11.89" y2="11.89" transform="translate(42.53 42.67)" fill="#fff" stroke="#00c1de" stroke-miterlimit="10" stroke-width="1"/><path d="M47.53,54.58h6.89v-6.9" fill="none" stroke="#00c1de" stroke-miterlimit="10" stroke-width="1"/><line x2="11.89" y2="11.89" transform="translate(25.06 42.67)" fill="#fff" stroke="#00c1de" stroke-miterlimit="10" stroke-width="1"/><path d="M30.06,54.58h6.89v-6.9" fill="none" stroke="#00c1de" stroke-miterlimit="10" stroke-width="1"/><line x2="11.89" y2="11.9" transform="translate(7.59 42.7)" fill="#fff" stroke="#00c1de" stroke-miterlimit="10" stroke-width="1"/><path d="M12.59,54.61h6.89V47.72" fill="none" stroke="#00c1de" stroke-miterlimit="10" stroke-width="1"/><line x2="11.9" y2="11.9" transform="translate(60 25.22)" fill="#fff" stroke="#00c1de" stroke-miterlimit="10" stroke-width="1"/><path d="M65,37.13h6.9V30.24" fill="none" stroke="#00c1de" stroke-miterlimit="10" stroke-width="1"/><line x2="11.89" y2="11.9" transform="translate(42.53 25.22)" fill="#fff" stroke="#00c1de" stroke-miterlimit="10" stroke-width="1"/><path d="M47.53,37.13h6.89V30.24" fill="none" stroke="#00c1de" stroke-miterlimit="10" stroke-width="1"/><line x2="11.89" y2="11.9" transform="translate(25.06 25.22)" fill="#fff" stroke="#00c1de" stroke-miterlimit="10" stroke-width="1"/><path d="M30.06,37.13h6.89V30.24" fill="none" stroke="#00c1de" stroke-miterlimit="10" stroke-width="1"/><line x2="11.89" y2="11.89" transform="translate(7.59 25.26)" fill="#fff" stroke="#00c1de" stroke-miterlimit="10" stroke-width="1"/><path d="M12.59,37.17h6.89v-6.9" fill="none" stroke="#00c1de" stroke-miterlimit="10" stroke-width="1"/><line x2="11.9" y2="11.89" transform="translate(60 7.78)" fill="#fff" stroke="#00c1de" stroke-miterlimit="10" stroke-width="1"/><path d="M65,19.69h6.9v-6.9" fill="none" stroke="#00c1de" stroke-miterlimit="10" stroke-width="1"/><line x2="11.89" y2="11.89" transform="translate(42.53 7.78)" fill="#fff" stroke="#00c1de" stroke-miterlimit="10" stroke-width="1"/><path d="M47.53,19.69h6.89v-6.9" fill="none" stroke="#00c1de" stroke-miterlimit="10" stroke-width="1"/><line x2="11.89" y2="11.89" transform="translate(25.06 7.78)" fill="#fff" stroke="#00c1de" stroke-miterlimit="10" stroke-width="1"/><path d="M30.06,19.69h6.89v-6.9" fill="none" stroke="#00c1de" stroke-miterlimit="10" stroke-width="1"/><line x2="11.89" y2="11.89" transform="translate(7.59 7.82)" fill="#fff" stroke="#00c1de" stroke-miterlimit="10" stroke-width="1"/><path d="M12.59,19.72h6.89V12.83" fill="none" stroke="#00c1de" stroke-miterlimit="10" stroke-width="1"/><path d="M313.8,11.21H281.05a1.6,1.6,0,0,0-1.6,1.6v54.4a1.6,1.6,0,0,0,1.6,1.6H313.8a1.6,1.6,0,0,0,1.6-1.6V12.81A1.6,1.6,0,0,0,313.8,11.21Zm-9.98,1.71-1,2.41a.705.705,0,0,1-.6.48h-9.6a.705.705,0,0,1-.6-.48l-1-2.41h12.8Zm9.87,54.19H281.15V12.91h8.03l1.27,3.06a2.4,2.4,0,0,0,2.17,1.54h9.6a2.378,2.378,0,0,0,2.17-1.54l1.27-3.06h8.03V67.1ZM298.28,34.83h-1.73V31.37h1.73Zm0,13.82h-1.73V45.19h1.73Zm4.32-7.78V39.14h3.46v1.73Zm-13.82,0V39.14h3.46v1.73Zm12.92-3.92-1.22-1.22,2.44-2.44,1.22,1.22Zm-9.78,9.78-1.22-1.22,2.44-2.44,1.22,1.22Zm8.55-2.44,1.22-1.22,2.44,2.44-1.22,1.22Zm-9.78-9.78,1.22-1.22,2.44,2.44-1.22,1.22Z" fill="url(#b)"/></g></g></svg>