<svg id="Layer_1" data-name="Layer 1" xmlns="http://www.w3.org/2000/svg" width="63" height="63" viewBox="0 0 63 63"><defs><style>.cls-1{fill:#333e48;}</style></defs><title>Arm_icon_DesginStart</title><path class="cls-1" d="M56.55,23.15a2.09,2.09,0,0,0,2.09-2.09V19.9h4.17V17.82H58.64v-.93a2.09,2.09,0,0,0-2.09-2.09H52.37V12.71a2.08,2.08,0,0,0-2.08-2.08H48.2V6.45a2.1,2.1,0,0,0-2.09-2.09H45V.19H42.86V4.36h-.92a2.09,2.09,0,0,0-2.09,2.09v4.18H35.67V6.45a2.09,2.09,0,0,0-2.08-2.09H32.43V.19H30.34V4.36h-.93a2.09,2.09,0,0,0-2.08,2.09v4.18H23.15V6.45a2.09,2.09,0,0,0-2.09-2.09H19.9V.19H17.82V4.36h-.93A2.1,2.1,0,0,0,14.8,6.45v4.18H12.71a2.08,2.08,0,0,0-2.08,2.08V14.8H6.45a2.09,2.09,0,0,0-2.09,2.09v1.16H.19v2.09H4.36v.92a2.09,2.09,0,0,0,2.09,2.09h4.18v4.18H6.45a2.09,2.09,0,0,0-2.09,2.08v1.16H.19v2.09H4.36v.93a2.09,2.09,0,0,0,2.09,2.08h4.18v3.95H6.45a2.09,2.09,0,0,0-2.09,2.09v1.15H.19V45H4.36v.93A2.1,2.1,0,0,0,6.45,48h4.18v2.32a2.08,2.08,0,0,0,2.08,2.08H14.8v4.18a2.1,2.1,0,0,0,2.09,2.09h1.16v4.17h2.09V58.64h.92a2.09,2.09,0,0,0,2.09-2.09V52.37h4.18v4.18a2.09,2.09,0,0,0,2.08,2.09h1.16v4.17h2.09V58.64h.93a2.09,2.09,0,0,0,2.08-2.09V52.37h4.18v4.18a2.09,2.09,0,0,0,2.09,2.09H43.1v4.17h2.08V58.64h.93a2.1,2.1,0,0,0,2.09-2.09V52.37h2.09a2.08,2.08,0,0,0,2.08-2.08V48.2h4.18a2.09,2.09,0,0,0,2.09-2.09V45h4.17V42.86H58.64v-.92a2.09,2.09,0,0,0-2.09-2.09H52.37V35.67h4.18a2.09,2.09,0,0,0,2.09-2.08V32.43h4.17V30.34H58.64v-.93a2.09,2.09,0,0,0-2.09-2.08H52.37V23.15Zm0-2.09H52.37V16.89h4.18ZM41.94,6.45h4.17v4.18H41.94Zm-12.53,0h4.18v4.18H29.41Zm-12.52,0h4.17v4.18H16.89ZM6.45,16.89h4.18v4.17H6.45Zm0,12.52h4.18v4.18H6.45Zm0,12.3h4.18v4.17H6.45ZM21.06,56.55H16.89V52.37h4.17Zm12.53,0H29.41V52.37h4.18Zm12.52,0H41.94V52.37h4.17ZM56.55,46.11H52.37V41.94h4.18Zm0-12.52H52.37V29.41h4.18Zm-6.26,16.7H12.71V12.71H50.29Z"/><path class="cls-1" d="M45.33,63H43V58.79h-1a2.24,2.24,0,0,1-2.24-2.24v-4H35.83v4a2.25,2.25,0,0,1-2.24,2.24h-.78V63H30.42V58.79h-1a2.25,2.25,0,0,1-2.24-2.24v-4H23.3v4a2.24,2.24,0,0,1-2.24,2.24h-.77V63H17.9V58.79h-1a2.24,2.24,0,0,1-2.24-2.24v-4H12.71a2.23,2.23,0,0,1-2.23-2.23V48.12h-4a2.25,2.25,0,0,1-2.24-2.24V45.1H0V42.71H4.21v-1a2.24,2.24,0,0,1,2.24-2.24h4V35.83h-4a2.25,2.25,0,0,1-2.24-2.24v-.78H0V30.42H4.21v-1a2.25,2.25,0,0,1,2.24-2.24h4V23.3h-4a2.24,2.24,0,0,1-2.24-2.24v-.77H0V17.9H4.21v-1a2.24,2.24,0,0,1,2.24-2.24h4V12.71a2.23,2.23,0,0,1,2.23-2.23h1.94v-4a2.24,2.24,0,0,1,2.24-2.24h.78V0h2.38V4.21h1A2.24,2.24,0,0,1,23.3,6.45v4h3.87v-4a2.25,2.25,0,0,1,2.24-2.24h.78V0h2.39V4.21h1a2.25,2.25,0,0,1,2.24,2.24v4H39.7v-4a2.24,2.24,0,0,1,2.24-2.24h.77V0H45.1V4.21h1a2.24,2.24,0,0,1,2.24,2.24v4h1.94a2.23,2.23,0,0,1,2.23,2.23v1.94h4a2.24,2.24,0,0,1,2.24,2.24v.78H63v2.38H58.79v1a2.24,2.24,0,0,1-2.24,2.24h-4v3.87h4a2.25,2.25,0,0,1,2.24,2.24v.78H63v2.39H58.79v1a2.25,2.25,0,0,1-2.24,2.24h-4V39.7h4a2.24,2.24,0,0,1,2.24,2.24v.77H63V45.1H58.79v1a2.24,2.24,0,0,1-2.24,2.24h-4v1.94a2.23,2.23,0,0,1-2.23,2.23H48.35v4a2.24,2.24,0,0,1-2.24,2.24h-.78Zm-2.08-.3H45V58.49h1.08a1.94,1.94,0,0,0,1.94-1.94V52.22h2.24a1.92,1.92,0,0,0,1.93-1.93V48.05h4.33a1.94,1.94,0,0,0,1.94-1.94V44.8h4.17V43H58.49V41.94A1.94,1.94,0,0,0,56.55,40H52.22V35.52h4.33a1.93,1.93,0,0,0,1.94-1.93V32.28h4.17V30.49H58.49V29.41a1.93,1.93,0,0,0-1.94-1.93H52.22V23h4.33a1.94,1.94,0,0,0,1.94-1.94V19.75h4.17V18H58.49V16.89A1.94,1.94,0,0,0,56.55,15H52.22V12.71a1.92,1.92,0,0,0-1.93-1.93H48.05V6.45a1.94,1.94,0,0,0-1.94-1.94H44.8V.34H43V4.51H41.94A1.94,1.94,0,0,0,40,6.45v4.33H35.52V6.45a1.93,1.93,0,0,0-1.93-1.94H32.28V.34H30.49V4.51H29.41a1.93,1.93,0,0,0-1.93,1.94v4.33H23V6.45a1.94,1.94,0,0,0-1.94-1.94H19.75V.34H18V4.51H16.89A1.94,1.94,0,0,0,15,6.45v4.33H12.71a1.92,1.92,0,0,0-1.93,1.93V15H6.45a1.94,1.94,0,0,0-1.94,1.94V18.2H.34V20H4.51v1.08A1.94,1.94,0,0,0,6.45,23h4.33v4.48H6.45a1.93,1.93,0,0,0-1.94,1.93v1.31H.34v1.79H4.51v1.08a1.93,1.93,0,0,0,1.94,1.93h4.33v4.25H6.45a1.94,1.94,0,0,0-1.94,1.94V43H.34V44.8H4.51v1.08a1.94,1.94,0,0,0,1.94,1.94h4.33v2.47a1.92,1.92,0,0,0,1.93,1.93H15v4.33a1.94,1.94,0,0,0,1.94,1.94H18.2v4.17H20V58.49h1.08A1.94,1.94,0,0,0,23,56.55V52.22h4.48v4.33a1.93,1.93,0,0,0,1.93,1.94h1.31v4.17h1.79V58.49h1.08a1.93,1.93,0,0,0,1.93-1.94V52.22H40v4.33a1.94,1.94,0,0,0,1.94,1.94h1.31Zm3-6H41.79V52.22h4.47Zm-4.17-.3H46V52.52H42.09Zm-8.35.3H29.26V52.22h4.48Zm-4.18-.3h3.88V52.52H29.56Zm-8.35.3H16.74V52.22h4.47ZM17,56.4h3.87V52.52H17Zm33.4-6H12.56V12.56H50.44Zm-37.58-.3H50.14V12.86H12.86ZM56.7,46.26H52.22V41.79H56.7ZM52.52,46H56.4V42.09H52.52ZM10.78,46H6.3V41.55h4.48Zm-4.18-.3h3.88V41.86H6.6Zm50.1-12H52.22V29.26H56.7Zm-4.18-.3H56.4V29.56H52.52Zm-41.74.3H6.3V29.26h4.48Zm-4.18-.3h3.88V29.56H6.6ZM56.7,21.21H52.22V16.74H56.7Zm-4.18-.3H56.4V17H52.52Zm-41.74.3H6.3V16.74h4.48Zm-4.18-.3h3.88V17H6.6ZM46.26,10.78H41.79V6.3h4.47Zm-4.17-.3H46V6.6H42.09Zm-8.35.3H29.26V6.3h4.48Zm-4.18-.3h3.88V6.6H29.56Zm-8.35.3H16.74V6.3h4.47ZM17,10.48h3.87V6.6H17Z"/><path class="cls-1" d="M41.22,27.57l-.07-.16a3.06,3.06,0,0,0,0-4.26l-1.27-1.26a3,3,0,0,0-4.25-.05l-.16-.06a3.06,3.06,0,0,0-3-3H30.62a3.06,3.06,0,0,0-3,3l-.17.07A3.06,3.06,0,0,0,25.3,21a3,3,0,0,0-2.14.88l-1.27,1.27a3.06,3.06,0,0,0-.05,4.25l-.06.15a3,3,0,0,0-3,3v1.79a3,3,0,0,0,3,3l.07.16a3,3,0,0,0,0,4.25l1.26,1.26a3.06,3.06,0,0,0,4.26,0l.16.06a3,3,0,0,0,.88,2.08,3,3,0,0,0,2.17.9h1.79a3.05,3.05,0,0,0,3-3l.15-.06a3,3,0,0,0,4.24,0l1.27-1.26a3.06,3.06,0,0,0,0-4.26l.07-.16a3,3,0,0,0,3-3V30.61A3,3,0,0,0,41.22,27.57Zm-5.1-3.07,1-1a.81.81,0,0,1,1.12,0l1.26,1.26a.79.79,0,0,1,0,1.12l-1,1,1.18,2.86,0,.08h1.44a.79.79,0,0,1,.79.79v1.78a.79.79,0,0,1-.79.79H39.71L38.5,36.12l1,1a.82.82,0,0,1,0,1.13L38.3,39.48l0,0a.81.81,0,0,1-1.12,0l-1-1-2.85,1.18-.08,0v1.44a.79.79,0,0,1-.79.79H30.6a.79.79,0,0,1-.56-.23.78.78,0,0,1-.22-.56V39.71L26.88,38.5l-1,1h0l0,.06a.81.81,0,0,1-1.12,0l-1.26-1.26a.81.81,0,0,1,0-1.12l1-1-1.18-2.86,0-.08H21.85a.79.79,0,0,1-.79-.79V30.6a.79.79,0,0,1,.79-.79h1.44l1.21-2.93-1-1a.81.81,0,0,1,0-1.12l1.26-1.26a.82.82,0,0,1,1.13,0l1,1,2.87-1.18.08,0V21.85a.8.8,0,0,1,.79-.79h1.79a.79.79,0,0,1,.77.79v1.43Zm-3.69-5.57Z"/><path class="cls-1" d="M28.27,27.3a5.3,5.3,0,0,0,3.23,9.5,5.31,5.31,0,0,0,5.25-4.61,5.27,5.27,0,0,0-1-3.91,5.05,5.05,0,0,0-1-1,5.32,5.32,0,0,0-6.45,0Zm5.08,6.62a3,3,0,0,1-1.85.63,3,3,0,1,1,0-6.09,3,3,0,0,1,1.85.62,3.35,3.35,0,0,1,.56.57A3,3,0,0,1,33.35,33.92Z"/></svg>