<svg id="Layer_1" data-name="Layer 1" xmlns="http://www.w3.org/2000/svg" width="63" height="63" viewBox="0 0 63 63"><defs><style>.cls-1{fill:#333e48;}</style></defs><title>Arm_icon_Tools_Software</title><path class="cls-1" d="M60.73,10V52.69a.75.75,0,0,1,0,.24H2.31a.75.75,0,0,1,0-.24V10H60.73M63,7.7H0v45A2.34,2.34,0,0,0,2.11,55.2H60.89A2.34,2.34,0,0,0,63,52.69V7.7Z"/><circle class="cls-1" cx="6.12" cy="12.54" r="1.47"/><circle class="cls-1" cx="10.94" cy="12.54" r="1.47"/><circle class="cls-1" cx="15.77" cy="12.54" r="1.47"/><path class="cls-1" d="M9.44,35.13a5.11,5.11,0,0,1-.64.27,4.76,4.76,0,0,1-.74.2c.27.06.51.13.74.2a3.69,3.69,0,0,1,.64.29l6.8,3.43a1.13,1.13,0,0,1,.43.35.88.88,0,0,1,.11.42v1.94L5.08,36.16V35L16.8,29v1.92a.77.77,0,0,1-.11.45,1.06,1.06,0,0,1-.42.34Z"/><path class="cls-1" d="M58.38,35v1.12L46.7,42.25V40.31a.76.76,0,0,1,.12-.42,1,1,0,0,1,.42-.35L54,36.09a3.79,3.79,0,0,1,.65-.29c.22-.07.46-.14.71-.2A5.48,5.48,0,0,1,54,35.13l-6.8-3.45a.94.94,0,0,1-.42-.34.73.73,0,0,1-.12-.45V29Z"/><path class="cls-1" d="M32.59,25.59a.86.86,0,0,1,.84.86v1.26L36,28.79l.9-.9a.9.9,0,0,1,.61-.25.86.86,0,0,1,.6.25l1.18,1.18a.86.86,0,0,1,0,1.22l-.89.89,1.07,2.61h1.27a.86.86,0,0,1,.86.86v1.67a.86.86,0,0,1-.86.86H39.51l-1.08,2.6.9.9a.86.86,0,0,1,0,1.21l-1.18,1.18h0a.87.87,0,0,1-1.22,0l-.88-.89-2.6,1.07v1.27a.87.87,0,0,1-.86.86H30.9a.85.85,0,0,1-.85-.86V43.25l-2.61-1.08-.89.9h0a.87.87,0,0,1-1.22,0l-1.18-1.18a.88.88,0,0,1,0-1.22l.9-.89L24,37.18H22.71a.86.86,0,0,1-.86-.86V34.65a.85.85,0,0,1,.86-.86H24l1.08-2.61-.9-.88a.88.88,0,0,1,0-1.22l1.18-1.18a.87.87,0,0,1,1.22,0l.89.9,2.62-1.08V26.45a.86.86,0,0,1,.86-.86h1.67m-.85,14.74a4.84,4.84,0,0,0,3.84-7.79,4.69,4.69,0,0,0-.89-.89,4.84,4.84,0,1,0-2.95,8.68m.87-16.61H30.92a2.74,2.74,0,0,0-2.73,2.73h0l-.31.13h0a2.7,2.7,0,0,0-1.93-.8,2.73,2.73,0,0,0-1.93.79l-1.18,1.19a2.74,2.74,0,0,0,0,3.86h0l-.12.29h0A2.74,2.74,0,0,0,20,34.65v1.67a2.74,2.74,0,0,0,2.74,2.73h0l.12.29h0a2.74,2.74,0,0,0,0,3.86L24,44.39a2.73,2.73,0,0,0,3.86,0h0l.29.12v0a2.75,2.75,0,0,0,2.72,2.73h1.7a2.74,2.74,0,0,0,2.73-2.73v0l.28-.11a2.75,2.75,0,0,0,3.87,0l1.18-1.18a2.74,2.74,0,0,0,0-3.86v0l.12-.29h0a2.73,2.73,0,0,0,2.73-2.73V34.65a2.73,2.73,0,0,0-2.73-2.73h0l-.12-.29v0a2.74,2.74,0,0,0,0-3.86l-1.18-1.18a2.72,2.72,0,0,0-1.93-.8,2.68,2.68,0,0,0-1.93.8h0l-.29-.12h0a2.75,2.75,0,0,0-2.67-2.73Zm-.87,14.73a3,3,0,1,1,1.81-5.32,2.81,2.81,0,0,1,.54.55,3,3,0,0,1-.54,4.16,3,3,0,0,1-1.81.61Z"/><rect class="cls-1" x="1.11" y="15.29" width="61.89" height="2.25"/></svg>