<svg id="Layer_1" data-name="Layer 1" xmlns="http://www.w3.org/2000/svg" width="150" height="150" viewBox="0 0 150 150"><defs><style>.cls-1{fill:#333e48;}</style></defs><title>Artboard 1</title><path class="cls-1" d="M134.54,58.47v-.39l-14.34-6V21.66a5.61,5.61,0,0,0-5.62-5.59H35.43a5.61,5.61,0,0,0-5.62,5.59V52L16.43,58l0,0,0,0-.18.09v.33L0,94.31l16.17-9.58v29.48l57.39,25.67,61-25.63V84.8l15.32,9.38ZM16.19,79.32l-5.88,3.49,5.88-13Zm110-19.71-6,2.46v-5ZM34.77,21.66a.65.65,0,0,1,.66-.63h79.15a.63.63,0,0,1,.65.63V64.12l-13.82,5.71-12,5L77.48,79.7l-3.85,1.59-1.11-.48-13.7-6-11.3-5L34.77,64.22V21.66Zm-5,35.46V62l-5.56-2.43Zm41.47,76.63L20.84,111.2v-48l9,3.94,5,2.19,1.17.51,11.29,5L66,83l5.27,2.31v48.41Zm58.61-22.59-54,22.68V85.38L81.63,83l20-8.24,12-5,1.63-.68,5-2.05,9.69-4Zm4.65-40.89,5.28,12.31-5.28-3.23Z"/><path class="cls-1" d="M79.12,55.06a6.58,6.58,0,0,0,6.59-6.56V42.35a6.59,6.59,0,0,0-11.35-4.52,6.49,6.49,0,0,0-1.84,4.52V48.5A6.59,6.59,0,0,0,79.12,55.06Zm1.64-6.56a1.44,1.44,0,0,1-.14.62,1.63,1.63,0,0,1-1.5,1,1.61,1.61,0,0,1-1.64-1.6V42.35a1.59,1.59,0,0,1,.28-.89,1.65,1.65,0,0,1,3,.89Z"/><polygon class="cls-1" points="109.42 52.56 109.42 47.52 109.42 35.8 104.45 35.8 104.45 45.43 104.45 50.48 104.45 55.06 109.42 55.06 109.42 52.56"/><polygon class="cls-1" points="65.63 41.1 65.63 36.01 65.63 35.8 60.67 35.8 60.67 38.22 60.67 43.32 60.67 55.06 65.63 55.06 65.63 41.1"/><polygon class="cls-1" points="97.56 47.58 97.56 42.54 97.56 35.8 92.61 35.8 92.61 40.45 92.61 45.5 92.61 55.06 97.56 55.06 97.56 47.58"/><path class="cls-1" d="M47.19,55.06a6.57,6.57,0,0,0,6.58-6.56V42.35a6.77,6.77,0,0,0-.08-1,6.59,6.59,0,0,0-13.1,1V48.5a6.51,6.51,0,0,0,.95,3.38A6.6,6.6,0,0,0,47.19,55.06ZM45.54,42.35a1.65,1.65,0,0,1,3-.89,1.59,1.59,0,0,1,.28.89V48.5a.69.69,0,0,1,0,.13,1.62,1.62,0,0,1-2.58,1.15,1.51,1.51,0,0,1-.58-.78,1.39,1.39,0,0,1-.09-.5V45h0Z"/></svg>