<svg id="Software_Developer" data-name="Software Developer" xmlns="http://www.w3.org/2000/svg" viewBox="0 0 447.63 45.51"><defs><style>.cls-1{fill:#008fbe;}.cls-2{isolation:isolate;}.cls-3{fill:#fff;}</style></defs><path class="cls-1" d="M9.65,21.16c0,4.85,3.06,8.9,7.77,8.9,4.12,0,7.91-3,7.91-8.84,0-6.11-3.79-9-7.91-9-4.72,0-7.77,4-7.77,9M24.93,7.14h6.51v28H24.93V32.22A10.75,10.75,0,0,1,16.59,36C8,36,3,28.77,3,21.07,3,12,9.28,6.39,16.66,6.39a10.19,10.19,0,0,1,8.3,4Z"/><path class="cls-1" d="M39.19,7.08H45.7V9.6a11.24,11.24,0,0,1,2.72-2.33,7.45,7.45,0,0,1,4-.93,9.68,9.68,0,0,1,5.12,1.33l-2.66,5.91a5.86,5.86,0,0,0-3.32-1,5.07,5.07,0,0,0-4.05,1.53c-1.79,1.93-1.79,4.58-1.79,6.44v14.5H39.19Z"/><path class="cls-1" d="M61.73,7.08h6.51V9.67a8.62,8.62,0,0,1,6.91-3.32,8.22,8.22,0,0,1,7.24,4.12,9.92,9.92,0,0,1,8.3-4.12,9,9,0,0,1,8,4.38c.53.93,1.46,3,1.46,7V35.05H93.59V19.64c0-3.12-.33-4.38-.6-5a3.69,3.69,0,0,0-3.72-2.46,4.81,4.81,0,0,0-3.85,2.06c-1.13,1.59-1.26,4-1.26,6.38V35.05H77.65V19.64c0-3.12-.33-4.38-.6-5a3.69,3.69,0,0,0-3.72-2.46,4.81,4.81,0,0,0-3.85,2.06c-1.13,1.59-1.26,4-1.26,6.38V35.05H61.71Z"/><g class="cls-2"><path class="cls-3" d="M127,12.54a6.69,6.69,0,0,0-1.64-2.1,5,5,0,0,0-3.15-1c-2.77,0-4.7,1.72-4.7,4.33a2.91,2.91,0,0,0,1,2.43A9.13,9.13,0,0,0,121.53,18l2.69,1.17a13.65,13.65,0,0,1,4.32,2.65,6.75,6.75,0,0,1,2,5.08c0,5.17-3.82,8.61-8.86,8.61a8.37,8.37,0,0,1-6.1-2.26,10.25,10.25,0,0,1-2.6-5l3-.84A6.61,6.61,0,0,0,117.71,31a5.74,5.74,0,0,0,9.66-4A4.19,4.19,0,0,0,126,23.75a12.36,12.36,0,0,0-3.36-1.93l-2.52-1.18a12.31,12.31,0,0,1-3.74-2.31,5.8,5.8,0,0,1-1.93-4.58c0-4.32,3.32-7.22,7.85-7.22a7.63,7.63,0,0,1,4.5,1.26,8.45,8.45,0,0,1,2.73,3.11Z"/><path class="cls-3" d="M134,26.36a9.24,9.24,0,0,1,18.48,0,9.24,9.24,0,0,1-18.48,0Zm3.11,0c0,4.28,3,6.47,6.13,6.47a6,6,0,0,0,6.13-6.47c0-4.29-2.94-6.52-6.13-6.52S137.11,22.11,137.11,26.36Z"/><path class="cls-3" d="M159.79,20.35V35h-3V20.35h-1.68V17.58h1.68V10c0-1.59.13-3.61,1.68-4.91a5.4,5.4,0,0,1,3.49-1.14,5.93,5.93,0,0,1,2.14.38V7.24a5.5,5.5,0,0,0-2-.37,2.1,2.1,0,0,0-1.93.92,5.2,5.2,0,0,0-.38,2.52v7.27h4.28v2.77Z"/><path class="cls-3" d="M170.29,20.35V35h-3V20.35h-1.85V17.58h1.85v-6.3h3v6.3h3v2.77Z"/><path class="cls-3" d="M177.89,17.58l5.16,11.84,5.47-13.19,5.41,13.19,5.21-11.84h3.36l-8.65,18.65-5.38-13-5.37,13-8.57-18.65Z"/><path class="cls-3" d="M218.63,17.58h3V35h-3V32.57a7.34,7.34,0,0,1-6,2.94c-4.41,0-8.48-3.1-8.48-9.24s4-9.11,8.48-9.11a7.23,7.23,0,0,1,6,2.89Zm-11.34,8.69c0,3.74,2.1,6.56,5.71,6.56s5.8-3.07,5.8-6.52c0-4.49-3.11-6.47-5.8-6.47C210,19.84,207.29,22,207.29,26.27Z"/><path class="cls-3" d="M226.94,17.58h3v1.89a4.81,4.81,0,0,1,3.95-2.31,6.31,6.31,0,0,1,2.68.71l-1.42,2.73a3.17,3.17,0,0,0-1.77-.59,2.94,2.94,0,0,0-2.44,1.1c-.5.67-1,1.84-1,4.7V35h-3Z"/><path class="cls-3" d="M253.41,30.56a10.53,10.53,0,0,1-2.15,2.81,8.43,8.43,0,0,1-5.79,2.14c-4.2,0-8.62-2.64-8.62-9.11,0-5.21,3.2-9.24,8.45-9.24a7.8,7.8,0,0,1,6.59,3.19,11.57,11.57,0,0,1,1.64,6.55H240c0,3.61,2.52,5.93,5.55,5.93a5.3,5.3,0,0,0,3.57-1.26,7.05,7.05,0,0,0,1.81-2.4Zm-3-6.18a5.21,5.21,0,0,0-5.12-4.54,5.32,5.32,0,0,0-5.13,4.54Z"/><path class="cls-3" d="M267.85,7h5.71a15.26,15.26,0,0,1,10.34,3.28A13.66,13.66,0,0,1,288.69,21a13.36,13.36,0,0,1-4.92,10.76C281.21,34,278.52,35,273.52,35h-5.67ZM271,32.07h2.73a12,12,0,0,0,8-2.52A10.74,10.74,0,0,0,285.49,21c0-6.72-4.7-11.09-11.8-11.09H271Z"/><path class="cls-3" d="M308.68,30.56a10.53,10.53,0,0,1-2.15,2.81,8.43,8.43,0,0,1-5.79,2.14c-4.2,0-8.61-2.64-8.61-9.11,0-5.21,3.19-9.24,8.44-9.24a7.8,7.8,0,0,1,6.59,3.19,11.57,11.57,0,0,1,1.64,6.55H295.23c0,3.61,2.52,5.93,5.55,5.93a5.3,5.3,0,0,0,3.57-1.26,7.05,7.05,0,0,0,1.81-2.4Zm-3-6.18a5.21,5.21,0,0,0-5.12-4.54,5.32,5.32,0,0,0-5.13,4.54Z"/><path class="cls-3" d="M313.84,17.58l5.21,11.76,5.21-11.76h3.36l-8.57,18.56-8.57-18.56Z"/><path class="cls-3" d="M345.85,30.56a10.53,10.53,0,0,1-2.15,2.81,8.43,8.43,0,0,1-5.79,2.14c-4.2,0-8.62-2.64-8.62-9.11,0-5.21,3.2-9.24,8.45-9.24a7.8,7.8,0,0,1,6.59,3.19A11.57,11.57,0,0,1,346,26.9H332.4c.05,3.61,2.52,5.93,5.55,5.93a5.3,5.3,0,0,0,3.57-1.26,7.05,7.05,0,0,0,1.81-2.4Zm-3-6.18a5.21,5.21,0,0,0-5.12-4.54,5.32,5.32,0,0,0-5.13,4.54Z"/><path class="cls-3" d="M353.19,4.39V35h-3V4.39Z"/><path class="cls-3" d="M357.39,26.36a9.25,9.25,0,0,1,18.49,0,9.25,9.25,0,0,1-18.49,0Zm3.11,0a6.14,6.14,0,1,0,12.27,0c0-4.29-2.94-6.52-6.14-6.52S360.5,22.11,360.5,26.36Z"/><path class="cls-3" d="M383.1,44.67h-3V17.58h3V20a7.48,7.48,0,0,1,6-2.85c5.46,0,8.49,4.53,8.49,9.24s-3.07,9.11-8.36,9.11a7.39,7.39,0,0,1-6.09-2.94ZM394.44,26.4c0-4.29-2.9-6.56-5.71-6.56s-5.8,2.32-5.8,6.52c0,3.57,2.27,6.47,5.84,6.47S394.44,29.88,394.44,26.4Z"/><path class="cls-3" d="M417.2,30.56a10.49,10.49,0,0,1-2.14,2.81,8.46,8.46,0,0,1-5.8,2.14c-4.2,0-8.61-2.64-8.61-9.11,0-5.21,3.19-9.24,8.44-9.24a7.8,7.8,0,0,1,6.6,3.19,11.74,11.74,0,0,1,1.64,6.55H403.76c0,3.61,2.52,5.93,5.54,5.93a5.28,5.28,0,0,0,3.57-1.26,7.05,7.05,0,0,0,1.81-2.4Zm-3-6.18a5.22,5.22,0,0,0-5.13-4.54A5.3,5.3,0,0,0,404,24.38Z"/><path class="cls-3" d="M421.52,17.58h3v1.89a4.83,4.83,0,0,1,3.95-2.31,6.39,6.39,0,0,1,2.69.71l-1.43,2.73A3.13,3.13,0,0,0,428,20a2.92,2.92,0,0,0-2.43,1.1c-.51.67-1,1.84-1,4.7V35h-3Z"/><path class="cls-3" d="M440.26,21.61a2.67,2.67,0,0,0-2.44-1.77,1.93,1.93,0,0,0-2.1,2c0,1.26.84,1.64,2.82,2.48,2.52,1.05,3.69,1.85,4.36,2.69a4.09,4.09,0,0,1,.93,2.81c0,3.66-2.65,5.71-6,5.71a6.23,6.23,0,0,1-6.09-4.45L434.34,30c.33.92,1.34,2.86,3.52,2.86a2.71,2.71,0,0,0,2.86-2.78c0-1.63-1.18-2.18-2.81-2.9-2.11-.92-3.45-1.59-4.25-2.56a3.8,3.8,0,0,1-.8-2.56c0-3.07,2.15-4.87,5.09-4.87a5,5,0,0,1,4.79,3.15Z"/></g></svg>