<?xml version="1.0" encoding="UTF-8"?><svg id="AI" xmlns="http://www.w3.org/2000/svg" width="60" height="45" xmlns:xlink="http://www.w3.org/1999/xlink" viewBox="0 0 60 45"><defs><style>.cls-1{fill:url(#linear-gradient-5);}.cls-2{fill:url(#linear-gradient-6);}.cls-3{fill:url(#linear-gradient-4);}.cls-4{fill:url(#linear-gradient-3);}.cls-5{fill:url(#linear-gradient-2);}.cls-6{fill:url(#linear-gradient);}</style><linearGradient id="linear-gradient" x1="8.37" y1="22.55" x2="31.39" y2="22.55" gradientTransform="translate(0 45) scale(1 -1)" gradientUnits="userSpaceOnUse"><stop offset="0" stop-color="#95d600"/><stop offset=".07" stop-color="#88d412"/><stop offset=".53" stop-color="#3fca7e"/><stop offset=".85" stop-color="#11c3c3"/><stop offset="1" stop-color="#00c1de"/></linearGradient><linearGradient id="linear-gradient-2" x1="14.72" y1="27.27" x2="49.64" y2="27.27" xlink:href="#linear-gradient"/><linearGradient id="linear-gradient-3" x1="23.45" y1="35.93" x2="42.5" y2="35.93" xlink:href="#linear-gradient"/><linearGradient id="linear-gradient-4" x1="29.8" y1="19.79" x2="42.5" y2="19.79" xlink:href="#linear-gradient"/><linearGradient id="linear-gradient-5" x1="32.18" y1="5.22" x2="42.5" y2="5.22" xlink:href="#linear-gradient"/><linearGradient id="linear-gradient-6" x1="25.04" y1="12.7" x2="49.64" y2="12.7" xlink:href="#linear-gradient"/></defs><path class="cls-6" d="M29.92,39.06c0,2.41-1.93,3.42-3.58,3.58-2.67.25-5.89-1.4-6.71-5.58,0-2.7,1.48-7.69,6.88-7.69v-1.44c-1.22-.03-2.42.23-3.52.75-1.1.52-2.05,1.29-2.78,2.24-1.23-.31-2.24-1.45-2.24-2.28h-1.47c0,1.42,1.29,2.93,2.9,3.52-.69,1.33-1.08,2.78-1.16,4.27-.83.01-1.64-.15-2.39-.49-.75-.34-1.42-.83-1.95-1.45-1.74-1.92-2.36-4.95-1.98-6.66.03-.12.02-.25-.01-.37-.04-.12-.1-.23-.2-.31-1.48-1.38-2.1-3.66-1.69-6.27.36-2.28,1.51-4.37,2.73-4.96.14-.06.25-.17.32-.3.07-.13.1-.28.09-.43-.13-1.33.21-2.65.96-3.76.75-1.11,1.87-1.93,3.16-2.33.37,4.9,3.83,5.61,7.54,5.61v-1.38c-3.96,0-6.12-.8-6.13-5.03.06-2.07,3.35-6.06,7.07-6.06,1.42,0,2.48.33,3.14.98,1.04,1.02,1.03,2.75,1.03,3.89v.19h1.47v-.18c0-1.29,0-3.47-1.46-4.91-.95-.93-2.35-1.41-4.18-1.41-4.16,0-7.91,3.99-8.5,6.84-1.66.38-3.13,1.31-4.17,2.64-1.03,1.33-1.56,2.98-1.49,4.65-1.48.99-2.69,3.23-3.09,5.78-.45,2.89.22,5.5,1.85,7.22-.14,1.35,0,2.71.41,4,.41,1.29,1.08,2.49,1.97,3.52.67.78,1.51,1.4,2.45,1.82.94.42,1.97.63,3.01.62h.1c1.06,4.17,4.42,6.22,7.54,6.22h.63c2.94-.27,4.92-2.28,4.92-5.02v-4.84h-1.47v4.81Z"/><path class="cls-5" d="M31,16.14v-5.1h-1.47v5.1h-2.18c-1.31-.12-2.33,1.08-3.35,2.25-.25.29-.49.58-.74.84-.61.6-1.38,1-2.22,1.17-.84.17-1.71.09-2.51-.22-.12-.9-.58-1.73-1.28-2.32-.7-.59-1.6-.89-2.52-.85v1.46c.3-.02.6.02.89.12.28.1.54.26.77.46.22.2.4.45.52.72.12.27.19.57.19.87,0,.51-.14,1.02-.42,1.45-.28.43-.69.77-1.16.97l.48,1.36c.59-.23,1.11-.59,1.53-1.06.42-.47.72-1.03.87-1.64.52.17,1.07.25,1.62.25,1.61,0,3.15-.61,4.29-1.73.26-.27.52-.58.79-.89.66-.76,1.54-1.8,2.11-1.73h15.14c.18.89.69,1.68,1.43,2.21.74.54,1.65.78,2.55.69.91-.09,1.75-.51,2.36-1.18.61-.67.95-1.54.95-2.45s-.34-1.78-.95-2.45c-.61-.67-1.46-1.09-2.36-1.18s-1.82.16-2.55.69c-.74.54-1.24,1.33-1.43,2.21l-11.35-.03ZM46,14.67c.44,0,.87.13,1.23.37.36.24.65.59.82.99.17.4.21.84.13,1.27s-.3.82-.61,1.13c-.31.31-.71.52-1.14.6-.43.08-.88.04-1.28-.13-.41-.17-.75-.45-.99-.81-.24-.36-.37-.79-.37-1.22,0-.58.24-1.13.66-1.54.42-.41.98-.64,1.56-.63v-.02Z"/><path class="cls-4" d="M30.23,8.38c-3.19,0-4.81-.64-5.43-2.15l-1.34.53c1.11,2.69,4.2,3.01,6.77,3.01h5.13c.18.86.68,1.63,1.4,2.15.72.52,1.61.76,2.5.67.89-.09,1.71-.5,2.31-1.15.6-.65.93-1.5.93-2.38s-.33-1.73-.93-2.38c-.6-.65-1.42-1.06-2.31-1.15-.89-.09-1.78.15-2.5.67-.72.52-1.22,1.29-1.4,2.15l-5.13.02ZM38.89,6.97c.43,0,.85.12,1.21.36.36.23.64.57.8.96.17.39.21.82.13,1.23-.08.41-.29.79-.59,1.09-.3.3-.69.5-1.11.59-.42.08-.86.04-1.26-.12-.4-.16-.74-.43-.98-.79-.24-.35-.37-.76-.37-1.19,0-.56.23-1.11.64-1.5.41-.4.96-.63,1.53-.63Z"/><path class="cls-3" d="M29.8,19.7v11.03h1.41v-5.26h4.31c.17.91.66,1.73,1.36,2.28.7.55,1.58.81,2.45.71.87-.09,1.68-.53,2.26-1.22.59-.69.91-1.59.91-2.52s-.32-1.83-.91-2.52c-.59-.69-1.39-1.13-2.26-1.22-.87-.09-1.74.16-2.45.71-.7.55-1.19,1.37-1.36,2.28h-4.31v-4.26h-1.41ZM38.97,22.45c.42,0,.83.13,1.18.38.35.25.62.6.78,1.01.16.41.2.87.12,1.31-.08.44-.28.84-.58,1.16-.3.32-.68.53-1.09.62-.41.09-.84.04-1.23-.13-.39-.17-.72-.46-.95-.84s-.36-.81-.35-1.26c0-.6.22-1.17.62-1.59.4-.42.93-.66,1.49-.66Z"/><path class="cls-1" d="M38.9,36.24c-.83,0-1.63.28-2.28.8-.64.52-1.08,1.24-1.25,2.04h-3.19v1.42h3.19c.14.66.46,1.26.93,1.75.47.48,1.07.82,1.73.98.66.16,1.35.13,2-.08.65-.21,1.22-.6,1.65-1.12.43-.52.7-1.15.78-1.81.08-.67-.03-1.34-.32-1.95-.29-.61-.75-1.12-1.33-1.48-.58-.36-1.24-.55-1.92-.55ZM38.9,41.91c-.43,0-.85-.13-1.2-.36-.36-.23-.63-.57-.8-.96-.16-.39-.21-.82-.12-1.23.08-.41.29-.79.59-1.09.3-.3.69-.5,1.11-.58.42-.08.86-.04,1.25.12.4.16.73.43.97.79.24.35.36.76.36,1.19,0,.57-.23,1.11-.63,1.51-.41.4-.96.62-1.53.62Z"/><path class="cls-2" d="M46.02,28.36c-.84,0-1.65.31-2.29.89-.65.57-1.09,1.37-1.26,2.26h-11.92c-2.19,0-4.55.33-5.5,2.76l1.33.62c.5-1.28,1.72-1.8,4.17-1.8h11.92c.14.73.46,1.4.94,1.94.47.54,1.08.92,1.75,1.1.67.18,1.36.15,2.02-.09.65-.24,1.23-.67,1.66-1.24.43-.58.71-1.28.79-2.01.08-.74-.03-1.49-.32-2.16-.29-.67-.76-1.24-1.34-1.64-.58-.4-1.25-.61-1.94-.61ZM46.02,34.66c-.43,0-.85-.14-1.21-.4-.36-.26-.64-.63-.81-1.06-.17-.43-.21-.91-.13-1.37.08-.46.29-.88.6-1.22.31-.33.69-.56,1.12-.65.42-.09.86-.04,1.26.14.4.18.74.48.98.88.24.39.37.85.37,1.32,0,.63-.23,1.22-.64,1.67-.41.44-.96.69-1.53.69h0Z"/></svg>