<svg width="64" height="64" viewBox="0 0 64 64" fill="none" xmlns="http://www.w3.org/2000/svg">
<path d="M57 32C57 18.1914 45.8087 7.00005 32 7.00005C18.1914 7.00005 7.00005 18.1914 7.00005 32C7.00005 45.8087 18.1914 57 32 57C45.8087 57 57 45.8087 57 32ZM58.2001 32C58.2001 46.4714 46.4714 58.2001 32 58.2001C17.5287 58.2001 5.80005 46.4714 5.80005 32C5.80005 17.5287 17.5287 5.80005 32 5.80005C46.4714 5.80005 58.2001 17.5287 58.2001 32Z" fill="#E6E6E9"/>
<path d="M32.6 12.646C34.3245 19.1393 35.8536 22.94 38.4805 25.567C41.1074 28.1939 44.9056 29.7205 51.3938 31.44V32.6C44.9055 34.3196 41.1048 35.8462 38.4767 38.4731C35.8487 41.1 34.3195 44.9005 32.6001 51.3936L31.4401 51.3937C29.7205 44.9054 28.1939 41.1048 25.5669 38.4767C22.9401 35.8486 19.1395 34.3195 12.6464 32.6V31.44C19.1398 29.7205 22.9403 28.1938 25.567 25.567C28.1938 22.9402 29.7205 19.1397 31.4401 12.6464L32.6 12.646ZM32.0209 15.0616C30.5049 20.3573 28.9669 23.8642 26.4156 26.4155C23.8646 28.9665 20.3585 30.5043 15.0643 32.02C20.3587 33.5363 23.8648 35.0763 26.4157 37.6283C28.9664 40.1802 30.5042 43.6861 32.0199 48.9764C33.5362 43.6816 35.0762 40.1754 37.6284 37.6244C40.1803 35.0736 43.6864 33.5357 48.977 32.0199C43.6869 30.5042 40.1829 28.9663 37.6321 26.4155C35.0808 23.8642 33.5408 20.3575 32.0209 15.0616Z" fill="#E6E6E9"/>
</svg>
