<?xml version="1.0" encoding="UTF-8"?><svg id="Auto" xmlns="http://www.w3.org/2000/svg" width="60" height="45" xmlns:xlink="http://www.w3.org/1999/xlink" viewBox="0 0 60 45"><defs><style>.cls-1{fill:url(#linear-gradient);}</style><linearGradient id="linear-gradient" x1="2.64" y1="23.27" x2="56.83" y2="23.27" gradientTransform="translate(0 46) scale(1 -1)" gradientUnits="userSpaceOnUse"><stop offset="0" stop-color="#95d600"/><stop offset=".07" stop-color="#88d412"/><stop offset=".53" stop-color="#3fca7e"/><stop offset=".85" stop-color="#11c3c3"/><stop offset="1" stop-color="#00c1de"/></linearGradient></defs><path class="cls-1" d="M56.83,24.75c0-1.62-.76-3.16-2.05-4.12l-3.67-3.76,2.89-.3c.54-.02,1.01-.34,1.24-.84.24-.52.16-1.11-.19-1.55l-1.69-2.05c-.27-.33-.68-.52-1.1-.52h-5.47l-2.78-3.82c-1.28-1.59-2.59-2.74-4.46-2.74h-20.85c-2.15,0-3.51,1.44-4.77,3.45l-1.78,3.11h-4.92c-.43,0-.82.19-1.1.52l-1.68,2.05c-.36.44-.44,1.03-.19,1.55.23.5.7.81,1.23.84l2.84.33-3.65,3.73c-1.29.97-2.05,2.49-2.05,4.12l.86,3.98v9.73c0,1.07.85,1.94,1.9,1.94h4.66c1.05,0,1.9-.87,1.9-1.94v-2.94c.41.04.85.07,1.3.07h32.93c.52,0,1.02-.03,1.48-.08v2.94c0,1.07.85,1.94,1.9,1.94h4.66c1.05,0,1.9-.87,1.9-1.94v-10.6l.68-3.11ZM52.06,13.5l1.04,1.26-3.6.38-1.15-1.64h3.71ZM15.52,9.49c1.33-2.12,2.2-2.55,3.18-2.55h20.85c.99,0,1.81.55,2.99,2.01l4.2,5.77c-5.35-.78-18.43-2.14-34.28.09l3.05-5.32h0ZM7.43,13.5h3.26l-1.15,1.64-3.16-.36,1.04-1.27h0ZM10.06,38.5l-4.71-.05v-6.09c.98,1.12,2.5,2.26,4.75,2.83l-.04,3.3h0ZM13.26,33.69c-6.23,0-7.71-4.38-7.82-4.77l-.09-.4v-.04h0l-.85-3.91c.06-.95.52-1.85,1.28-2.42l.11-.08.1-.1,4.75-4.86c19.52-3.08,35.18-.52,37.81-.05l.06.08h.11l4.73,4.82.1.1.11.08c.76.57,1.23,1.46,1.28,2.42l-.94,4.35c-.15.46-1.64,4.78-7.82,4.78H13.24h.02ZM49.54,38.46v-3.31c2.28-.62,3.78-1.83,4.73-2.99l-.02,6.33-4.71-.05h0ZM43.64,22.48l-.73,1.9h-26.49l-.73-1.9h27.94ZM17.16,26.33h25.01l-.73,1.9h-23.57l-.73-1.9h0ZM14.35,24.38l-.73-1.9h-5.14c-.8,0-1.54.37-2.03,1-.49.63-.66,1.45-.48,2.24.37,1.52,2.45,1.93,2.86,1.99l5.88.43,1.08.08-.73-1.9-.74-1.94h.02ZM9.08,25.84c-.66-.12-1.2-.42-1.28-.57-.06-.22,0-.44.13-.62.14-.18.34-.28.56-.28h3.86l.27.69.4,1.07-3.95-.29h0ZM53.35,25.73c.19-.79.02-1.61-.48-2.24-.49-.63-1.23-1-2.03-1h-5.14l-.73,1.9-.74,1.94-.73,1.9,1.35-.1,5.52-.4h.08c.41-.07,2.5-.48,2.86-2h.02ZM51.55,25.27c-.08.16-.64.46-1.31.57l-3.92.29.4-1.07.27-.69h3.86c.23,0,.43.1.56.28.14.18.19.4.14.62Z"/></svg>