<svg width="64" height="64" viewBox="0 0 64 64" fill="none" xmlns="http://www.w3.org/2000/svg">
<path d="M19.2004 25.0001C21.6377 25.0002 23.9309 25.6492 25.9006 26.7911L25.2991 27.8292C23.5091 26.7914 21.4228 26.2004 19.2004 26.2003C12.4618 26.2003 7.00024 31.6619 7.00024 38.4005C7.00046 45.1389 12.4619 50.5997 19.2004 50.5997H48.0002C52.9688 50.5996 57.0002 46.5683 57.0002 41.5997C57.0001 39.2928 56.1373 37.1939 54.7034 35.6007C53.0515 33.7612 50.6613 32.5998 48.0002 32.5997V31.4005C51.0187 31.4005 53.7279 32.7189 55.5959 34.7989C57.2218 36.6055 58.2003 38.987 58.2004 41.5997C58.2004 47.231 53.6315 51.7998 48.0002 51.7999H19.2004C11.7992 51.7999 5.80026 45.8017 5.80005 38.4005C5.80005 30.9991 11.7991 25.0001 19.2004 25.0001Z" fill="#E6E6E9"/>
<path d="M21.3958 16.5958C27.2501 10.7415 36.7504 10.7415 42.6047 16.5958C48.4589 22.4501 48.459 31.9505 42.6047 37.8048L41.7561 36.9562C47.1417 31.5705 47.1416 22.8301 41.7561 17.4444C36.3704 12.0588 27.6301 12.0588 22.2444 17.4444C20.738 18.9508 19.6467 20.7139 18.9866 22.5987L17.8538 22.2022C18.5736 20.1471 19.7622 18.2294 21.3958 16.5958Z" fill="#E6E6E9"/>
</svg>
