<?xml version="1.0" encoding="UTF-8"?>
<svg id="Layer_1" data-name="Layer 1" xmlns="http://www.w3.org/2000/svg" width="63" height="72" xmlns:xlink="http://www.w3.org/1999/xlink" viewBox="0 0 63 72">
  <defs>
    <style>
      .cls-1 {
        fill: url(#New_Gradient_Swatch_1-2);
      }

      .cls-2 {
        fill: url(#New_Gradient_Swatch_1-6);
      }

      .cls-3 {
        fill: url(#New_Gradient_Swatch_1-3);
      }

      .cls-4 {
        fill: url(#New_Gradient_Swatch_1-5);
      }

      .cls-5 {
        fill: url(#New_Gradient_Swatch_1-4);
      }

      .cls-6 {
        fill: url(#New_Gradient_Swatch_1-7);
      }

      .cls-7 {
        fill: url(#New_Gradient_Swatch_1);
      }
    </style>
    <linearGradient id="New_Gradient_Swatch_1" data-name="New Gradient Swatch 1" x1="35.28" y1="41.62" x2="47.09" y2="41.62" gradientUnits="userSpaceOnUse">
      <stop offset="0" stop-color="#a4da00"/>
      <stop offset="1" stop-color="#00cbe5"/>
    </linearGradient>
    <linearGradient id="New_Gradient_Swatch_1-2" data-name="New Gradient Swatch 1" y1="29.88" x2="55.23" y2="29.88" xlink:href="#New_Gradient_Swatch_1"/>
    <linearGradient id="New_Gradient_Swatch_1-3" data-name="New Gradient Swatch 1" y1="52.51" x2="48.72" y2="52.51" xlink:href="#New_Gradient_Swatch_1"/>
    <linearGradient id="New_Gradient_Swatch_1-4" data-name="New Gradient Swatch 1" y1="20.09" x2="48.17" y2="20.09" xlink:href="#New_Gradient_Swatch_1"/>
    <linearGradient id="New_Gradient_Swatch_1-5" data-name="New Gradient Swatch 1" y1="40.23" x2="56.98" y2="40.23" xlink:href="#New_Gradient_Swatch_1"/>
    <linearGradient id="New_Gradient_Swatch_1-6" data-name="New Gradient Swatch 1" x1="18.28" y1="35.97" x2="32.32" y2="35.97" xlink:href="#New_Gradient_Swatch_1"/>
    <linearGradient id="New_Gradient_Swatch_1-7" data-name="New Gradient Swatch 1" x1="6.02" y1="36" x2="36.44" y2="36" xlink:href="#New_Gradient_Swatch_1"/>
  </defs>
  <path class="cls-7" d="M40.05,42.21c.27,1.64,1.68,2.82,3.34,2.95.05,0,.1.02.15.01.05,0,.1,0,.15-.01,1.86-.15,3.39-1.6,3.4-3.53,0-1.92-1.62-3.56-3.55-3.55-1.73,0-3.21,1.3-3.49,2.97h-4.21c-.75,0-.75,1.17,0,1.17h4.21ZM43.55,39.24c1.29,0,2.39,1.08,2.38,2.38,0,1.34-1.07,2.33-2.38,2.38-1.3-.05-2.38-1.04-2.38-2.38s1.08-2.38,2.38-2.38Z"/>
  <path class="cls-1" d="M35.84,29.29c-.75,0-.75,1.17,0,1.17h12.34c.27,1.64,1.68,2.82,3.34,2.95.05,0,.1.02.15.01.05,0,.1,0,.15-.01,1.86-.15,3.39-1.6,3.4-3.53,0-1.92-1.62-3.56-3.55-3.55-1.73,0-3.21,1.3-3.49,2.97h-12.34ZM51.68,27.5c1.29,0,2.39,1.08,2.38,2.38,0,1.34-1.07,2.33-2.38,2.38-1.3-.05-2.38-1.04-2.38-2.38s1.08-2.38,2.38-2.38Z"/>
  <path class="cls-3" d="M45.32,51.07s-.1-.02-.15-.01c-.05,0-.1,0-.15.01-.46.04-.9.15-1.3.33-.39-.58-.77-1.15-1.16-1.73-.53-.79-1.01-1.71-1.63-2.43-.48-.56-1.53-.33-2.2-.33h-2.89c-.75,0-.75,1.17,0,1.17h4.25c.89,1.32,1.77,2.64,2.66,3.96-.69.63-1.13,1.53-1.13,2.56,0,1.92,1.62,3.56,3.55,3.55,1.93,0,3.55-1.61,3.55-3.55s-1.54-3.39-3.4-3.53ZM45.17,56.99c-1.29,0-2.39-1.08-2.38-2.38,0-1.34,1.07-2.33,2.38-2.38,1.3.05,2.38,1.04,2.38,2.38s-1.08,2.38-2.38,2.38Z"/>
  <path class="cls-5" d="M42.21,20.56c-.89,1.32-1.77,2.64-2.66,3.96h-3.71c-.75,0-.75,1.17,0,1.17h2.76c.67,0,1.39.17,1.83-.4.99-1.3,1.85-2.71,2.74-4.08.4.18.84.3,1.29.33.05,0,.1.02.15.01.05,0,.1,0,.15-.01,1.86-.15,3.39-1.6,3.4-3.53,0-1.92-1.62-3.56-3.55-3.55-1.93,0-3.55,1.61-3.55,3.55,0,1.03.44,1.93,1.13,2.56ZM44.62,15.62c1.29,0,2.39,1.08,2.38,2.38,0,1.34-1.07,2.33-2.38,2.38-1.3-.05-2.38-1.04-2.38-2.38s1.08-2.38,2.38-2.38Z"/>
  <path class="cls-4" d="M53.58,39.17s-.1-.02-.15-.01c-.05,0-.1,0-.15.01-.7.06-1.35.29-1.89.67-1.73-1.73-3.46-3.46-5.19-5.19-.55-.55-1.1-.43-1.84-.43h-8.51c-.75,0-.75,1.17,0,1.17h7.72c.54,0,1.11.05,1.64,0,0,0,.04,0,.08,0,.82,1.06,1.97,1.97,2.92,2.92.78.78,1.57,1.57,2.35,2.35-.42.57-.67,1.27-.67,2.05,0,1.92,1.62,3.56,3.55,3.55,1.93,0,3.55-1.61,3.55-3.55s-1.54-3.39-3.4-3.53ZM45.36,35.39c.07,0,.14,0,.15,0-.04.05-.09.04-.15,0ZM53.43,45.09c-1.29,0-2.39-1.08-2.38-2.38,0-1.34,1.07-2.33,2.38-2.38,1.3.05,2.38,1.04,2.38,2.38s-1.08,2.38-2.38,2.38Z"/>
  <path class="cls-2" d="M24.26,27.92c2.27-1.21,4.92-1.35,7.34-.54.71.24,1.02-.89.31-1.13-4.96-1.67-10.56.65-12.73,5.46-2.06,4.57-.47,10.06,3.7,12.84,2.64,1.76,5.99,2.13,8.99,1.14.71-.23.41-1.36-.31-1.13-4.68,1.54-9.93-.8-11.6-5.52-1.49-4.22.34-9.01,4.3-11.13Z"/>
  <path class="cls-6" d="M35.55,52.09c-2.01.87-4.15,1.34-6.34,1.44-.26.01-.49.17-.56.43-.35,1.17-.6,2.42-1.05,3.55-.34.85-1,.81-1.72.64-.77-.18-1.54-.35-2.31-.53-.99-.23-3.54-.33-3.48-1.76.05-1.21.4-2.47.59-3.66.04-.25-.02-.53-.27-.66-1.98-1.06-3.72-2.45-5.2-4.15-.12-.14-.39-.22-.57-.15-1.14.46-2.28,1.04-3.46,1.4-.86.26-1.28-.22-1.61-.9-.33-.69-.67-1.38-1-2.07-.48-1-2.03-3.03-.79-3.94.98-.72,2.18-1.24,3.24-1.84.24-.14.31-.4.27-.66-.39-2.16-.4-4.34-.01-6.49.05-.25-.03-.52-.27-.66-1.06-.6-2.27-1.11-3.25-1.82-1.25-.9.3-2.94.78-3.94.33-.69.66-1.38.99-2.07.33-.68.75-1.17,1.61-.91,1.18.36,2.32.93,3.46,1.39.18.07.45,0,.57-.15,1.48-1.7,3.21-3.09,5.19-4.17.25-.13.31-.41.27-.66-.2-1.19-.54-2.44-.6-3.65-.07-1.45,2.47-1.55,3.47-1.79.75-.17,1.51-.35,2.26-.52.72-.17,1.41-.26,1.77.61.47,1.12.72,2.39,1.07,3.56.08.26.3.42.56.43,2.19.09,4.33.55,6.34,1.41.68.29,1.28-.71.59-1.01-2.08-.88-4.24-1.4-6.49-1.54-.3-1.01-.59-2.03-.91-3.03-.48-1.49-1.72-1.9-3.14-1.58-1.41.32-2.81.65-4.22.97-.45.1-.95.17-1.36.4-.85.48-1.21,1.41-1.08,2.35.15,1.08.34,2.15.53,3.23-1.81,1.03-3.43,2.33-4.83,3.87-1-.41-2-.82-3.01-1.21-1.39-.53-2.49.19-3.09,1.44-.62,1.3-1.25,2.6-1.87,3.9-.2.42-.45.85-.55,1.31-.19.95.28,1.85,1.08,2.35.94.59,1.94,1.1,2.91,1.64-.32,2.06-.32,4.12.01,6.18-.92.52-1.85,1.03-2.77,1.57-1.3.77-1.47,2.05-.85,3.34.62,1.29,1.25,2.58,1.87,3.87.62,1.29,1.51,2.46,3.15,1.92,1.07-.35,2.11-.84,3.16-1.28,1.4,1.54,3.03,2.83,4.84,3.86-.17,1.02-.34,2.04-.49,3.07-.22,1.47.58,2.48,1.99,2.8,1.4.32,2.79.63,4.19.95.43.1.89.25,1.33.27,1.04.04,1.9-.63,2.23-1.59.36-1.04.64-2.12.95-3.19,2.25-.15,4.4-.67,6.48-1.56.69-.3.09-1.3-.59-1.01Z"/>
</svg>