<?xml version="1.0" encoding="UTF-8"?><svg id="Laptops" xmlns="http://www.w3.org/2000/svg" width="60" height="45" xmlns:xlink="http://www.w3.org/1999/xlink" viewBox="0 0 60 45"><defs><style>.cls-1{fill:url(#linear-gradient);}</style><linearGradient id="linear-gradient" x1="2.64" y1="23.76" x2="56.67" y2="23.76" gradientTransform="translate(0 46) scale(1 -1)" gradientUnits="userSpaceOnUse"><stop offset="0" stop-color="#95d600"/><stop offset=".07" stop-color="#88d412"/><stop offset=".53" stop-color="#3fca7e"/><stop offset=".85" stop-color="#11c3c3"/><stop offset="1" stop-color="#00c1de"/></linearGradient></defs><path class="cls-1" d="M53.29,33.21V3.97c0-1.01-.75-1.83-1.69-1.83H7.71c-.93,0-1.69.81-1.69,1.83v29.24h-3.38v5.47c0,2.02,1.51,3.67,3.39,3.67h47.26c1.87,0,3.39-1.63,3.39-3.67v-5.47h-3.39ZM7.71,3.97h43.89v29.24H7.71V3.97ZM54.97,38.68c0,1.02-.76,1.84-1.7,1.84H6.02c-.94,0-1.7-.82-1.7-1.84v-3.65h50.65v3.65h0ZM36.4,38.68h-13.51v-1.83h13.51v1.83Z"/></svg>