<svg width="64" height="64" viewBox="0 0 64 64" fill="none" xmlns="http://www.w3.org/2000/svg">
<path fill-rule="evenodd" clip-rule="evenodd" d="M38.2804 40.8306C40.4451 40.8308 42.2003 42.5857 42.2003 44.7505C42.2001 46.9151 40.445 48.6702 38.2804 48.6704C36.1156 48.6704 34.3597 46.9153 34.3595 44.7505C34.3595 42.5855 36.1154 40.8306 38.2804 40.8306ZM38.2804 42.0298C36.7782 42.0298 35.5597 43.2483 35.5597 44.7505C35.5599 46.2525 36.7783 47.4702 38.2804 47.4702C39.7823 47.47 40.9999 46.2524 41.0001 44.7505C41.0001 43.2484 39.7824 42.03 38.2804 42.0298Z" fill="#E6E6E9"/>
<path fill-rule="evenodd" clip-rule="evenodd" d="M51.0802 40.8306C53.245 40.8307 55.0001 42.5856 55.0001 44.7505C54.9999 46.9152 53.2449 48.6703 51.0802 48.6704C48.9154 48.6704 47.1605 46.9153 47.1603 44.7505C47.1603 42.5855 48.9152 40.8306 51.0802 40.8306ZM51.0802 42.0298C49.578 42.0298 48.3595 43.2483 48.3595 44.7505C48.3597 46.2525 49.5781 47.4702 51.0802 47.4702C52.5822 47.4701 53.7997 46.2524 53.7999 44.7505C53.7999 43.2484 52.5823 42.0299 51.0802 42.0298Z" fill="#E6E6E9"/>
<path fill-rule="evenodd" clip-rule="evenodd" d="M24.42 25.0005C25.4013 25.0005 26.2002 25.7985 26.2003 26.7798V37.2202C26.2002 38.2015 25.4013 39.0004 24.42 39.0005H13.9796C12.9985 39.0003 12.2004 38.2014 12.2003 37.2202V26.7798C12.2004 25.7986 12.9985 25.0007 13.9796 25.0005H24.42ZM13.9796 26.1997C13.6612 26.1999 13.3997 26.4614 13.3995 26.7798V37.2202C13.3997 37.5386 13.6612 37.8001 13.9796 37.8003H24.42C24.7386 37.8002 25 37.5387 25.0001 37.2202V26.7798C25 26.4613 24.7386 26.1998 24.42 26.1997H13.9796Z" fill="#E6E6E9"/>
<path fill-rule="evenodd" clip-rule="evenodd" d="M27.0304 21.8003C28.3426 21.8005 29.3968 22.8585 29.4103 24.1636V39.8403C29.4101 41.1515 28.3513 42.2103 27.0402 42.2104H11.3702C10.059 42.2104 9.00027 41.1516 9.00012 39.8403V24.1704C9.00012 22.859 10.0589 21.8003 11.3702 21.8003H27.0304ZM11.3702 23.0005C10.7216 23.0005 10.2003 23.5218 10.2003 24.1704V39.8403C10.2005 40.4888 10.7217 41.0103 11.3702 41.0103H27.0402C27.6886 41.0101 28.2099 40.4888 28.2101 39.8403V24.1704C28.2002 23.5188 27.6756 23.0007 27.0304 23.0005H11.3702Z" fill="#E6E6E9"/>
<path fill-rule="evenodd" clip-rule="evenodd" d="M53.88 25.0005C54.5012 25.0005 54.9999 25.4985 55.0001 26.1196V31.48C55.0001 32.1013 54.5013 32.6001 53.88 32.6001H35.7198C35.0985 32.6 34.5997 32.1013 34.5997 31.48V26.1196C34.5999 25.4985 35.0987 25.0006 35.7198 25.0005H53.88ZM35.7999 31.3999H53.7999V26.1997H35.7999V31.3999Z" fill="#E6E6E9"/>
<path d="M44.7999 13.3999H38.3995V12.1997H44.7999V13.3999Z" fill="#E6E6E9"/>
<path d="M51.2003 13.3999H48.0001V12.1997H51.2003V13.3999Z" fill="#E6E6E9"/>
<path fill-rule="evenodd" clip-rule="evenodd" d="M53.92 9.3999C54.5114 9.39996 55.0001 9.88865 55.0001 10.48V12.1997H56.3995C57.4009 12.1997 58.2101 13.0089 58.2101 14.0103V49.9995C58.2101 51.0009 57.4009 51.8101 56.3995 51.8101H7.6095C6.60833 51.8098 5.79993 51.0007 5.79993 49.9995V14.0103C5.79995 13.009 6.60834 12.1999 7.6095 12.1997H34.5997V10.48C34.5997 9.89683 35.0704 9.39998 35.6798 9.3999H53.92ZM7.6095 13.3999C7.27108 13.4001 7.00014 13.6718 7.00012 14.0103V49.9995C7.00012 50.338 7.27107 50.6096 7.6095 50.6099H56.3995C56.7382 50.6099 57.0099 50.3381 57.0099 49.9995V14.0103C57.0099 13.6716 56.7381 13.3999 56.3995 13.3999H55.0001V15.0298C55.0001 15.613 54.5295 16.1098 53.92 16.1099H35.6798C35.0967 16.1098 34.5997 15.6392 34.5997 15.0298V13.3999H7.6095ZM35.7999 14.9097H53.7999V10.6001H35.7999V14.9097Z" fill="#E6E6E9"/>
</svg>
