<?xml version="1.0" encoding="UTF-8"?><svg id="Mobile" xmlns="http://www.w3.org/2000/svg" width="60" height="45" xmlns:xlink="http://www.w3.org/1999/xlink" viewBox="0 0 60 45"><defs><style>.cls-1{fill:url(#linear-gradient);}</style><linearGradient id="linear-gradient" x1="14.71" y1="78.45" x2="42.37" y2="78.45" gradientTransform="translate(0 -56)" gradientUnits="userSpaceOnUse"><stop offset="0" stop-color="#95d600"/><stop offset=".07" stop-color="#88d412"/><stop offset=".53" stop-color="#3fca7e"/><stop offset=".85" stop-color="#11c3c3"/><stop offset="1" stop-color="#00c1de"/></linearGradient></defs><path class="cls-1" d="M41.12.8H15.95c-.68,0-1.24.54-1.24,1.21v40.9c0,.67.55,1.21,1.24,1.21h25.19c.68,0,1.24-.54,1.24-1.21V2c0-.67-.55-1.21-1.24-1.21h-.01ZM33.45,2.09l-.77,1.82c-.09.21-.27.36-.45.36h-7.39c-.18,0-.37-.14-.45-.36l-.77-1.82h9.85-.01ZM41.03,42.83h-25.02V2.08h6.18l.98,2.3c.3.7.95,1.16,1.66,1.16h7.39c.71,0,1.38-.45,1.66-1.16l.98-2.3h6.18v40.74h-.01ZM29.19,18.55h-1.34v-2.6h1.34v2.6ZM29.19,28.95h-1.34v-2.6h1.34v2.6ZM32.51,23.1v-1.31h2.66v1.31h-2.66ZM21.88,23.1v-1.31h2.66v1.31h-2.66ZM31.81,20.15l-.94-.92,1.88-1.83.94.92-1.88,1.83ZM24.3,27.5l-.94-.92,1.88-1.83.94.92s-1.88,1.83-1.88,1.83ZM30.88,25.67l.94-.92,1.88,1.83-.94.92s-1.88-1.83-1.88-1.83ZM23.35,18.31l.94-.92,1.88,1.83-.94.92s-1.88-1.83-1.88-1.83Z"/></svg>