<svg width="64" height="64" viewBox="0 0 64 64" fill="none" xmlns="http://www.w3.org/2000/svg">
<path d="M38.4302 55.0002H25.6304V53.8H38.4302V55.0002Z" fill="#E6E6E9"/>
<path d="M31.9995 9.00024C33.0904 9.00024 34.1743 9.03078 35.2397 9.10181L35.1597 10.2991C34.1252 10.2301 33.0685 10.2004 31.9995 10.2004C30.9308 10.2004 29.8746 10.2301 28.8403 10.2991L28.7603 9.10181C29.8255 9.0308 30.9088 9.00025 31.9995 9.00024Z" fill="#E6E6E9"/>
<path fill-rule="evenodd" clip-rule="evenodd" d="M46.8198 5.80005C47.8112 5.80006 48.6099 6.59872 48.6099 7.59009V56.429C48.5949 57.4045 47.7998 58.2003 46.8101 58.2004H17.1899C16.1987 58.2004 15.4001 57.4016 15.3999 56.4104V7.59009C15.3999 6.59872 16.1986 5.80005 17.1899 5.80005H46.8198ZM16.6001 56.4104C16.6003 56.7388 16.8614 57.0002 17.1899 57.0002H46.8101C47.1392 57.0001 47.4034 56.7365 47.4097 56.4133V49.8547C46.8158 50.0589 46.1643 50.2489 45.4653 50.4221C42.0454 51.2771 37.3639 51.8 32.2095 51.8C27.0562 51.8 22.3657 51.277 18.9556 50.4221C18.0912 50.2078 17.2999 49.9656 16.6001 49.7034V56.4104ZM17.1899 7.00024C16.8613 7.00024 16.6001 7.26146 16.6001 7.59009V48.4143C17.283 48.6963 18.098 48.9631 19.0239 49.2014L19.2446 49.2571L19.2456 49.2581C22.5352 50.0829 27.1239 50.5998 32.2095 50.5999C37.2949 50.5999 41.8742 50.0831 45.1743 49.2581L45.1753 49.2571C46.011 49.05 46.7606 48.8217 47.4097 48.5793V7.59009C47.4097 7.26146 47.1484 7.00025 46.8198 7.00024H17.1899Z" fill="#E6E6E9"/>
</svg>
