<svg width="53" height="32" viewBox="0 0 53 32" fill="none" xmlns="http://www.w3.org/2000/svg">
<path d="M6.56019 32C5.89769 32 5.22598 31.8947 4.59108 31.6841C1.14053 30.5545 -0.782578 26.7061 0.303195 23.1163C0.827679 21.374 1.97786 19.9572 3.53291 19.1052C4.68309 18.4829 5.9437 18.234 7.2043 18.3681C7.13989 17.899 7.10308 17.4203 7.10308 16.9417C7.10308 16.128 7.18589 15.3143 7.36992 14.5197C7.96802 11.9446 9.49546 9.77151 11.667 8.393C13.6453 7.13893 15.9457 6.67943 18.2093 7.08149C20.3624 2.85023 24.4939 0.160219 29.1314 0.00705156C32.5451 -0.107824 35.8117 1.18453 38.3053 3.61607C40.6056 5.86572 41.9951 8.84292 42.2803 12.0786C45.7308 12.203 48.5189 15.1132 48.6109 18.7127C51.2241 19.6604 53 22.2164 53 25.1553C53 28.8122 50.258 31.8181 46.7522 31.9904H6.5786C6.5786 31.9904 6.56939 31.9904 6.56019 31.9904V32ZM6.56019 20.0625C5.78727 20.0625 5.01435 20.2539 4.30583 20.6369C3.14645 21.2687 2.29071 22.3313 1.89505 23.6236C1.08532 26.3041 2.52075 29.176 5.09716 30.0184C5.57564 30.1716 6.07251 30.2577 6.56939 30.2577H46.7154C49.2918 30.1333 51.3437 27.8932 51.3437 25.1649C51.3437 22.8004 49.7979 20.7613 47.5895 20.2156L46.9546 20.0529V18.9137C46.9546 16.0993 44.7555 13.8113 42.0595 13.8113H40.6976L40.67 12.9689C40.578 9.87681 39.3358 6.99534 37.1643 4.87971C34.9927 2.7545 32.1679 1.63446 29.1866 1.73976C24.9539 1.87379 21.2181 4.43935 19.433 8.43129L19.1478 9.07268L18.4853 8.90994C16.4518 8.393 14.3354 8.73762 12.5503 9.87681C10.7561 11.016 9.50466 12.8061 9.00778 14.9313C8.85136 15.5823 8.77775 16.262 8.78695 16.9321C8.78695 17.7171 8.89737 18.4925 9.109 19.2488L9.54147 20.7996L8.06003 20.3114C7.57236 20.1486 7.07547 20.0721 6.5786 20.0721L6.56019 20.0625Z" fill="url(#paint0_linear_1900_21919)"/>
<path d="M29.1484 0.506836C32.3196 0.400185 35.3614 1.55848 37.7295 3.75781L37.9561 3.97363C40.1689 6.13786 41.5072 9.0029 41.7822 12.1221L41.8213 12.5625L42.2627 12.5781C45.4331 12.6927 48.0257 15.3742 48.1113 18.7256L48.1201 19.0664L48.4404 19.1826C50.8476 20.0556 52.5 22.4179 52.5 25.1553C52.5 28.5603 49.955 31.3253 46.7402 31.4902H6.24902C5.81751 31.467 5.38562 31.3967 4.96875 31.2773L4.74805 31.21L4.74707 31.209L4.45312 31.1045C1.55581 29.984 -0.089738 26.7212 0.695312 23.5752L0.782227 23.2607C1.26932 21.6427 2.33472 20.3322 3.77344 19.5439L3.77246 19.543C4.83459 18.9689 5.99366 18.7422 7.15137 18.8652L7.78613 18.9326L7.69922 18.2998C7.63754 17.8506 7.60352 17.3946 7.60352 16.9414C7.60353 16.259 7.66377 15.5799 7.7959 14.916L7.85742 14.6328C8.39112 12.3351 9.69927 10.3801 11.5566 9.06836L11.9346 8.81543C13.8093 7.62705 15.9836 7.19438 18.1221 7.57422L18.4863 7.63867L18.6553 7.30859C20.6642 3.36083 24.453 0.816026 28.7324 0.527344L29.1475 0.506836H29.1484ZM29.1689 1.24023C24.876 1.37685 21.0809 3.90328 19.1572 7.8418L18.9766 8.22754V8.22852L18.8604 8.4873L18.6045 8.4248C16.5724 7.90928 14.4623 8.20108 12.6416 9.23828L12.2812 9.45508C10.374 10.6664 9.0475 12.568 8.52148 14.8145C8.37589 15.4204 8.29778 16.0483 8.28711 16.6719V16.9316C8.28711 17.7633 8.40382 18.5839 8.62695 19.3818V19.3828L8.80762 20.0312L8.21777 19.8369H8.21875C7.71984 19.6704 7.21193 19.5863 6.70508 19.5742L6.68262 19.5625H6.56055C5.81148 19.5625 5.06318 19.7252 4.36426 20.0488L4.06836 20.1973L4.06641 20.1982C2.86873 20.851 1.96831 21.9194 1.50391 23.2148L1.41699 23.4775L1.41602 23.4795C0.56019 26.3135 1.99769 29.3645 4.67871 30.3994L4.94141 30.4932L4.94434 30.4941C5.46618 30.6612 6.0149 30.7578 6.56934 30.7578H46.7275L46.7393 30.7568C49.6024 30.6185 51.8437 28.1392 51.8438 25.165C51.8438 22.6645 50.2576 20.4755 47.9365 19.792L47.71 19.7305L47.4551 19.6641V18.9141C47.4551 15.843 45.0508 13.3116 42.0596 13.3115H41.1816L41.1699 12.9521C41.0737 9.7353 39.7805 6.73 37.5137 4.52148H37.5127C35.3882 2.44281 32.6574 1.28058 29.752 1.23438L29.1689 1.24023Z" stroke="#00C1DE" stroke-opacity="0.25"/>
<defs>
<linearGradient id="paint0_linear_1900_21919" x1="-0.000453572" y1="16.0035" x2="53" y2="16.0035" gradientUnits="userSpaceOnUse">
<stop stop-color="#95D600"/>
<stop offset="1" stop-color="#00C1DE"/>
</linearGradient>
</defs>
</svg>
