<svg xmlns="http://www.w3.org/2000/svg" width="960" height="260" viewBox="0 0 960 260" font-family="Arial, Helvetica, sans-serif" font-size="14">
  <title>AM62L boot chain with the U-Boot to Zephyr verification added</title>
  <defs>
    <marker id="ta" viewBox="0 0 10 10" refX="9" refY="5" markerWidth="8" markerHeight="8" orient="auto-start-reverse">
      <path d="M 0 0 L 10 5 L 0 10 z" fill="#555"/>
    </marker>
    <marker id="tb" viewBox="0 0 10 10" refX="9" refY="5" markerWidth="8" markerHeight="8" orient="auto-start-reverse">
      <path d="M 0 0 L 10 5 L 0 10 z" fill="#0b5fa5"/>
    </marker>
  </defs>
  <rect width="960" height="260" fill="#ffffff"/>

  <!-- brackets aligned to the boxes they cover: tiboot3.bin .. u-boot.img are checked by TI's ROM and TIFS -->
  <text x="475" y="30" text-anchor="middle" fill="#555" font-size="13">Checked by TI's ROM and TIFS. On an HS-FS device, TI's development key is accepted.</text>
  <path d="M 210 42 L 210 52 L 740 52 L 740 42" fill="none" stroke="#999" stroke-width="1"/>
  <text x="850" y="30" text-anchor="middle" fill="#0b5fa5" font-size="13" font-weight="bold">Checked by U-Boot with your key</text>
  <path d="M 760 42 L 760 52 L 940 52 L 940 42" fill="none" stroke="#0b5fa5" stroke-width="1.5"/>

  <!-- boxes -->
  <rect x="20" y="80" width="150" height="90" rx="6" fill="#f4f4f4" stroke="#888"/>
  <text x="95" y="112" text-anchor="middle" font-weight="bold">Boot ROM</text>
  <text x="95" y="134" text-anchor="middle" fill="#555" font-size="12">inside the AM62L</text>
  <text x="95" y="152" text-anchor="middle" fill="#555" font-size="12">loads tiboot3.bin</text>

  <rect x="210" y="80" width="150" height="90" rx="6" fill="#f4f4f4" stroke="#888"/>
  <text x="285" y="112" text-anchor="middle" font-weight="bold">tiboot3.bin</text>
  <text x="285" y="134" text-anchor="middle" fill="#555" font-size="12">TF-A BL1 + TIFS</text>
  <text x="285" y="152" text-anchor="middle" fill="#555" font-size="12">loads tispl.bin</text>

  <rect x="400" y="80" width="150" height="90" rx="6" fill="#f4f4f4" stroke="#888"/>
  <text x="475" y="112" text-anchor="middle" font-weight="bold">tispl.bin</text>
  <text x="475" y="134" text-anchor="middle" fill="#555" font-size="12">TF-A BL31, OP-TEE, SPL</text>
  <text x="475" y="152" text-anchor="middle" fill="#555" font-size="12">loads u-boot.img</text>

  <rect x="590" y="80" width="150" height="90" rx="6" fill="#e8f1fa" stroke="#0b5fa5" stroke-width="1.5"/>
  <text x="665" y="112" text-anchor="middle" font-weight="bold">u-boot.img</text>
  <text x="665" y="134" text-anchor="middle" fill="#333" font-size="12">U-Boot, with key-a's</text>
  <text x="665" y="152" text-anchor="middle" fill="#333" font-size="12">public key inside</text>

  <rect x="780" y="80" width="160" height="90" rx="6" fill="#e8f1fa" stroke="#0b5fa5" stroke-width="1.5"/>
  <text x="860" y="112" text-anchor="middle" font-weight="bold">zephyr-a.itb</text>
  <text x="860" y="134" text-anchor="middle" fill="#333" font-size="12">FIT image: Zephyr,</text>
  <text x="860" y="152" text-anchor="middle" fill="#333" font-size="12">signed with key-a</text>

  <!-- arrows -->
  <line x1="170" y1="125" x2="208" y2="125" stroke="#555" stroke-width="2" marker-end="url(#ta)"/>
  <line x1="360" y1="125" x2="398" y2="125" stroke="#555" stroke-width="2" marker-end="url(#ta)"/>
  <line x1="550" y1="125" x2="588" y2="125" stroke="#555" stroke-width="2" marker-end="url(#ta)"/>
  <line x1="740" y1="125" x2="778" y2="125" stroke="#0b5fa5" stroke-width="2.5" marker-end="url(#tb)"/>

  <!-- who checks what, under the box that is being checked -->
  <text x="285" y="200" text-anchor="middle" fill="#555" font-size="12">checked by the ROM</text>
  <text x="475" y="200" text-anchor="middle" fill="#555" font-size="12">checked by TIFS</text>
  <text x="665" y="200" text-anchor="middle" fill="#555" font-size="12">checked by TIFS</text>
  <text x="860" y="200" text-anchor="middle" fill="#0b5fa5" font-size="12" font-weight="bold">checked by U-Boot,</text>
  <text x="860" y="216" text-anchor="middle" fill="#0b5fa5" font-size="12" font-weight="bold">then started with go</text>
</svg>
