<svg width="1216" height="779" xmlns="http://www.w3.org/2000/svg" xmlns:xlink="http://www.w3.org/1999/xlink" xml:space="preserve" overflow="hidden"><g transform="translate(-452 -1223)"><path d="M663 1863 1563.83 1863" stroke="#0091BD" stroke-width="13.75" stroke-miterlimit="8" fill="none" fill-rule="evenodd"/><path d="M1098.66 1855.74 712.311 1479.14 715.51 1475.86 1101.86 1852.46ZM707.594 1490.54 697.5 1461.5 726.79 1470.85Z" fill="#FF6B00"/><path d="M17.3005 15.2034 367.541 391.038 364.188 394.162 13.9475 18.3281ZM8.68913 29.4926 0 0 28.8075 10.7442Z" fill="#BF9500" transform="matrix(1 0 0 -1 1100.5 1854.1)"/><path d="M2.29167-1.71155e-06 2.29201 460.298-2.29132 460.298-2.29167 1.71155e-06ZM13.7503 455.715 0.000360892 483.215-13.7497 455.715Z" fill="#0091BD" transform="matrix(1 0 0 -1 1101.5 1853.71)"/><g><g><g><path d="M24.3335 115.853 42.2476 123.322C44.7601 124.369 46.8078 121.978 46.8162 117.976L46.8392 105.016C46.8392 101.017 44.8125 96.9238 42.2958 95.8769L24.3817 88.419C21.8692 87.3721 19.8194 89.7631 19.8131 93.7643L19.7901 106.725C19.7838 110.713 21.8168 114.806 24.3335 115.853Z" fill="#0091BD" transform="matrix(1 0 0 1.00498 1467 1261)"/><path d="M77.0373 137.798 94.9514 145.256C95.317 145.415 95.7106 145.498 96.1093 145.503 98.0669 145.503 99.5137 143.275 99.52 139.91L99.543 126.95C99.543 122.951 97.5163 118.858 94.9996 117.811L77.0876 110.353C76.722 110.195 76.3282 110.111 75.9297 110.106 73.9721 110.106 72.5232 112.334 72.5169 115.698L72.4939 128.659C72.4876 132.658 74.5207 136.751 77.0373 137.798ZM80.8836 121.006 90.7786 125.124C91.0267 125.696 91.159 126.312 91.168 126.936L91.1555 134.605 81.2604 130.484C81.0111 129.913 80.8779 129.297 80.8689 128.673Z" fill="#0091BD" transform="matrix(1 0 0 1.00498 1467 1261)"/><path d="M6.82562 65.2642C6.58653 65.3569 6.35662 65.4721 6.13887 65.6076 4.97223 66.3839 4.27127 67.6923 4.27124 69.0937L4.18749 116.163C4.18431 117.857 5.20154 119.385 6.7649 120.037L11.0173 121.806 13.7266 127.25C14.1761 128.153 14.9367 128.864 15.8685 129.251L42.6392 140.398C47.884 142.586 53.1226 140.524 55.9889 135.164L58.8908 129.733C59.096 130.097 59.2704 130.478 59.4122 130.872L63.0365 140.744C65.283 146.86 69.0539 151.401 73.3817 153.204L100.154 164.359C101.831 165.057 103.767 164.595 104.947 163.214L106.957 160.863 110.483 161.202 110.969 161.219 111.463 161.17C111.834 161.133 112.198 161.045 112.545 160.911L139.764 149.843C141.035 149.328 141.974 148.223 142.276 146.885L148.604 118.791 171.539 109.294C171.766 109.194 172.029 109.22 172.232 109.363 172.443 109.494 172.568 109.728 172.56 109.976L172.56 111.467C172.561 111.788 172.353 112.071 172.047 112.168 168.295 113.389 165.758 116.89 165.766 120.836L165.766 123.089C165.774 128.122 169.86 132.195 174.892 132.187 176.016 132.186 177.13 131.976 178.178 131.569L180.209 130.778C190.249 126.907 196.856 117.238 196.812 106.478L196.812 101.71C196.811 91.3169 188.385 82.8925 177.991 82.894 175.609 82.8942 173.249 83.3466 171.036 84.2273L112.068 107.698 44.6492 79.6273 45.9054 74.8598 68.9366 65.3165C69.3137 65.1604 69.7461 65.3396 69.9023 65.7169 69.9393 65.8063 69.9584 65.9022 69.9584 65.9991L69.9584 67.4899C69.9588 67.8106 69.7511 68.0943 69.4454 68.1913 65.693 69.4121 63.1558 72.9133 63.1642 76.8594L63.1642 79.1122C63.1621 84.1423 67.238 88.2217 72.268 88.224 73.4026 88.2244 74.5274 88.013 75.5843 87.6003L77.6152 86.8089C87.6558 82.9388 94.2626 73.2694 94.2186 62.5088L94.2186 57.7414C94.2178 47.3482 85.7917 38.9234 75.3984 38.9244 73.0079 38.9246 70.6395 39.3802 68.4195 40.2669ZM71.5392 48.041C76.8966 45.9075 82.9693 48.5211 85.1029 53.8788 85.5922 55.1076 85.8436 56.4185 85.8436 57.7414L85.8436 62.5088C85.8738 69.8135 81.3902 76.378 74.5751 79.0076L72.5421 79.799C72.1646 79.9481 71.7376 79.7632 71.5886 79.3857 71.554 79.2986 71.5367 79.2058 71.5371 79.1122L71.5371 76.8594C71.5362 76.5399 71.7418 76.2564 72.0458 76.158 75.8041 74.9423 78.348 71.4397 78.3417 67.4899L78.3417 65.9991C78.343 60.9668 74.2644 56.8861 69.2321 56.8848 68.0351 56.8846 66.8496 57.1201 65.7437 57.5781L40.7946 67.917C39.589 68.417 38.6855 69.4507 38.3512 70.7121L36.85 76.3799 19.4425 69.1314ZM106.706 152.425 105.592 152.318C104.232 152.186 102.893 152.726 102.005 153.765L100.561 155.459 76.5997 145.478C75.019 144.818 72.5756 142.429 70.8985 137.863L67.2742 127.991C65.6453 123.552 62.4586 120.644 58.9725 120.401 58.8113 120.39 58.6542 120.384 58.4951 120.384 55.8275 120.433 53.4144 121.98 52.2557 124.383L48.6022 131.224C47.4673 133.347 46.4603 132.928 45.8593 132.689L20.525 122.143 17.8199 116.678C17.3719 115.774 16.6117 115.063 15.6801 114.677L12.5625 113.381 12.6358 75.3749 106.781 114.566ZM188.437 106.478C188.467 113.782 183.984 120.347 177.169 122.976L175.136 123.768C174.758 123.917 174.331 123.732 174.182 123.354 174.148 123.267 174.13 123.175 174.131 123.081L174.131 120.828C174.13 120.509 174.335 120.225 174.639 120.127 178.398 118.911 180.942 115.408 180.935 111.459L180.935 109.968C180.937 104.935 176.858 100.855 171.826 100.854 170.629 100.853 169.443 101.089 168.337 101.547L143.388 111.886C142.132 112.407 141.208 113.507 140.909 114.834L134.582 142.909 115.156 150.808 115.156 115.483 174.133 92.0097C179.49 89.8762 185.563 92.4898 187.697 97.8475 188.186 99.0763 188.437 100.387 188.437 101.71Z" fill="#0091BD" transform="matrix(1 0 0 1.00498 1467 1261)"/></g></g></g><g><g><g><path d="M237.056 144.587 222.765 120.209C217.722 111.803 209.596 106.199 200.349 104.237 201.189 95.551 199.788 85.1833 196.426 74.5354 188.3 51.2781 160.839 39.2291 160.839 39.2291 160.839 39.2291 157.757 44.8333 154.955 53.2395 163.642 58.0031 172.888 65.0083 179.053 75.376 184.657 85.1833 188.3 94.9906 189.421 103.677L183.536 103.677C182.135 95.8312 179.053 86.8645 174.009 78.1781 161.68 56.602 132.258 50.4375 132.258 50.4375 132.258 50.4375 123.011 79.0187 135.341 100.595 136.742 103.117 138.423 105.638 140.104 108.16 132.538 105.358 124.693 103.957 116.286 103.957 89.6666 103.957 66.6895 119.088 55.4812 140.945 53.8 140.384 52.1187 140.104 50.4375 140.104 38.1083 140.104 28.0208 150.192 28.0208 162.521 28.0208 174.289 37.2677 184.097 48.7562 184.937 52.1187 203.711 63.327 219.683 78.7385 229.771L137.302 229.771C142.066 229.771 145.708 226.128 145.708 221.364 145.708 216.601 142.066 212.958 137.302 212.958L111.803 212.958C125.813 208.755 135.901 195.865 135.901 180.734 135.901 162.241 120.77 147.109 102.276 147.109 99.1937 147.109 96.3916 147.389 93.5895 148.23 91.3478 148.791 89.1062 147.389 88.5458 145.148 87.9854 142.906 89.3864 140.664 91.6281 140.104 95.2708 139.263 98.9135 138.703 102.556 138.703 125.813 138.703 144.587 157.477 144.587 180.734 144.587 190.822 140.945 200.069 135.06 207.354 140.384 207.354 146.269 204.272 152.433 200.069L157.477 223.046C158.037 226.969 161.4 229.771 165.323 229.771 165.883 229.771 166.444 229.771 167.004 229.49 170.647 228.65 173.169 225.568 173.449 221.925L173.729 223.046C174.85 226.969 178.212 229.771 182.135 229.771 182.696 229.771 183.256 229.771 183.817 229.49 188.3 228.37 191.102 223.886 190.261 219.403L181.575 179.053C187.459 175.971 193.063 173.729 198.948 173.729 208.195 173.729 217.442 172.608 226.408 170.367 232.012 168.965 236.496 164.762 238.177 159.438L238.457 158.598C240.138 153.834 239.578 148.791 237.056 144.587Z" fill="#0091BD" transform="matrix(1 0 0 1 476 1275)"/></g></g></g><text fill="#0091BD" font-family="Calibri,Calibri_MSFontService,sans-serif" font-weight="700" font-size="83" transform="matrix(1 0 0 1 1072.57 1326)">N</text><text fill="#0091BD" font-family="Calibri,Calibri_MSFontService,sans-serif" font-weight="700" font-size="83" transform="matrix(1 0 0 1 1070.96 1922)">O</text><text fill="#BF9500" font-family="Calibri,Calibri_MSFontService,sans-serif" font-weight="700" font-size="55" transform="matrix(1 0 0 1 1311.17 1715)">in</text><text fill="#FF6B00" font-family="Calibri,Calibri_MSFontService,sans-serif" font-weight="700" font-size="55" transform="matrix(1 0 0 1 633.379 1756)">reflect(in, N)</text></g></svg>