<svg width="2873" height="933" xmlns="http://www.w3.org/2000/svg" xmlns:xlink="http://www.w3.org/1999/xlink" xml:space="preserve" overflow="hidden"><g transform="translate(-475 -957)"><rect x="1861" y="1072" width="718" height="354" stroke="#0091BD" stroke-width="10.3125" stroke-miterlimit="8" fill="#FFFFFF"/><text fill="#0091BD" font-family="Calibri,Calibri_MSFontService,sans-serif" font-weight="400" font-size="92" transform="matrix(1 0 0 1 1987.13 1170)">Acceleration </text><text fill="#0091BD" font-family="Calibri,Calibri_MSFontService,sans-serif" font-weight="400" font-size="92" transform="matrix(1 0 0 1 2045.96 1280)">Structure </text><text fill="#0091BD" font-family="Calibri,Calibri_MSFontService,sans-serif" font-weight="400" font-size="92" transform="matrix(1 0 0 1 2055.12 1390)">Traversal</text><path d="M1068 1251 1376.5 1045 1685 1251 1376.5 1457Z" stroke="#0091BD" stroke-width="10.3125" stroke-miterlimit="8" fill="#FFFFFF" fill-rule="evenodd"/><text fill="#0091BD" font-family="Calibri,Calibri_MSFontService,sans-serif" font-weight="400" font-size="83" transform="matrix(1 0 0 1 1224.13 1279)">Proceed</text><text fill="#0091BD" font-family="Calibri,Calibri_MSFontService,sans-serif" font-weight="400" font-size="64" transform="matrix(1 0 0 1 1498.38 1279)">?</text><path d="M480 1131C480 1098.42 506.416 1072 539.001 1072L831.999 1072C864.584 1072 891 1098.42 891 1131L891 1367C891 1399.58 864.584 1426 831.999 1426L539.001 1426C506.416 1426 480 1399.58 480 1367Z" stroke="#FF6B00" stroke-width="10.3125" stroke-miterlimit="8" fill="#FFFFFF" fill-rule="evenodd"/><text fill="#FF6B00" font-family="Calibri,Calibri_MSFontService,sans-serif" font-weight="400" font-size="92" transform="matrix(1 0 0 1 619.167 1225)">Ray </text><text fill="#FF6B00" font-family="Calibri,Calibri_MSFontService,sans-serif" font-weight="400" font-size="92" transform="matrix(1 0 0 1 571.111 1335)">Query</text><path d="M1137 1625C1137 1597.39 1159.39 1575 1187 1575L1570 1575C1597.61 1575 1620 1597.39 1620 1625L1620 1825C1620 1852.61 1597.61 1875 1570 1875L1187 1875C1159.39 1875 1137 1852.61 1137 1825Z" stroke="#FF6B00" stroke-width="10.3125" stroke-miterlimit="8" fill="#FFFFFF" fill-rule="evenodd"/><text fill="#FF6B00" font-family="Calibri,Calibri_MSFontService,sans-serif" font-weight="400" font-size="92" transform="matrix(1 0 0 1 1245.92 1701)">Handle </text><text fill="#FF6B00" font-family="Calibri,Calibri_MSFontService,sans-serif" font-weight="400" font-size="92" transform="matrix(1 0 0 1 1271.72 1811)">result</text><path d="M2756 1131C2756 1098.42 2782.42 1072 2815 1072L3284 1072C3316.58 1072 3343 1098.42 3343 1131L3343 1367C3343 1399.58 3316.58 1426 3284 1426L2815 1426C2782.42 1426 2756 1399.58 2756 1367Z" stroke="#FF6B00" stroke-width="10.3125" stroke-miterlimit="8" fill="#FFFFFF" fill-rule="evenodd"/><text fill="#FF6B00" font-family="Calibri,Calibri_MSFontService,sans-serif" font-weight="400" font-size="92" transform="matrix(1 0 0 1 2839.28 1225)">Confirm hit </text><text fill="#FF6B00" font-family="Calibri,Calibri_MSFontService,sans-serif" font-weight="400" font-size="92" transform="matrix(1 0 0 1 2814.07 1335)">or terminate</text><path d="M0-5.15625 114.067-5.15625 114.067 1678.28 52.1928 1678.28 52.1928 1667.97 108.911 1667.97 103.754 1673.13 103.754 0 108.911 5.15625 0 5.15625ZM57.349 1688.6 26.4115 1673.13 57.349 1657.66Z" fill="#0091BD" transform="matrix(-1.83697e-16 -1 -1 1.83697e-16 3049.13 1071.41)"/><path d="M891.07 1243.84 1041.63 1245.88 1041.49 1256.19 890.93 1254.16ZM1036.62 1235.5 1067.34 1251.39 1036.2 1266.44Z" fill="#0091BD"/><path d="M1381.16 1456.91 1382.81 1549.17 1372.5 1549.35 1370.84 1457.09ZM1393.03 1543.83 1378.11 1575.03 1362.09 1544.38Z" fill="#0091BD"/><path d="M0.0697883-5.15578 150.632-3.11778 150.492 7.19378-0.0697883 5.15578ZM145.616-13.4991 176.341 2.38694 145.197 17.4355Z" fill="#0091BD" transform="matrix(1 0 0 -1 1685 1251.39)"/><path d="M2579 1243.84 2729.56 1243.84 2729.56 1254.16 2579 1254.16ZM2724.4 1233.53 2755.34 1249 2724.4 1264.47Z" fill="#0091BD"/></g></svg>