<svg width="3464" height="1025" xmlns="http://www.w3.org/2000/svg" xmlns:xlink="http://www.w3.org/1999/xlink" xml:space="preserve" overflow="hidden"><defs><clipPath id="clip0"><rect x="449" y="1155" width="3464" height="1025"/></clipPath></defs><g clip-path="url(#clip0)" transform="translate(-449 -1155)"><rect x="1225" y="1240" width="1263" height="851" stroke="#0091BD" stroke-width="10.3125" stroke-miterlimit="8" fill="#FFFFFF"/><path d="M454 1555.4 562 1482 994 1482 994 1849 454 1849Z" stroke="#FF6B00" stroke-width="10.3125" stroke-miterlimit="8" fill="#FFFFFF" fill-rule="evenodd"/><text fill="#FF6B00" font-family="Calibri,Calibri_MSFontService,sans-serif" font-weight="400" font-size="92" transform="matrix(1 0 0 1 656.994 1678)">Ray </text><text fill="#FF6B00" font-family="Calibri,Calibri_MSFontService,sans-serif" font-weight="400" font-size="92" transform="matrix(1 0 0 1 513.994 1788)">Generation</text><path d="M1859 1384.8 1971.4 1325 2421 1325 2421 1624 1859 1624Z" stroke="#FF6B00" stroke-width="10.3125" stroke-miterlimit="8" fill="#FFFFFF" fill-rule="evenodd"/><text fill="#FF6B00" font-family="Calibri,Calibri_MSFontService,sans-serif" font-weight="400" font-size="92" transform="matrix(1 0 0 1 2000.52 1535)">Any</text><text fill="#FF6B00" font-family="Calibri,Calibri_MSFontService,sans-serif" font-weight="400" font-size="92" transform="matrix(1 0 0 1 2141.48 1535)">-</text><text fill="#FF6B00" font-family="Calibri,Calibri_MSFontService,sans-serif" font-weight="400" font-size="92" transform="matrix(1 0 0 1 2169.55 1535)">Hit</text><path d="M1859 1779.8 1971.4 1720 2421 1720 2421 2019 1859 2019Z" stroke="#FF6B00" stroke-width="10.3125" stroke-miterlimit="8" fill="#FFFFFF" fill-rule="evenodd"/><text fill="#FF6B00" font-family="Calibri,Calibri_MSFontService,sans-serif" font-weight="400" font-size="92" transform="matrix(1 0 0 1 1916.86 1930)">Intersection</text><path d="M3414 1299.8 3510.6 1240 3897 1240 3897 1539 3414 1539Z" stroke="#FF6B00" stroke-width="10.3125" stroke-miterlimit="8" fill="#FFFFFF" fill-rule="evenodd"/><text fill="#FF6B00" font-family="Calibri,Calibri_MSFontService,sans-serif" font-weight="400" font-size="92" transform="matrix(1 0 0 1 3454.14 1450)">Closest</text><text fill="#FF6B00" font-family="Calibri,Calibri_MSFontService,sans-serif" font-weight="400" font-size="92" transform="matrix(1 0 0 1 3720.09 1450)">-</text><text fill="#FF6B00" font-family="Calibri,Calibri_MSFontService,sans-serif" font-weight="400" font-size="92" transform="matrix(1 0 0 1 3748.16 1450)">Hit</text><path d="M3414 1851 3510.6 1791 3897 1791 3897 2091 3414 2091Z" stroke="#FF6B00" stroke-width="10.3125" stroke-miterlimit="8" fill="#FFFFFF" fill-rule="evenodd"/><text fill="#FF6B00" font-family="Calibri,Calibri_MSFontService,sans-serif" font-weight="400" font-size="92" transform="matrix(1 0 0 1 3569.93 2002)">Miss</text><rect x="1287" y="1325" width="570" height="662" fill="#FFFFFF"/><text fill="#0091BD" font-family="Calibri,Calibri_MSFontService,sans-serif" font-weight="400" font-size="92" transform="matrix(1 0 0 1 1339.08 1577)">Acceleration </text><text fill="#0091BD" font-family="Calibri,Calibri_MSFontService,sans-serif" font-weight="400" font-size="92" transform="matrix(1 0 0 1 1397.91 1687)">Structure </text><text fill="#0091BD" font-family="Calibri,Calibri_MSFontService,sans-serif" font-weight="400" font-size="92" transform="matrix(1 0 0 1 1407.07 1797)">Traversal</text><path d="M2728 1665.5 2951.5 1516 3175 1665.5 2951.5 1815Z" stroke="#0091BD" stroke-width="10.3125" stroke-miterlimit="8" fill="#FFFFFF" fill-rule="evenodd"/><text fill="#0091BD" font-family="Calibri,Calibri_MSFontService,sans-serif" font-weight="400" font-size="92" transform="matrix(1 0 0 1 2875.35 1697)">Hit?</text><path d="M2945.84 1516.29 2945.84 1384.84 3388.39 1384.84 3388.39 1395.16 2951 1395.16 2956.16 1390 2956.16 1516.29ZM3383.23 1374.53 3414.17 1390 3383.23 1405.47Z" fill="#0091BD"/><path d="M0-5.15625 130.798-5.15625 130.798 437.388 120.486 437.388 120.486 0 125.642 5.15625 0 5.15625ZM141.111 432.232 125.642 463.169 110.173 432.232Z" fill="#0091BD" transform="matrix(1.83697e-16 1 1 -1.83697e-16 2951 1815)"/><path d="M2488 1660.84 2701.9 1660.84 2701.9 1671.16 2488 1671.16ZM2696.75 1650.53 2727.69 1666 2696.75 1681.47Z" fill="#0091BD"/><path d="M994.5 1664.21 1203.17 1664.21 1203.17 1668.79 994.5 1668.79ZM1198.58 1652.75 1226.08 1666.5 1198.58 1680.25Z" fill="#0091BD"/><path d="M3661.35 2091 3661.35 2132.25 3651.04 2132.25 3651.04 2091ZM3661.35 2163.19 3661.35 2179.3 3625.9 2179.3 3625.9 2168.99 3656.19 2168.99 3651.04 2174.15 3651.04 2163.19ZM3594.97 2179.3 3553.72 2179.3 3553.72 2168.99 3594.97 2168.99ZM3522.78 2179.3 3481.53 2179.3 3481.53 2168.99 3522.78 2168.99ZM3450.59 2179.3 3409.34 2179.3 3409.34 2168.99 3450.59 2168.99ZM3378.4 2179.3 3337.15 2179.3 3337.15 2168.99 3378.4 2168.99ZM3306.22 2179.3 3264.97 2179.3 3264.97 2168.99 3306.22 2168.99ZM3234.03 2179.3 3192.78 2179.3 3192.78 2168.99 3234.03 2168.99ZM3161.84 2179.3 3120.59 2179.3 3120.59 2168.99 3161.84 2168.99ZM3089.65 2179.3 3048.4 2179.3 3048.4 2168.99 3089.65 2168.99ZM3017.47 2179.3 2976.22 2179.3 2976.22 2168.99 3017.47 2168.99ZM2945.28 2179.3 2904.03 2179.3 2904.03 2168.99 2945.28 2168.99ZM2873.09 2179.3 2831.84 2179.3 2831.84 2168.99 2873.09 2168.99ZM2800.9 2179.3 2759.65 2179.3 2759.65 2168.99 2800.9 2168.99ZM2728.72 2179.3 2687.47 2179.3 2687.47 2168.99 2728.72 2168.99ZM2656.53 2179.3 2615.28 2179.3 2615.28 2168.99 2656.53 2168.99ZM2584.34 2179.3 2543.09 2179.3 2543.09 2168.99 2584.34 2168.99ZM2512.15 2179.3 2470.9 2179.3 2470.9 2168.99 2512.15 2168.99ZM2439.97 2179.3 2398.72 2179.3 2398.72 2168.99 2439.97 2168.99ZM2367.78 2179.3 2326.53 2179.3 2326.53 2168.99 2367.78 2168.99ZM2295.59 2179.3 2254.34 2179.3 2254.34 2168.99 2295.59 2168.99ZM2223.4 2179.3 2182.15 2179.3 2182.15 2168.99 2223.4 2168.99ZM2151.22 2179.3 2109.97 2179.3 2109.97 2168.99 2151.22 2168.99ZM2079.03 2179.3 2037.78 2179.3 2037.78 2168.99 2079.03 2168.99ZM2006.84 2179.3 1965.59 2179.3 1965.59 2168.99 2006.84 2168.99ZM1934.65 2179.3 1893.4 2179.3 1893.4 2168.99 1934.65 2168.99ZM1862.47 2179.3 1851.84 2179.3 1851.84 2138.36 1862.16 2138.36 1862.16 2174.15 1857 2168.99 1862.47 2168.99ZM1841.53 2122.59 1857 2091.65 1872.47 2122.59Z" fill="#0091BD"/><path d="M0-5.15625 41.25-5.15625 41.25 5.15625 0 5.15625ZM72.1875-5.15625 87.6562-5.15625 87.6562 30.9375 77.3438 30.9375 77.3438 0 82.5 5.15625 72.1875 5.15625ZM87.6562 61.875 87.6562 103.125 77.3438 103.125 77.3438 61.875ZM87.6562 134.062 87.6562 175.312 77.3438 175.312 77.3438 134.062ZM87.6562 206.25 87.6562 247.5 77.3438 247.5 77.3438 206.25ZM87.6562 278.438 87.6562 319.688 77.3438 319.688 77.3438 278.438ZM87.6562 350.625 87.6562 391.875 77.3438 391.875 77.3438 350.625ZM87.6562 422.812 87.6562 464.062 77.3438 464.062 77.3438 422.812ZM87.6562 495 87.6562 536.25 77.3438 536.25 77.3438 495ZM87.6562 567.188 87.6562 608.438 77.3438 608.438 77.3438 567.188ZM87.6562 639.375 87.6562 680.625 77.3438 680.625 77.3438 639.375ZM87.6562 711.562 87.6562 752.812 77.3438 752.812 77.3438 711.562ZM87.6562 783.75 87.6562 825 77.3438 825 77.3438 783.75ZM87.6562 855.938 87.6562 897.188 77.3438 897.188 77.3438 855.938ZM87.6562 928.125 87.6562 969.375 77.3438 969.375 77.3438 928.125ZM87.6562 1000.31 87.6562 1041.56 77.3438 1041.56 77.3438 1000.31ZM87.6562 1072.5 87.6562 1113.75 77.3438 1113.75 77.3438 1072.5ZM87.6562 1144.69 87.6562 1185.94 77.3438 1185.94 77.3438 1144.69ZM87.6562 1216.88 87.6562 1258.12 77.3438 1258.12 77.3438 1216.88ZM87.6562 1289.06 87.6562 1330.31 77.3438 1330.31 77.3438 1289.06ZM87.6562 1361.25 87.6562 1402.5 77.3438 1402.5 77.3438 1361.25ZM87.6562 1433.44 87.6562 1474.69 77.3438 1474.69 77.3438 1433.44ZM87.6562 1505.62 87.6562 1546.88 77.3438 1546.88 77.3438 1505.62ZM87.6562 1577.81 87.6562 1619.06 77.3438 1619.06 77.3438 1577.81ZM87.6562 1650 87.6562 1691.25 77.3438 1691.25 77.3438 1650ZM87.6562 1722.19 87.6562 1763.44 77.3438 1763.44 77.3438 1722.19ZM87.6562 1794.38 87.6562 1804.35 46.0679 1804.35 46.0679 1794.04 82.5 1794.04 77.3438 1799.19 77.3438 1794.38ZM35.5208 1814.66 4.58333 1799.19 35.5208 1783.72Z" fill="#0091BD" transform="matrix(-1.83697e-16 -1 -1 1.83697e-16 3658.19 1242.58)"/></g></svg>