<svg xmlns="http://www.w3.org/2000/svg" version="1.1" height="160" width="416" viewBox="0 0 416 160" class="diagram" text-anchor="middle" font-family="monospace" font-size="13px">
<rect class="backdrop" x="0" y="0" width="416" height="160" rx="3px" ry="3px" fill="white" opacity="0.9"/>
<path d="M 8,16 L 8,144" fill="none" stroke="black"/>
<path d="M 64,48 L 64,144" fill="none" stroke="black"/>
<path d="M 104,80 L 104,144" fill="none" stroke="black"/>
<path d="M 144,80 L 144,144" fill="none" stroke="black"/>
<path d="M 184,48 L 184,144" fill="none" stroke="black"/>
<path d="M 224,80 L 224,144" fill="none" stroke="black"/>
<path d="M 264,80 L 264,144" fill="none" stroke="black"/>
<path d="M 304,48 L 304,144" fill="none" stroke="black"/>
<path d="M 408,16 L 408,144" fill="none" stroke="black"/>
<path d="M 8,16 L 408,16" fill="none" stroke="black"/>
<path d="M 8,48 L 408,48" fill="none" stroke="black"/>
<path d="M 8,80 L 408,80" fill="none" stroke="black"/>
<path d="M 8,112 L 408,112" fill="none" stroke="black"/>
<path d="M 8,144 L 408,144" fill="none" stroke="black"/>
<g class="text">
<text x="72" y="36">struct object</text>
<text x="36" y="68">id</text>
<text x="124" y="68">position</text>
<text x="244" y="68">velocity</text>
<text x="356" y="68">model_data</text>
<text x="88" y="100">x</text>
<text x="128" y="100">y</text>
<text x="168" y="100">z</text>
<text x="208" y="100">x</text>
<text x="248" y="100">y</text>
<text x="288" y="100">z</text>
<text x="36" y="132">4B</text>
<text x="84" y="132">4B</text>
<text x="124" y="132">4B</text>
<text x="164" y="132">4B</text>
<text x="204" y="132">4B</text>
<text x="244" y="132">4B</text>
<text x="284" y="132">4B</text>
<text x="356" y="132">8B</text>
</g>
</svg>
