<svg xmlns="http://www.w3.org/2000/svg" viewBox="0 0 1200 280" role="img" aria-label="SME2 ExecuTorch profiling workflow overview">
  <defs>
    <style>
      .box { fill:#ffffff; stroke:#0b4b78; stroke-width:2; }
      .box2 { fill:#f3f8ff; stroke:#0b4b78; stroke-width:2; }
      .t1 { font: 600 22px -apple-system,BlinkMacSystemFont,"Segoe UI",Roboto,Arial,sans-serif; fill:#0b2239; }
      .t2 { font: 400 16px -apple-system,BlinkMacSystemFont,"Segoe UI",Roboto,Arial,sans-serif; fill:#0b2239; }
      .t3 { font: 600 16px -apple-system,BlinkMacSystemFont,"Segoe UI",Roboto,Arial,sans-serif; fill:#0b2239; }
      .muted { fill:#425466; }
      .arrow { stroke:#0b4b78; stroke-width:3; fill:none; }
    </style>
    <marker id="arrowHead" viewBox="0 0 10 10" refX="9" refY="5" markerWidth="8" markerHeight="8" orient="auto-start-reverse">
      <path d="M 0 0 L 10 5 L 0 10 z" fill="#0b4b78"/>
    </marker>
  </defs>

  <rect x="30" y="40" width="250" height="90" rx="16" class="box2"/>
  <text x="55" y="75" class="t1">Setup</text>
  <text x="55" y="102" class="t2 muted">.venv + ExecuTorch</text>

  <rect x="325" y="40" width="250" height="90" rx="16" class="box2"/>
  <text x="350" y="75" class="t1">Build runners</text>
  <text x="350" y="102" class="t2 muted">SME2 on/off</text>

  <rect x="620" y="40" width="250" height="90" rx="16" class="box2"/>
  <text x="645" y="75" class="t1">Export model</text>
  <text x="645" y="102" class="t2 muted">.pte + .etrecord</text>

  <rect x="915" y="40" width="255" height="90" rx="16" class="box2"/>
  <text x="940" y="75" class="t1">Run + trace</text>
  <text x="940" y="102" class="t2 muted">.etdump + metrics</text>

  <path d="M 280 85 L 325 85" class="arrow" marker-end="url(#arrowHead)"/>
  <path d="M 575 85 L 620 85" class="arrow" marker-end="url(#arrowHead)"/>
  <path d="M 870 85 L 915 85" class="arrow" marker-end="url(#arrowHead)"/>

  <rect x="30" y="160" width="560" height="90" rx="16" class="box"/>
  <text x="55" y="195" class="t1">Analyze</text>
  <text x="55" y="222" class="t2 muted">operator breakdown + kernel hints + bottlenecks</text>
  <text x="465" y="214" class="t3">analysis_summary.json</text>

  <rect x="620" y="160" width="550" height="90" rx="16" class="box"/>
  <text x="645" y="195" class="t1">Automate (AI / CI)</text>
  <text x="645" y="218" class="t2 muted">preflight → run</text>
  <text x="645" y="242" class="t2 muted">validate → compare</text>
  <text x="980" y="214" class="t3">agentic-kits/</text>

  <path d="M 1042 130 L 1042 160" class="arrow" marker-end="url(#arrowHead)"/>
  <path d="M 305 130 L 305 160" class="arrow" marker-end="url(#arrowHead)"/>
</svg>

